<svg width="31" height="31" viewBox="0 0 31 31" fill="none" xmlns="http://www.w3.org/2000/svg">
<path d="M24.8045 16.8933H17.0531V25.1173C17.0531 25.5536 16.8897 25.9719 16.599 26.2804C16.3083 26.5889 15.914 26.7621 15.5028 26.7621C15.0916 26.7621 14.6973 26.5889 14.4066 26.2804C14.1159 25.9719 13.9525 25.5536 13.9525 25.1173V16.8933H6.20115C5.79 16.8933 5.39568 16.72 5.10494 16.4115C4.81421 16.103 4.65088 15.6847 4.65088 15.2484C4.65088 14.8122 4.81421 14.3938 5.10494 14.0854C5.39568 13.7769 5.79 13.6036 6.20115 13.6036H13.9525V5.37956C13.9525 4.94332 14.1159 4.52496 14.4066 4.2165C14.6973 3.90803 15.0916 3.73474 15.5028 3.73474C15.914 3.73474 16.3083 3.90803 16.599 4.2165C16.8897 4.52496 17.0531 4.94332 17.0531 5.37956V13.6036H24.8045C25.2156 13.6036 25.6099 13.7769 25.9007 14.0854C26.1914 14.3938 26.3547 14.8122 26.3547 15.2484C26.3547 15.6847 26.1914 16.103 25.9007 16.4115C25.6099 16.72 25.2156 16.8933 24.8045 16.8933Z" fill="#FF981A"/>
</svg>
