<svg width="48" height="48" viewBox="0 0 48 48" fill="none" xmlns="http://www.w3.org/2000/svg">
<rect x="1" y="1" width="46" height="46" rx="12" stroke="white"/>
<path d="M26.1578 15.3671C26.0659 15.275 25.9567 15.2019 25.8365 15.152C25.7162 15.1021 25.5873 15.0764 25.4572 15.0764C25.327 15.0764 25.1981 15.1021 25.0779 15.152C24.9577 15.2019 24.8485 15.275 24.7566 15.3671L18.1778 21.9459C18.1044 22.0191 18.0462 22.1061 18.0065 22.2019C17.9667 22.2977 17.9463 22.4003 17.9463 22.504C17.9463 22.6077 17.9667 22.7104 18.0065 22.8061C18.0462 22.9019 18.1044 22.9889 18.1778 23.0621L24.7566 29.6409C25.1445 30.0288 25.7699 30.0288 26.1578 29.6409C26.5457 29.253 26.5457 28.6276 26.1578 28.2396L20.4261 22.5001L26.1657 16.7605C26.5457 16.3805 26.5457 15.7471 26.1578 15.3671Z" fill="#191D31" stroke="#191D31" stroke-width="0.2"/>
</svg>
