<svg width="18" height="21" viewBox="0 0 18 21" fill="none" xmlns="http://www.w3.org/2000/svg">
<path d="M11.2255 16.1447V16.8754C11.2255 17.6507 10.9384 18.3942 10.4273 18.9424C9.91632 19.4906 9.22321 19.7985 8.50051 19.7985C7.7778 19.7985 7.0847 19.4906 6.57367 18.9424C6.06264 18.3942 5.77555 17.6507 5.77555 16.8754V16.1447M15.8102 14.6571C14.7168 13.2216 13.9449 12.4908 13.9449 8.53326C13.9449 4.9091 12.2197 3.61792 10.7997 2.99083C10.6111 2.90771 10.4335 2.71679 10.376 2.50898C10.127 1.59963 9.4287 0.798523 8.50051 0.798523C7.57232 0.798523 6.87362 1.60009 6.6271 2.50989C6.56962 2.71999 6.39207 2.90771 6.20345 2.99083C4.78179 3.61884 3.05825 4.90545 3.05825 8.53326C3.05612 12.4908 2.28419 13.2216 1.1908 14.6571C0.737773 15.2518 1.1346 16.1447 1.92696 16.1447H15.0783C15.8664 16.1447 16.2607 15.249 15.8102 14.6571Z" stroke="#FF981A" stroke-width="1.5" stroke-linecap="round" stroke-linejoin="round"/>
</svg>
