<svg width="22" height="20" viewBox="0 0 22 20" fill="none" xmlns="http://www.w3.org/2000/svg">
<path d="M11 14.0001C12.6569 14.0001 14 12.6569 14 11.0001C14 9.34321 12.6569 8.00006 11 8.00006C9.34315 8.00006 8 9.34321 8 11.0001C8 12.6569 9.34315 14.0001 11 14.0001Z" stroke="white" stroke-width="1.5"/>
<path d="M8.778 19H13.222C16.343 19 17.904 19 19.025 18.265C19.5087 17.948 19.9253 17.5389 20.251 17.061C21 15.961 21 14.428 21 11.364C21 8.29905 21 6.76705 20.251 5.66705C19.9253 5.18916 19.5087 4.78005 19.025 4.46305C18.305 3.99005 17.403 3.82105 16.022 3.76105C15.363 3.76105 14.796 3.27105 14.667 2.63605C14.5684 2.17092 14.3123 1.75408 13.9418 1.456C13.5714 1.15791 13.1095 0.996855 12.634 1.00005H9.366C8.378 1.00005 7.527 1.68505 7.333 2.63605C7.204 3.27105 6.637 3.76105 5.978 3.76105C4.598 3.82105 3.696 3.99105 2.975 4.46305C2.49162 4.78011 2.07537 5.18922 1.75 5.66705C1 6.76705 1 8.29905 1 11.364C1 14.428 1 15.96 1.749 17.061C2.073 17.537 2.489 17.946 2.975 18.265C4.096 19 5.657 19 8.778 19Z" stroke="white" stroke-width="1.5"/>
<path d="M18 8.00006H17" stroke="white" stroke-width="1.5" stroke-linecap="round"/>
</svg>
