<svg width="19" height="20" viewBox="0 0 19 20" fill="none" xmlns="http://www.w3.org/2000/svg">
<path d="M6.88943 15.6904H6.5004C3.38815 15.6904 1.83203 14.9078 1.83203 10.995V7.08214C1.83203 3.95186 3.38815 2.38672 6.5004 2.38672H12.7249C15.8371 2.38672 17.3933 3.95186 17.3933 7.08214V10.995C17.3933 14.1253 15.8371 15.6904 12.7249 15.6904H12.3359C12.0947 15.6904 11.8612 15.8078 11.7134 16.0034L10.5463 17.5686C10.0328 18.2572 9.1925 18.2572 8.67897 17.5686L7.51188 16.0034C7.38739 15.8313 7.09951 15.6904 6.88943 15.6904Z" stroke="#FF981A" stroke-width="1.5" stroke-miterlimit="10" stroke-linecap="round" stroke-linejoin="round"/>
<path d="M12.7226 9.42937H12.7296" stroke="#FF981A" stroke-width="2" stroke-linecap="round" stroke-linejoin="round"/>
<path d="M9.60937 9.42937H9.61636" stroke="#FF981A" stroke-width="2" stroke-linecap="round" stroke-linejoin="round"/>
<path d="M6.49706 9.42937H6.50405" stroke="#FF981A" stroke-width="2" stroke-linecap="round" stroke-linejoin="round"/>
</svg>
