<svg width="21" height="22" viewBox="0 0 21 22" fill="none" xmlns="http://www.w3.org/2000/svg">
<path d="M13 6.05066H13.01M10.5 19.0507H4C3.20435 19.0507 2.44129 18.7346 1.87868 18.172C1.31607 17.6094 1 16.8463 1 16.0507V4.05066C1 3.25501 1.31607 2.49195 1.87868 1.92934C2.44129 1.36673 3.20435 1.05066 4 1.05066H16C16.7956 1.05066 17.5587 1.36673 18.1213 1.92934C18.6839 2.49195 19 3.25501 19 4.05066V10.5507" stroke="#191D31" stroke-width="2" stroke-linecap="round" stroke-linejoin="round"/>
<path d="M1 14.0507L6 9.05066C6.928 8.15766 8.072 8.15766 9 9.05066L12.5 12.5507" stroke="#191D31" stroke-width="2" stroke-linecap="round" stroke-linejoin="round"/>
<path d="M12 12.0507L13 11.0507C13.679 10.3977 14.473 10.2217 15.214 10.5247M17 20.0507V14.0507M17 14.0507L20 17.0507M17 14.0507L14 17.0507" stroke="#191D31" stroke-width="2" stroke-linecap="round" stroke-linejoin="round"/>
</svg>
