<svg width="19" height="20" viewBox="0 0 19 20" fill="none" xmlns="http://www.w3.org/2000/svg">
<path d="M4.15016 6.08588L2.2329 4.1935L3.50207 2.93488L5.41033 4.83619L4.15016 6.08588ZM10.451 0.819336V3.49724H8.65076V0.819336H10.451ZM16.8689 4.1935L14.9516 6.08588L13.6914 4.83619L15.5997 2.93488L16.8689 4.1935ZM2.79997 9.29937V11.0846H0.0996094V9.29937H2.79997ZM16.3018 9.29937H19.0022V11.0846H16.3018V9.29937ZM4.15016 17.7794H14.9516C15.4291 17.7794 15.887 17.9675 16.2246 18.3023C16.5622 18.6371 16.7519 19.0912 16.7519 19.5647H2.34991C2.34991 19.0912 2.53958 18.6371 2.87719 18.3023C3.2148 17.9675 3.6727 17.7794 4.15016 17.7794ZM9.55089 4.38988C10.9832 4.38988 12.3569 4.95415 13.3698 5.95856C14.3826 6.96297 14.9516 8.32524 14.9516 9.74569V16.8868H4.15016V9.74569C4.15016 8.32524 4.71916 6.96297 5.73199 5.95856C6.74483 4.95415 8.11852 4.38988 9.55089 4.38988ZM9.55089 6.17515C8.59598 6.17515 7.68018 6.55133 7.00496 7.22093C6.32973 7.89054 5.9504 8.79872 5.9504 9.74569V15.1015H13.1514V9.74569C13.1514 8.79872 12.772 7.89054 12.0968 7.22093C11.4216 6.55133 10.5058 6.17515 9.55089 6.17515Z" fill="white"/>
</svg>
