<svg width="35" height="24" viewBox="0 0 35 24" fill="none" xmlns="http://www.w3.org/2000/svg">
<path d="M0.000244141 8.18176H34.9093V15.8181H0.000244141V8.18176Z" fill="#E6E7E8"/>
<path d="M29.4545 0H5.45455C1.83982 0 0 2.68636 0 6V8.18182H34.9091V6C34.9091 2.68636 33.0693 0 29.4545 0Z" fill="#EC1C24"/>
<path d="M0.000244141 17.9999C0.000244141 21.3136 1.84006 23.9999 5.45479 23.9999H29.4548C33.0695 23.9999 34.9093 21.3136 34.9093 17.9999V15.8181H0.000244141V17.9999Z" fill="#25333A"/>
<path fill-rule="evenodd" clip-rule="evenodd" d="M19.9881 10.0406C20.0415 10.5293 20.0404 11.0191 20.0639 11.51C20.1086 12.4482 20.1435 13.3907 20.1817 14.3317V14.5018C19.8943 14.2313 19.6308 13.9858 19.3701 13.7377C19.363 13.7131 19.375 13.6962 19.3924 13.6793C19.4399 13.6258 19.423 13.5626 19.4192 13.5047C19.3924 13.0984 19.3848 12.6904 19.3635 12.2824C19.3352 11.6933 19.3177 11.1053 19.2828 10.5162C19.2735 10.3357 19.3319 10.2058 19.4873 10.1153C19.585 10.0575 19.6504 10.0809 19.6537 10.1944C19.6624 10.4153 19.6701 10.6357 19.6821 10.8566C19.7164 11.492 19.7361 12.1286 19.7666 12.7635C19.7808 13.0586 19.8092 13.3526 19.7999 13.6466C19.7966 13.7349 19.8021 13.8211 19.8157 13.8735C19.7704 13.6891 19.807 13.4682 19.7895 13.2478C19.7573 12.8731 19.7503 12.4967 19.7344 12.1204C19.711 11.4784 19.6739 10.8391 19.6553 10.1971C19.651 9.99202 19.6941 9.96474 19.8948 10.0367C19.9253 10.0422 19.9575 10.0226 19.9881 10.0406ZM15.7172 13.8467C15.4908 14.0573 15.2633 14.2673 15.0212 14.4898C15.0212 14.288 15.0146 14.114 15.0223 13.9367C15.0703 12.7602 15.1221 11.5826 15.1717 10.4038C15.1772 10.2822 15.1908 10.1617 15.2017 10.04C15.2339 10.0269 15.2563 10.0749 15.2901 10.0504C15.3214 10.0266 15.3578 10.0104 15.3964 10.0029C15.4859 9.98765 15.5366 10.0302 15.5366 10.1213C15.5366 10.4011 15.5181 10.6777 15.5044 10.9537C15.4952 11.1697 15.4793 11.3857 15.4739 11.6017C15.4603 12.0882 15.4324 12.5737 15.4144 13.0575C15.403 13.328 15.3975 13.5997 15.3817 13.868C15.4024 13.6155 15.4024 13.358 15.4128 13.1038C15.4477 12.2857 15.4837 11.4675 15.5203 10.6493C15.5257 10.5031 15.5415 10.3553 15.5361 10.2075C15.5339 10.1578 15.5415 10.1082 15.5939 10.088C15.6397 10.0678 15.6752 10.1 15.7133 10.1213C15.8584 10.2075 15.9135 10.3313 15.9064 10.5015C15.8744 11.1945 15.8442 11.8876 15.8159 12.5807C15.8028 12.8922 15.805 13.2058 15.7684 13.5178C15.7581 13.6264 15.7292 13.7355 15.7172 13.8467Z" fill="#BF9200"/>
<path fill-rule="evenodd" clip-rule="evenodd" d="M15.717 13.8467C15.6799 13.7455 15.6784 13.6347 15.7127 13.5325C15.7312 13.5292 15.7607 13.5789 15.7683 13.5243C15.7727 13.4752 15.7868 13.4294 15.7868 13.3825C15.7868 13.0651 15.8092 12.7481 15.8245 12.4334C15.8463 11.9834 15.8567 11.5323 15.8883 11.084C15.8998 10.9329 15.8981 10.7801 15.9014 10.6296C15.9036 10.5483 15.8998 10.448 15.9979 10.424C16.0956 10.4005 16.1534 10.4807 16.2068 10.5527C16.239 10.5963 16.2412 10.6492 16.2379 10.7027C16.209 11.1309 16.203 11.5585 16.1818 11.9872C16.1632 12.4029 16.1485 12.818 16.1288 13.2352C16.1572 12.6211 16.185 12.0063 16.2085 11.3911C16.2145 11.1974 16.2292 11.0038 16.2347 10.8074C16.239 10.652 16.2805 10.622 16.4381 10.6367C16.5118 10.6449 16.5827 10.6591 16.6579 10.664C16.6923 10.6771 16.7299 10.6896 16.7403 10.7311C16.725 10.7867 16.6754 10.7807 16.6356 10.7818C16.5488 10.7878 16.5194 10.8385 16.5434 10.9127C16.5712 10.9918 16.5608 11.0731 16.5647 11.1521C16.5608 11.2241 16.5592 11.2961 16.5532 11.3681C16.5347 11.526 16.5254 11.6848 16.5254 11.8438C16.5221 12.1318 16.4948 12.4214 16.4872 12.7089C16.4599 12.815 16.4534 12.9254 16.4681 13.034C16.4752 13.0689 16.4856 13.1038 16.4943 13.1387C16.5025 13.1905 16.4812 13.2374 16.4528 13.2778C16.439 13.293 16.422 13.305 16.4031 13.313C16.3842 13.321 16.3638 13.3248 16.3432 13.3241C16.2903 13.316 16.2674 13.3591 16.2374 13.3852L15.717 13.8467ZM19.3956 13.718C19.3863 13.7256 19.3776 13.7321 19.3694 13.7403C19.257 13.6356 19.1425 13.532 19.0318 13.4251C19.0236 13.4016 19.0339 13.383 19.047 13.3645C19.0579 13.3443 19.0552 13.323 19.0552 13.3007C19.047 12.6581 19.0121 12.0194 18.9799 11.3791C18.9685 11.1461 18.9772 10.9111 18.9516 10.6787C18.9452 10.6386 18.9543 10.5976 18.9772 10.5641C19.0296 10.49 19.0879 10.4021 19.1921 10.4272C19.2892 10.4512 19.2865 10.5521 19.2876 10.6329C19.3056 11.3431 19.3492 12.0532 19.3803 12.7634C19.3912 13.0176 19.3803 13.2751 19.4179 13.5287C19.4261 13.5892 19.4354 13.658 19.3956 13.718ZM19.0508 14.1085C19.0618 14.2111 19.1038 14.2356 19.2112 14.2051C19.3776 14.1571 19.611 14.271 19.5772 14.4827C19.5696 14.5405 19.5843 14.5787 19.6427 14.606C19.7283 14.6458 19.7589 14.7571 19.8636 14.7761C19.8788 14.78 19.887 14.8111 19.8734 14.8214C19.7752 14.8787 19.8041 15.0167 19.7114 15.0783C19.6989 15.0881 19.6808 15.1045 19.6792 15.1187C19.6727 15.3074 19.533 15.3412 19.3879 15.3723C18.6996 15.5223 18.0019 15.5365 17.3021 15.5223C16.7861 15.5136 16.2712 15.4852 15.7661 15.3614C15.633 15.3309 15.5485 15.2807 15.5027 15.1323C15.4663 15.0292 15.4122 14.9332 15.3428 14.8487C15.3025 14.799 15.3134 14.7941 15.3587 14.7571C15.4727 14.6643 15.6292 14.6081 15.6199 14.4047C15.6128 14.2591 15.8185 14.1505 15.9794 14.204C16.0841 14.2383 16.1283 14.2127 16.1398 14.1085C16.1747 14.1014 16.1883 14.126 16.2008 14.1505C16.2194 14.1898 16.215 14.2296 16.2101 14.2711C16.2036 14.2893 16.1908 14.3048 16.1741 14.3147C16.1234 14.3387 16.0732 14.3245 16.0247 14.3103C15.9898 14.2989 15.9467 14.2825 15.9156 14.3196C15.8768 14.3681 15.9358 14.3823 15.9521 14.4129C15.9608 14.4275 15.9646 14.4445 15.963 14.4614C15.9548 14.4898 15.9314 14.5045 15.9085 14.5181C15.8294 14.5361 15.7639 14.5716 15.729 14.6523C15.7132 14.6916 15.6718 14.7129 15.6336 14.7385C15.5267 14.8132 15.5163 14.8721 15.5959 14.9725C15.6107 14.9927 15.6347 15.0123 15.6396 15.0363C15.6718 15.1967 15.7961 15.224 15.9287 15.2501C16.3754 15.3363 16.8292 15.3745 17.2852 15.3772C17.6938 15.3811 18.1007 15.3887 18.5081 15.3511C18.7967 15.3243 19.0858 15.2954 19.3672 15.224C19.4501 15.2032 19.5118 15.1711 19.5319 15.08C19.5412 15.038 19.5718 15.0031 19.5985 14.9687C19.6699 14.8803 19.6656 14.8132 19.5767 14.7494C19.5158 14.7145 19.4654 14.6641 19.4305 14.6032C19.395 14.5329 19.3274 14.5427 19.2598 14.552C19.0759 14.5831 18.8987 14.636 18.7159 14.6714C18.6919 14.6681 18.6761 14.655 18.6625 14.6338C18.6499 14.6144 18.6424 14.592 18.6409 14.5689C18.6394 14.5458 18.6438 14.5227 18.6538 14.5018C18.6635 14.4827 18.6795 14.4675 18.699 14.4587C18.8965 14.5394 19.065 14.4107 19.2499 14.3883C19.2756 14.3845 19.2898 14.3649 19.287 14.3414C19.2778 14.306 19.2494 14.2961 19.2145 14.3011C19.1518 14.3081 19.0901 14.3458 19.0236 14.3191C19.0061 14.3092 18.9923 14.2939 18.9843 14.2754C18.9741 14.2346 18.9766 14.1916 18.9914 14.1521C19.0029 14.1271 19.0159 14.102 19.053 14.1085" fill="#BF9200"/>
<path fill-rule="evenodd" clip-rule="evenodd" d="M19.0577 13.4016L19.0315 13.4218C18.9519 13.388 18.9132 13.2942 18.8237 13.2729C18.8148 13.2799 18.8043 13.2846 18.7932 13.2864C18.782 13.2882 18.7705 13.2871 18.7599 13.2832C18.7092 13.25 18.6912 13.2042 18.6939 13.1463C18.6988 13.1103 18.7141 13.0771 18.7195 13.0394C18.7364 12.9344 18.731 12.827 18.7037 12.7242C18.6928 12.41 18.6633 12.0985 18.6622 11.7832C18.6622 11.6791 18.6775 11.5683 18.6153 11.4729C18.5936 11.4577 18.5766 11.4367 18.5662 11.4123C18.5892 11.2558 18.6208 11.1009 18.6399 10.9427C18.6552 10.8123 18.6595 10.8058 18.5313 10.7823C18.4981 10.7763 18.4621 10.7763 18.449 10.7338C18.4588 10.6902 18.4986 10.6792 18.5341 10.6645C18.6153 10.6574 18.6966 10.6411 18.7779 10.6334C18.9012 10.6214 18.947 10.6569 18.9541 10.7812C18.9661 11.0294 18.9742 11.276 18.9846 11.5231C19.0168 12.1356 19.031 12.752 19.0681 13.3656C19.0681 13.3787 19.0615 13.3907 19.0577 13.4016Z" fill="#BF9200"/>
<path fill-rule="evenodd" clip-rule="evenodd" d="M18.7735 13.2706C18.7909 13.2706 18.8073 13.2723 18.8242 13.2723L18.9267 13.6857C18.9415 13.7103 18.9398 13.7316 18.9126 13.7474C18.8924 13.7577 18.8651 13.7196 18.8466 13.7577C18.7582 13.9296 18.792 14.0894 18.9502 14.211C18.9715 14.2257 18.9938 14.2377 19.0037 14.2656C19.0133 14.2743 19.0235 14.2825 19.0342 14.2901C19.0331 14.3506 18.9824 14.355 18.9458 14.3648C18.8504 14.3845 18.7582 14.415 18.66 14.4085C18.6256 14.4084 18.5916 14.4157 18.5602 14.4297C18.3649 14.4679 18.1675 14.4657 17.9711 14.4586C17.9367 14.4565 17.8964 14.4532 17.8855 14.499C17.8762 14.5426 17.9117 14.5568 17.946 14.5666C18.0333 14.5961 18.1244 14.5852 18.2127 14.5901C18.2618 14.5928 18.3164 14.5759 18.3546 14.6256C18.3606 14.6937 18.3066 14.697 18.2613 14.7046C18.2057 14.7128 18.1492 14.7139 18.0933 14.7079C17.9809 14.7014 17.8784 14.7221 17.7949 14.8061C17.7842 14.8191 17.7703 14.829 17.7546 14.835C17.6662 14.865 17.592 14.7657 17.4791 14.8323C17.412 14.8732 17.3067 14.7499 17.2555 14.6577C17.2504 14.6391 17.2496 14.6195 17.2533 14.6005C17.2615 14.5579 17.3318 14.5416 17.3051 14.4903C17.2762 14.4374 17.2184 14.4636 17.1747 14.4586C17.0782 14.4488 16.9751 14.5023 16.8884 14.427C16.8835 14.3403 16.9718 14.3517 17.0117 14.3092C17.0357 14.2888 17.0658 14.2767 17.0973 14.2748C17.1169 14.2748 17.1338 14.2819 17.1497 14.2939C17.1644 14.3081 17.1802 14.3272 17.2026 14.325C17.3378 14.3114 17.4486 14.3583 17.55 14.4401C17.5751 14.4603 17.6051 14.469 17.6324 14.4456C17.7409 14.3621 17.8615 14.3125 18.0049 14.3228C18.0197 14.3228 18.0317 14.3037 18.0447 14.2928C18.0595 14.2813 18.077 14.274 18.0955 14.2716C18.1909 14.3092 18.2586 14.3059 18.3077 14.1908C18.3507 14.0877 18.408 14.097 18.5324 14.2083C18.6197 14.0872 18.6191 14.0616 18.5138 13.9072C18.4538 13.9568 18.4544 14.0736 18.354 14.0725C18.2607 14.0725 18.2406 13.9759 18.186 13.9241C18.1353 13.9819 18.1751 14.0992 18.0611 14.1145C18.0077 14.0796 18.0033 14.0277 18.0126 13.9726C18.0535 13.8554 18.0469 13.7359 18.0349 13.617C18.0389 13.5975 18.0471 13.5791 18.0589 13.563C18.1162 13.4954 18.1026 13.4081 18.1233 13.3301C18.1418 13.263 18.1397 13.1686 18.234 13.1605C18.318 13.155 18.3551 13.2357 18.396 13.2957C18.4072 13.3113 18.4142 13.3296 18.4162 13.3486C18.4102 13.2957 18.4337 13.2286 18.4707 13.1686C18.5193 13.0912 18.6098 13.0983 18.6764 13.1806C18.7037 13.215 18.7157 13.2685 18.7735 13.2706Z" fill="#BF9200"/>
<path fill-rule="evenodd" clip-rule="evenodd" d="M17.0733 14.367C17.0198 14.415 16.9451 14.373 16.8895 14.4145C16.8136 14.505 16.7247 14.4237 16.6429 14.4319C16.6058 14.4248 16.5731 14.4057 16.5355 14.4085C16.4362 14.415 16.3418 14.3845 16.2464 14.3648C16.2087 14.355 16.1575 14.3512 16.1553 14.2901C16.166 14.2827 16.1762 14.2745 16.1858 14.2656C16.1951 14.2377 16.218 14.2263 16.2393 14.211C16.3958 14.0894 16.4324 13.9296 16.3445 13.7594C16.3244 13.7223 16.2982 13.7577 16.2769 13.7479C16.2485 13.7321 16.2485 13.7108 16.2627 13.6863C16.2747 13.5619 16.3429 13.4506 16.3429 13.3246C16.3495 13.3102 16.3596 13.2977 16.3724 13.2883C16.3852 13.279 16.4002 13.2731 16.416 13.2712C16.4553 13.2712 16.4782 13.2466 16.4956 13.2134C16.5284 13.1539 16.5747 13.1065 16.6495 13.1157C16.7225 13.125 16.734 13.1932 16.7564 13.2499C16.7624 13.2641 16.7624 13.2832 16.7765 13.2952C16.7858 13.2974 16.7907 13.2925 16.7973 13.2843C16.8447 13.2319 16.8785 13.1425 16.9653 13.1626C17.0635 13.185 17.0536 13.2876 17.0711 13.365C17.0853 13.4266 17.082 13.4948 17.1409 13.5385C17.155 13.5515 17.1649 13.5684 17.1693 13.587C17.1453 13.7217 17.1278 13.8537 17.1911 13.9846C17.1949 14.0348 17.1829 14.0774 17.1409 14.1079C17.0105 14.1128 17.0596 13.9797 17.0035 13.9257C16.8475 14.1286 16.8229 14.1286 16.6827 13.9143C16.5769 14.031 16.5736 14.0583 16.6467 14.2056C16.6865 14.2072 16.6991 14.1652 16.7258 14.1472C16.7815 14.1085 16.8425 14.1057 16.8704 14.1652C16.9102 14.2645 16.9925 14.3125 17.0733 14.367ZM17.2255 9.53265C17.2495 9.37774 17.2915 9.2261 17.2822 9.06846C17.2806 9.01627 17.2663 8.96525 17.2404 8.91988C17.2146 8.87452 17.1779 8.8362 17.1338 8.80828C17.1073 8.7943 17.0776 8.78717 17.0476 8.78755C17.0018 8.78265 16.9429 8.88628 16.9135 8.78265C16.9011 8.74279 16.9004 8.70025 16.9113 8.65999C16.9222 8.61972 16.9443 8.58338 16.9751 8.55519C16.9909 8.54046 17.0144 8.52683 17.0324 8.52792C17.292 8.54592 17.5538 8.44446 17.8129 8.55737C17.9487 8.61846 18.0322 8.70628 18.0415 8.85737C18.0529 8.88355 18.0567 8.9081 18.0278 8.92446C17.9864 8.92446 17.964 8.89501 17.9509 8.86392C17.9051 8.74992 17.8091 8.74119 17.7267 8.78974C17.5587 8.89228 17.43 8.82519 17.3067 8.71774C17.2558 8.67636 17.1975 8.64507 17.1349 8.62555C17.2484 8.65283 17.3416 8.73192 17.4251 8.81701C17.4851 8.87592 17.5053 8.94083 17.4327 9.01992C17.3465 9.1121 17.3973 9.24301 17.3618 9.35265C17.3345 9.43392 17.3553 9.53919 17.2445 9.57792C17.2233 9.56919 17.2151 9.55501 17.2255 9.53265ZM18.2171 10.0405C18.2427 10.1037 18.2984 10.0923 18.3491 10.0896C18.5853 10.0808 18.7925 9.98701 18.9965 9.88065C19.0195 9.86646 19.0315 9.87792 19.0402 9.8981C19.038 9.9701 18.9802 10.0006 18.9289 10.0312C18.8425 10.0804 18.7498 10.1178 18.6535 10.1425C18.5384 10.1757 18.4271 10.2237 18.3175 10.2559C18.1675 10.3017 17.9945 10.3917 17.8244 10.2821C17.7791 10.2537 17.7344 10.2466 17.6798 10.2799C17.5549 10.3596 17.4807 10.3203 17.4464 10.1665C17.4489 10.1576 17.4533 10.1493 17.4592 10.1421C17.4651 10.135 17.4724 10.1292 17.4807 10.125C17.6416 10.1217 17.646 10.119 17.6438 9.94774C17.6438 9.90301 17.6362 9.86046 17.6411 9.81737C17.6575 9.73446 17.6618 9.65046 17.6607 9.56701C17.6602 9.51956 17.6515 9.47156 17.6962 9.43828C17.7829 9.43501 17.7736 9.5021 17.7775 9.55501C17.7867 9.70174 17.7736 9.84792 17.8053 9.9941C17.8173 10.0536 17.8369 10.1005 17.916 10.1321C17.8511 9.95784 17.8077 9.77632 17.7867 9.59155C17.7829 9.55228 17.7764 9.51465 17.7785 9.47537C17.7802 9.42246 17.7829 9.35865 17.8522 9.35865C17.9056 9.35756 17.9302 9.41101 17.9335 9.46174C17.9384 9.52992 17.9569 9.59646 17.964 9.66574C17.9755 9.78246 18.0016 9.89592 18.0502 10.0034C18.0715 10.0476 18.0949 10.1097 18.1647 10.0536C18.1805 10.0405 18.1969 10.0328 18.2171 10.0405Z" fill="#BF9200"/>
<path fill-rule="evenodd" clip-rule="evenodd" d="M17.2251 9.53265C17.2332 9.5452 17.2409 9.5572 17.2507 9.5692C17.3058 9.62483 17.2698 9.68374 17.2529 9.73774C17.2136 9.86374 17.134 9.96956 17.0696 10.0852C17.1569 10.0639 17.1912 9.9952 17.2174 9.9232C17.2671 9.78956 17.3151 9.65483 17.3336 9.50974C17.3363 9.49938 17.3336 9.48411 17.3385 9.47374C17.3658 9.41756 17.3521 9.31883 17.4389 9.32702C17.5371 9.33629 17.4934 9.42738 17.4901 9.4852C17.4752 9.71483 17.4078 9.93799 17.2932 10.1376C17.2774 10.1637 17.2611 10.1872 17.2589 10.2194C17.23 10.2461 17.23 10.2794 17.2376 10.3148C17.1901 10.3737 17.1394 10.3939 17.0996 10.3137C17.0734 10.2603 17.0418 10.275 17.0025 10.2854C16.9256 10.3056 16.8574 10.2952 16.8056 10.2287C16.769 10.1839 16.7167 10.1779 16.6638 10.1708C16.5264 10.1506 16.394 10.1046 16.2738 10.035C16.217 10.0067 16.1543 9.97611 16.1494 9.89811C16.1581 9.87793 16.1701 9.86593 16.1936 9.88065C16.3921 9.98483 16.5945 10.0737 16.8252 10.0923C16.9021 10.0967 16.9507 10.0765 16.9938 10.0083C17.0876 9.8572 17.1596 9.69683 17.2251 9.53265Z" fill="#BF9200"/>
<path fill-rule="evenodd" clip-rule="evenodd" d="M16.1938 9.87795C16.1824 9.88504 16.172 9.89322 16.16 9.90249C16.1044 9.94613 16.0542 9.91395 16.0029 9.89104C15.8889 9.83921 15.7677 9.80465 15.6435 9.78849C15.4957 9.76831 15.386 9.83813 15.3266 9.97722C15.3048 10.0329 15.2775 10.0896 15.2475 10.1409C15.1875 10.1261 15.2393 10.0618 15.2017 10.0378C15.2573 9.76504 15.4177 9.65049 15.6904 9.68813C15.8726 9.71322 16.0395 9.7754 16.1938 9.87795ZM19.0297 9.90522C19.0196 9.89575 19.0084 9.88751 18.9964 9.88067C19.1655 9.76831 19.3504 9.7034 19.55 9.68376C19.784 9.66031 19.9373 9.78849 19.988 10.0405L19.9624 10.1245C19.8964 10.1005 19.886 10.0334 19.8637 9.97995C19.8009 9.83813 19.688 9.76831 19.5337 9.79231C19.4136 9.8099 19.2967 9.84423 19.1862 9.89431C19.1355 9.91667 19.0848 9.94831 19.0297 9.90522ZM18.2169 10.0405C18.2077 10.0504 18.1991 10.061 18.1913 10.0721C18.1275 10.071 18.1018 10.0269 18.0844 9.97667C18.0265 9.83771 17.9951 9.68917 17.9917 9.53867C18.0031 9.4874 18.0184 9.43558 18.0697 9.40613C18.1018 9.62104 18.1291 9.83704 18.2169 10.0405Z" fill="#BF9200"/>
<path fill-rule="evenodd" clip-rule="evenodd" d="M18.071 9.40883C18.0596 9.45247 18.0754 9.50429 18.0432 9.54574C17.9652 9.45465 17.9467 9.01556 18.0187 8.92011C18.0258 8.89938 18.0339 8.88083 18.0421 8.86011C18.0956 9.04174 18.0732 9.22447 18.071 9.41102M16.2623 13.6852C16.271 13.7021 16.2787 13.7212 16.2847 13.7392C16.3583 13.839 16.3108 13.9127 16.2345 13.9803C16.1908 13.9847 16.2056 13.941 16.1892 13.9236C16.2094 13.8428 16.223 13.7588 16.2623 13.6852ZM18.9039 13.7397C18.911 13.7223 18.9181 13.7032 18.9263 13.6857C18.9656 13.7594 18.9798 13.8434 18.9994 13.9247C18.9841 13.9416 18.9994 13.9852 18.9541 13.9814C18.8778 13.9137 18.8303 13.8396 18.9039 13.7397Z" fill="#BF9200"/>
<path fill-rule="evenodd" clip-rule="evenodd" d="M16.19 13.9247C16.1998 13.9427 16.2074 13.9618 16.2173 13.982C16.268 14.0616 16.2631 14.126 16.1627 14.1609C16.154 14.1435 16.148 14.126 16.1393 14.108C16.1567 14.0475 16.1731 13.9858 16.19 13.9247ZM18.974 13.9825C18.9822 13.9624 18.9898 13.9433 18.9996 13.9253C19.016 13.9858 19.0329 14.048 19.0509 14.1091C19.0416 14.1265 19.0356 14.144 19.0269 14.162C18.9265 14.126 18.9216 14.0622 18.974 13.9825ZM16.5745 11.5307C16.5423 11.474 16.5363 11.4113 16.5238 11.3496C16.484 11.2842 16.52 11.2209 16.5276 11.156C16.5522 11.27 16.5773 11.3851 16.6007 11.5002C16.5925 11.5105 16.5925 11.5296 16.5745 11.5307ZM16.4676 12.9298C16.4791 12.9031 16.4883 12.8769 16.4987 12.8518C16.5205 12.8627 16.508 12.89 16.5205 12.9042C16.5053 12.9849 16.49 13.0695 16.4496 13.1436C16.4414 13.1153 16.4354 13.0858 16.4262 13.0553C16.4469 13.016 16.4191 12.9598 16.4676 12.9298ZM16.8903 10.712C16.8369 10.7191 16.7851 10.7289 16.7333 10.7382C16.7054 10.7289 16.6771 10.7218 16.6503 10.7136C16.7071 10.6907 16.7676 10.6902 16.8287 10.6875C16.8543 10.682 16.8849 10.6607 16.8903 10.712ZM15.9494 14.4495C16.0503 14.4707 16.154 14.4816 16.2494 14.5182C16.4065 14.5755 16.4845 14.5002 16.5402 14.3709C16.5729 14.3665 16.6018 14.3693 16.628 14.3911C16.6634 14.4189 16.7158 14.426 16.7278 14.4822C16.7414 14.5542 16.7954 14.57 16.8598 14.5624C16.9885 14.5798 17.1162 14.5978 17.2476 14.5836C17.2542 14.5848 17.2605 14.5873 17.2662 14.5909C17.2718 14.5946 17.2766 14.5993 17.2803 14.6049V14.6496C17.1341 14.6685 16.986 14.6689 16.8396 14.6507C16.7033 14.6333 16.6122 14.6731 16.5565 14.8231C16.5145 14.5891 16.3411 14.5727 16.1682 14.5438C16.0743 14.5302 15.98 14.5171 15.8938 14.4718C15.9129 14.4653 15.9309 14.4565 15.9494 14.4495ZM18.6494 14.3725C18.6402 14.4265 18.7122 14.4276 18.716 14.4724L18.6909 14.5007C18.6636 14.5242 18.6063 14.522 18.6085 14.5733C18.6134 14.6136 18.6642 14.6055 18.6893 14.6267L18.7149 14.6545C18.6887 14.7058 18.6609 14.7565 18.626 14.8258C18.5791 14.6802 18.4858 14.6289 18.3527 14.6524C18.2567 14.6098 18.1574 14.6415 18.0598 14.6322C18.0085 14.6278 17.9556 14.6398 17.9098 14.6076C17.9943 14.5225 18.104 14.5662 18.2011 14.564C18.3183 14.5591 18.4318 14.5853 18.4858 14.4413C18.4956 14.4162 18.5376 14.4124 18.5616 14.3944C18.5856 14.3709 18.6167 14.3671 18.6494 14.3725ZM18.6713 12.9042C18.6595 12.8657 18.648 12.8272 18.6369 12.7885C18.6145 12.7711 18.5894 12.7596 18.5758 12.7335C18.4877 12.5302 18.4297 12.3152 18.4034 12.0953C18.4007 12.0696 18.4062 12.0451 18.3991 12.0184C18.4705 11.8215 18.5709 11.6333 18.596 11.4211C18.6085 11.4304 18.6227 11.4375 18.6358 11.4467C18.6794 11.5602 18.6593 11.6807 18.6642 11.7985C18.6773 12.146 18.6794 12.4951 18.7269 12.8387C18.7209 12.8725 18.7154 12.9053 18.6713 12.9042ZM18.458 10.7387C18.3571 10.7398 18.2643 10.7093 18.1689 10.6869C18.1727 10.6351 18.2054 10.6564 18.2311 10.6607C18.3336 10.6782 18.4383 10.6962 18.5393 10.7115C18.5125 10.7214 18.4854 10.7305 18.458 10.7387Z" fill="#BF9200"/>
<path fill-rule="evenodd" clip-rule="evenodd" d="M18.6932 12.8522C18.703 12.8773 18.7134 12.9046 18.7243 12.9302C18.7728 12.9602 18.745 13.0164 18.7652 13.0568C18.7565 13.0862 18.7505 13.1157 18.7428 13.1451C18.7019 13.0693 18.6888 12.9869 18.6708 12.9046C18.6774 12.8871 18.6861 12.8702 18.6932 12.8522ZM18.0659 12.9324C17.9912 13.0791 17.9055 13.2226 17.9612 13.3982C17.9748 13.4211 17.9601 13.4462 17.965 13.4697C18.0081 13.6339 18.0545 13.7991 18.0632 13.9715C18.0518 14.0183 18.0533 14.0673 18.0675 14.1133C18.1335 14.1613 18.1548 14.2191 18.0905 14.2857C18.0825 14.2951 18.0749 14.3047 18.0675 14.3146C18.0239 14.3195 17.9863 14.3446 17.9415 14.3397C17.8543 14.3288 17.7763 14.296 17.7686 14.1989C17.7572 14.0642 17.7375 13.9289 17.725 13.7942C17.7261 13.7119 17.7092 13.6317 17.707 13.5499C17.6972 13.5204 17.7021 13.4871 17.6906 13.4604C17.6942 13.4689 17.6966 13.4779 17.6977 13.4871C17.6977 13.5209 17.7092 13.5509 17.7119 13.5859C17.7272 13.7004 17.7092 13.8209 17.7485 13.9339C17.7474 14.02 17.767 14.1051 17.7632 14.1929C17.7615 14.3086 17.6825 14.3969 17.5886 14.392C17.5003 14.3888 17.4272 14.3026 17.4261 14.1929C17.4245 14.0991 17.4386 14.0037 17.4463 13.9104C17.4763 13.804 17.467 13.6944 17.4785 13.5859C17.4828 13.528 17.5085 13.4724 17.5025 13.414C17.5063 13.468 17.4905 13.5182 17.479 13.5695C17.485 13.6442 17.4615 13.7179 17.4648 13.792C17.4479 13.9235 17.4332 14.0539 17.4239 14.1869C17.4168 14.2819 17.3345 14.3419 17.2352 14.3402C17.1954 14.3391 17.1615 14.3179 17.1228 14.3151L17.0994 14.2862C17.0366 14.2197 17.0557 14.1624 17.1217 14.1139C17.1321 14.0691 17.1414 14.0211 17.1523 13.9764C17.1425 13.8597 17.1375 13.744 17.1839 13.6322C17.1954 13.6 17.1839 13.5831 17.1485 13.5842C17.1403 13.5753 17.1329 13.5658 17.1261 13.5559C17.1703 13.4871 17.2145 13.4179 17.2592 13.3508C17.2805 13.3004 17.2925 13.2467 17.2946 13.192C17.2963 13.0993 17.3066 13.0071 17.3426 12.9188C17.3575 12.8868 17.3832 12.861 17.4152 12.8462C17.5952 12.9771 17.5952 12.9771 17.7757 12.8435C17.8053 12.8595 17.8296 12.8837 17.8455 12.9133C17.8715 12.9791 17.8875 13.0484 17.893 13.1189C17.8939 13.0202 17.9245 12.9241 17.9808 12.8429C17.9939 12.8274 18.0125 12.8176 18.0326 12.8157C18.0795 12.8233 18.1046 12.8506 18.1068 12.898C18.1008 12.9193 18.091 12.9362 18.0659 12.9324Z" fill="#BF9200"/>
<path fill-rule="evenodd" clip-rule="evenodd" d="M18.0604 13.6138C18.0179 13.5593 17.9759 13.5042 17.9323 13.4496C17.9415 13.4316 17.9508 13.4153 17.9606 13.3984C18.0124 13.4551 18.0512 13.5178 18.0855 13.5855L18.0604 13.6138ZM17.3846 10.1376C17.4899 10.0209 17.4899 9.86873 17.5134 9.72582C17.5368 9.59 17.5455 9.45309 17.5603 9.31018C17.6154 9.32927 17.6006 9.362 17.599 9.38709C17.5837 9.608 17.5624 9.82891 17.4986 10.0422C17.4894 10.0755 17.4757 10.1076 17.4894 10.1431C17.4795 10.1524 17.4724 10.1622 17.4637 10.1698H17.4135C17.3846 10.178 17.3775 10.1649 17.3846 10.1376ZM17.6972 9.87254C17.6601 9.69582 17.6797 9.51909 17.6715 9.32709C17.743 9.36582 17.7184 9.40836 17.7195 9.44273C17.6748 9.584 17.7119 9.73018 17.6972 9.87254Z" fill="#BF9200"/>
<path fill-rule="evenodd" clip-rule="evenodd" d="M17.3847 10.1376C17.3941 10.1488 17.4041 10.1596 17.4147 10.1698C17.3601 10.2243 17.2996 10.2668 17.2287 10.2958C17.1949 10.2723 17.197 10.2478 17.2287 10.2243C17.2941 10.2199 17.3339 10.1687 17.3847 10.1376ZM16.8905 10.7119C16.8703 10.7038 16.849 10.6967 16.8289 10.6874C16.9859 10.6427 17.1414 10.6001 17.299 10.5565C17.3258 10.5456 17.3339 10.5554 17.3339 10.5816C17.1917 10.6422 17.0429 10.686 16.8905 10.7119ZM17.9503 10.617C17.8474 10.5957 17.7513 10.5494 17.6705 10.4823C17.6732 10.4659 17.6869 10.4648 17.6989 10.4599L17.9852 10.5881C17.9879 10.6148 17.9809 10.629 17.9503 10.617Z" fill="#BF9200"/>
<path fill-rule="evenodd" clip-rule="evenodd" d="M17.334 10.5811C17.3226 10.5724 17.311 10.564 17.2991 10.556L17.544 10.4316C17.5498 10.4337 17.5551 10.4369 17.5596 10.4412C17.5641 10.4454 17.5677 10.4505 17.5702 10.4562C17.5025 10.5216 17.418 10.5527 17.334 10.5811ZM17.9503 10.6171L17.9853 10.5887C18.0665 10.6127 18.15 10.6378 18.2307 10.6607C18.2105 10.6705 18.1893 10.6776 18.1685 10.6869C18.0943 10.6705 18.0174 10.6564 17.9503 10.6171Z" fill="#BF9200"/>
<path fill-rule="evenodd" clip-rule="evenodd" d="M17.5696 10.4562C17.5598 10.448 17.5532 10.4398 17.5434 10.4316C17.6149 10.3324 17.6492 10.4284 17.6983 10.46L17.6699 10.4824C17.6378 10.4731 17.6132 10.4289 17.5696 10.4562ZM17.9339 12.5835C17.959 12.5011 17.9645 12.4187 17.9645 12.3326C17.9623 11.8406 17.9645 11.3502 17.9623 10.8582C17.9623 10.8096 17.9858 10.7546 17.9339 10.7126C17.9269 10.7093 17.9241 10.706 17.9269 10.7011C17.929 10.6962 17.9312 10.694 17.9339 10.694C18.1412 10.7355 18.343 10.8053 18.5585 10.8053C18.6152 10.8064 18.6179 10.8429 18.6163 10.8849C18.589 11.5324 18.3774 12.1046 17.9339 12.5835ZM17.2532 10.712C17.1916 10.7235 17.2014 10.7736 17.2014 10.8135C17.2014 11.3447 17.2041 11.8771 17.1992 12.4084C17.1992 12.4624 17.2369 12.5044 17.2314 12.5567C16.8829 12.1793 16.6909 11.7276 16.6058 11.2286C16.5861 11.114 16.5834 10.9962 16.5741 10.8789C16.5681 10.8255 16.5878 10.802 16.6445 10.802C16.8452 10.7976 17.0367 10.7371 17.2287 10.6886C17.2559 10.6755 17.2587 10.6907 17.2532 10.712ZM16.5223 12.9042C16.5158 12.8864 16.5085 12.869 16.5005 12.8518C16.5878 12.4155 16.5785 11.9726 16.5769 11.5302L16.603 11.5002C16.6658 11.6726 16.7296 11.8438 16.7923 12.0151C16.8065 12.0424 16.7912 12.0669 16.795 12.0931C16.7634 12.3135 16.7078 12.5278 16.6183 12.7335C16.6063 12.7596 16.5801 12.7711 16.5589 12.7875C16.5463 12.8267 16.5349 12.8671 16.5223 12.9042ZM18.0659 12.9326C18.0747 12.9233 18.0812 12.9135 18.0899 12.9042C18.1958 12.8698 18.1614 12.7836 18.1614 12.7116C18.1592 12.6369 18.103 12.6396 18.0507 12.6358C18.0414 12.6334 18.0332 12.628 18.0272 12.6206C18.0212 12.6131 18.0178 12.6039 18.0174 12.5944C18.1543 12.4116 18.2836 12.2202 18.3954 12.0184C18.4063 12.0347 18.4172 12.0527 18.4287 12.0691C18.3917 12.2064 18.3673 12.3468 18.3556 12.4886C18.3419 12.6762 18.4276 12.7504 18.6054 12.7166C18.6152 12.7389 18.6245 12.7635 18.6338 12.7886C18.5372 12.9478 18.5372 12.9478 18.3938 12.8082C18.3632 12.7787 18.3305 12.7498 18.2825 12.7051L18.2236 13.1496L18.0659 12.9326Z" fill="#BF9200"/>
<path fill-rule="evenodd" clip-rule="evenodd" d="M16.5562 12.7869L16.5834 12.7165C16.7045 12.7667 16.7771 12.7018 16.8392 12.6113C16.8682 12.5747 16.8812 12.5251 16.926 12.5027C16.9592 12.4967 16.9952 12.4984 17.0214 12.4684C17.0286 12.463 17.0371 12.4599 17.046 12.4593C17.0549 12.4587 17.0638 12.4607 17.0716 12.4651C17.0983 12.4984 17.136 12.5229 17.1447 12.5698C17.1443 12.5816 17.1401 12.5928 17.1327 12.602C17.0945 12.6298 17.0351 12.6309 17.0171 12.686C16.9865 12.7182 16.9854 12.7793 16.9227 12.7755C16.9085 12.758 16.9298 12.6849 16.8698 12.7394C16.8235 12.7782 16.7801 12.8203 16.74 12.8655C16.6729 12.944 16.6216 12.9587 16.5889 12.8393C16.5829 12.8202 16.5682 12.8044 16.5562 12.7869Z" fill="#BF9200"/>
<path fill-rule="evenodd" clip-rule="evenodd" d="M16.9367 12.5157C16.9226 12.5593 16.9078 12.6013 16.8953 12.6461C16.8544 12.6303 16.8407 12.5937 16.838 12.5533C16.823 12.3912 16.7969 12.2303 16.76 12.0717C16.7693 12.0521 16.7802 12.0346 16.7895 12.0144C16.8495 12.1197 16.9111 12.2223 16.9711 12.3275C16.9772 12.337 16.9806 12.3479 16.9809 12.3592C16.9667 12.3968 16.9684 12.4361 16.9695 12.4759C16.9651 12.4944 16.9569 12.5086 16.9367 12.5157ZM17.126 12.5779C17.1315 12.573 17.1375 12.5713 17.1435 12.5681C17.2346 12.6608 17.3251 12.7513 17.414 12.8446C17.4163 12.8755 17.4085 12.9064 17.3916 12.9324C17.3251 12.9057 17.2831 12.8261 17.1969 12.8446C17.18 12.8384 17.1661 12.8262 17.1576 12.8103C17.174 12.729 17.0764 12.663 17.126 12.5779ZM18.0167 12.5943C18.0237 12.5984 18.0296 12.604 18.0342 12.6106C18.068 12.6843 18.0495 12.7563 18.032 12.8288L18.0069 12.8577C17.9224 12.8359 17.8618 12.8937 17.7969 12.9335C17.7756 12.9057 17.7746 12.8741 17.7729 12.843C17.8536 12.7606 17.9371 12.6777 18.0167 12.5943ZM17.2558 12.5943C17.3693 12.6226 17.4293 12.7066 17.4789 12.8037C17.3884 12.7524 17.3224 12.6733 17.2558 12.5943ZM17.6682 10.5843C17.5896 10.5264 17.534 10.6246 17.462 10.6126C17.5275 10.5766 17.576 10.4261 17.6682 10.5843ZM17.504 12.8015C17.5722 12.8746 17.6382 12.8321 17.7036 12.7955C17.6851 12.8528 17.6458 12.8986 17.5896 12.8986C17.5482 12.897 17.5062 12.8572 17.504 12.8015Z" fill="#BF9200"/>
<path fill-rule="evenodd" clip-rule="evenodd" d="M16.9641 12.3707C16.9652 12.3554 16.968 12.3423 16.9701 12.3281C17.0034 12.374 17.035 12.4192 17.07 12.465C17.0607 12.4743 17.0519 12.4842 17.0438 12.4945C16.9778 12.4989 16.968 12.446 16.95 12.4034C16.9515 12.3914 16.9564 12.38 16.9641 12.3707ZM17.7769 12.7252C17.8074 12.675 17.8254 12.608 17.9067 12.6221C17.8701 12.6663 17.8385 12.7154 17.7769 12.7252ZM17.934 10.6918V10.7109C17.8876 10.6972 17.8314 10.6994 17.8074 10.6405C17.854 10.6434 17.8984 10.6614 17.934 10.6918ZM17.2532 10.712C17.2456 10.7049 17.2374 10.6967 17.2287 10.6896C17.2669 10.6563 17.3105 10.6405 17.359 10.6683C17.3312 10.701 17.2903 10.7038 17.2532 10.712ZM17.1769 12.7989L17.2014 12.8278C17.2734 12.9047 17.2789 13.0045 17.2958 13.0994C17.305 13.1392 17.3012 13.1812 17.3312 13.2161C17.3301 13.274 17.2903 13.3094 17.2581 13.3509C17.2281 13.2063 17.2058 13.0601 17.1234 12.9325C17.0989 12.9396 17.088 12.9232 17.0803 12.9014C17.0803 12.8365 17.1021 12.7934 17.1769 12.7989Z" fill="#BF9200"/>
<path fill-rule="evenodd" clip-rule="evenodd" d="M17.0978 12.9015L17.124 12.9325C17.082 12.9947 17.0367 13.1087 16.9811 13.0973C16.9025 13.0782 16.9538 12.9609 16.9325 12.8905C16.9216 12.8535 16.9255 12.8131 16.9216 12.7755C16.9358 12.7318 16.9511 12.6882 16.9653 12.6467C17.0291 12.6745 17.0231 12.734 17.0231 12.7891C17.0231 12.8442 17.0384 12.8851 17.0978 12.9015ZM18.5515 15.152C18.5138 15.1596 18.4685 15.1771 18.462 15.1155C18.4582 15.0587 18.4947 15.0265 18.5362 15.0009C18.612 14.9551 18.6022 15.0565 18.654 15.0805C18.6622 14.9895 18.7636 14.9458 18.7336 14.8465C18.7315 14.8405 18.7533 14.822 18.768 14.8155C18.7718 14.8133 18.7931 14.8264 18.7942 14.8335C18.8002 14.9316 18.9175 14.9218 18.9464 14.996C18.9529 15.0151 18.9829 15.0222 18.9884 15.0091C19.0424 14.9071 19.1231 14.9496 19.2071 14.9742C19.1929 14.9027 19.1798 14.8455 19.1684 14.7887C19.1569 14.732 19.1378 14.6835 19.0647 14.7129C19.0336 14.7255 19.0107 14.7118 19.0075 14.684C18.9993 14.648 19.0369 14.6496 19.0593 14.6431C19.1651 14.6158 19.2098 14.6715 19.2305 14.7669C19.2458 14.8536 19.2289 14.9775 19.3876 14.9169C19.3958 14.9131 19.4193 14.9322 19.4258 14.9453C19.4367 14.9687 19.4089 14.9796 19.3985 14.9785C19.2578 14.9698 19.1684 15.1384 19.0162 15.0871C18.99 15.08 18.9785 15.0969 18.9698 15.1204C18.9322 15.212 18.8875 15.224 18.8062 15.1547C18.732 15.0925 18.6627 15.1285 18.6125 15.2005C18.5629 15.2169 18.582 15.1542 18.5515 15.152ZM16.9642 15.2889C17.0689 15.2524 17.1365 15.2082 17.0782 15.1035C17.0596 15.0696 17.0716 15.0385 17.1049 15.0287C17.1355 15.0173 17.1415 15.0511 17.1524 15.0745C17.1633 15.0985 17.1709 15.128 17.2042 15.1182C17.2385 15.11 17.2265 15.0773 17.2249 15.0533C17.2222 15.0238 17.2091 14.9884 17.2456 14.972C17.2882 14.9545 17.2882 15.0031 17.3089 15.0195C17.3716 15.062 17.4442 15.0353 17.5113 15.0418C17.5713 15.0516 17.6433 15.0353 17.6209 15.1378C17.6776 15.1302 17.6738 15.0822 17.7044 15.0653C17.7393 15.0467 17.784 15.0173 17.8102 15.0467C17.8342 15.0751 17.832 15.128 17.832 15.1711C17.8331 15.2191 17.7922 15.2191 17.7573 15.2207C17.6945 15.2218 17.6313 15.2093 17.5893 15.2845C17.5691 15.3195 17.5244 15.3173 17.4867 15.2862C17.3542 15.182 17.2435 15.1782 17.1164 15.2725C17.0798 15.3009 17.04 15.3075 16.9642 15.2889ZM16.8016 15.1935C16.8256 15.0609 16.8491 14.9595 16.8425 14.8542C16.8404 14.8176 16.8529 14.7898 16.8851 14.7898C16.9396 14.7898 16.914 14.8335 16.9102 14.8569C16.8971 14.9644 16.8807 15.0707 16.8627 15.1782C16.8556 15.2147 16.8284 15.2393 16.7935 15.2502C16.7591 15.26 16.7367 15.2404 16.716 15.2153C16.6342 15.104 16.5098 15.0729 16.392 15.1427C16.3527 15.1662 16.3156 15.1842 16.2573 15.164C16.3369 15.1204 16.3947 15.0707 16.3576 14.9742C16.3505 14.9562 16.3658 14.9267 16.3887 14.9229C16.4165 14.9169 16.4209 14.9453 16.4236 14.9665C16.4296 15.0053 16.4351 15.0445 16.4836 15.0538C16.5071 15.0582 16.5278 15.0582 16.5436 15.0413C16.5567 15.0249 16.5376 15.0124 16.5278 14.9987C16.4553 14.8858 16.6053 14.9185 16.6276 14.858C16.6456 14.8133 16.704 14.8569 16.7051 14.8956C16.7073 14.9453 16.8545 14.996 16.7095 15.0462C16.7345 15.0882 16.7607 15.128 16.8016 15.1935ZM15.8569 14.6551C15.9164 14.6164 15.9829 14.6065 16.0249 14.6289C16.0587 14.648 16.0173 14.7058 16.0069 14.7473C16.0047 14.7555 16.0009 14.7636 16.0004 14.7729C15.9922 14.8264 15.9262 14.9027 15.9889 14.9316C16.0822 14.9709 16.0331 14.8542 16.0685 14.8242C16.0838 14.8133 16.1045 14.8095 16.1335 14.7975C16.1307 14.8264 16.1318 14.8427 16.1296 14.8591C16.1198 14.9049 16.0729 14.9627 16.158 14.9818C16.2376 15.0009 16.2235 14.9496 16.2235 14.8989C16.224 14.8607 16.2704 14.8564 16.3042 14.8547C16.3069 14.8607 16.3113 14.8651 16.3102 14.8689C16.2545 15.0991 16.2905 15.0767 16.0636 15.0222C16.0009 15.0085 15.9393 14.9889 15.8771 14.9698C15.8449 14.9622 15.7991 14.9665 15.7953 14.9207C15.7931 14.8727 15.8253 14.8422 15.87 14.8236C15.8946 14.8178 15.9175 14.806 15.9365 14.7893C15.9905 14.7271 15.9622 14.6725 15.8569 14.6551ZM17.9809 15.2229C17.8762 15.1956 17.9182 15.1204 17.9547 15.0882C18.0262 15.0298 18.0273 14.9665 17.9984 14.8935C17.9825 14.8525 18 14.8313 18.0305 14.8264C18.0682 14.822 18.0616 14.8596 18.0649 14.8831C18.0736 14.9485 18.0791 15.0118 18.0878 15.0762C18.0905 15.1111 18.0916 15.1531 18.144 15.1389C18.1822 15.1285 18.1904 15.1024 18.174 15.0685C18.1615 15.0385 18.1462 15.0064 18.1882 14.9955C18.2449 14.9818 18.2318 15.0342 18.2416 15.0631C18.276 15.1749 18.2225 15.212 18.1184 15.2055C18.078 15.2551 18.0262 15.2153 17.9809 15.2229ZM18.2525 15.2889C18.3338 15.2093 18.3911 15.1504 18.3049 15.0702C18.2798 15.0495 18.3022 15.0091 18.3311 14.996C18.3616 14.9845 18.3693 15.0195 18.3835 15.0407C18.4555 15.1591 18.4271 15.2376 18.2525 15.2889ZM16.9751 14.7925C17.0149 14.8138 17.0504 14.8247 17.0329 14.8695C17.0007 14.9469 17.0007 15.0293 16.9936 15.1089C16.9915 15.1367 16.9936 15.1787 16.95 15.17C16.9053 15.1618 16.9276 15.1231 16.9315 15.0969C16.9358 15.0445 16.9429 14.9944 16.95 14.9436C16.9576 14.8967 16.9642 14.8504 16.9751 14.7925Z" fill="#BF9200"/>
<path fill-rule="evenodd" clip-rule="evenodd" d="M18.1149 15.231C18.141 15.2408 18.1678 15.2621 18.1481 15.2872C18.1149 15.3248 18.0625 15.2943 18.0189 15.3008C17.9905 15.3068 17.9856 15.2703 18.0074 15.2452C18.0396 15.2212 18.0778 15.2277 18.1149 15.231ZM18.5512 15.1519C18.5714 15.1683 18.5894 15.1852 18.6112 15.1999C18.5872 15.255 18.5452 15.2604 18.4918 15.2512C18.5038 15.2103 18.5801 15.2119 18.5512 15.1519ZM17.9485 14.8852C17.9425 14.9097 17.9289 14.9152 17.9125 14.9097C17.9027 14.907 17.8912 14.8928 17.8912 14.8873C17.8923 14.8661 17.9081 14.8573 17.9278 14.8639C17.9365 14.8672 17.943 14.8775 17.9485 14.8852ZM17.9556 14.9883C17.9452 15.0008 17.9338 15.0155 17.9163 15.0057C17.901 14.9959 17.8885 14.9828 17.8994 14.9648C17.9081 14.9484 17.9207 14.9359 17.9387 14.9484C17.9534 14.955 17.9643 14.9686 17.9556 14.9883ZM19.3399 15.0728C19.3323 15.0968 19.3165 15.1017 19.2985 15.1001C19.2821 15.0979 19.2619 15.0903 19.2734 15.0679C19.2794 15.0564 19.2969 15.0466 19.311 15.0444C19.3307 15.0423 19.3383 15.0581 19.3399 15.0728ZM15.9112 15.0412C15.9014 15.0608 15.8889 15.0728 15.8698 15.0635C15.861 15.0581 15.8518 15.0433 15.8545 15.0335C15.8583 15.0177 15.8747 15.0079 15.8921 15.0177C15.9014 15.021 15.9063 15.0341 15.9112 15.0412ZM16.1665 15.1132C16.1539 15.1213 16.1452 15.1328 16.137 15.1339C16.1163 15.1383 16.1043 15.123 16.1109 15.1061C16.1141 15.0973 16.1294 15.0897 16.1392 15.0897C16.1463 15.0903 16.1539 15.1033 16.1665 15.1132ZM16.2052 14.3943C16.2425 14.385 16.2814 14.3852 16.3186 14.3948C16.3557 14.4045 16.3899 14.4232 16.4179 14.4493C16.3394 14.4619 16.2712 14.4346 16.2052 14.3943ZM15.8949 14.3015C15.9295 14.2915 15.9663 14.2917 16.0008 14.3021C16.0353 14.3124 16.0662 14.3325 16.0896 14.3599C16.0214 14.3724 15.9636 14.3463 15.8949 14.3015ZM18.7721 14.4417C18.8327 14.3943 18.9063 14.3833 18.9799 14.3801C18.9821 14.391 18.9865 14.4013 18.9892 14.4123L18.783 14.4728L18.7721 14.4417ZM19.0836 14.367C19.1447 14.3032 19.2063 14.289 19.2947 14.2944C19.2671 14.3215 19.2338 14.342 19.1973 14.3545C19.1608 14.3671 19.1219 14.3713 19.0836 14.367ZM16.8385 14.6053H17.2558C17.1192 14.643 16.975 14.643 16.8385 14.6053ZM17.4876 13.5581C17.4804 13.5591 17.4733 13.5604 17.4663 13.5619L17.4996 13.329C17.5176 13.4315 17.5263 13.497 17.4876 13.5581ZM17.6774 13.4784V13.3595C17.709 13.3917 17.6959 13.4233 17.7014 13.4528C17.7139 13.4801 17.6992 13.4828 17.6774 13.4784Z" fill="#BF9200"/>
<path fill-rule="evenodd" clip-rule="evenodd" d="M17.6775 13.4784C17.6852 13.4696 17.6932 13.461 17.7015 13.4528C17.7109 13.4643 17.7175 13.478 17.7206 13.4926C17.7238 13.5072 17.7234 13.5223 17.7195 13.5368C17.7122 13.5448 17.7044 13.5522 17.696 13.5591C17.6747 13.5368 17.6731 13.5073 17.6775 13.4784ZM16.9586 14.5131C16.8818 14.5298 16.8025 14.5314 16.7251 14.518C16.8069 14.4542 16.874 14.452 16.9586 14.5131ZM17.2373 14.5262C17.1816 14.5524 17.1216 14.5486 17.0584 14.5524C17.0676 14.5017 17.0993 14.5044 17.1282 14.5044C17.1615 14.5213 17.2056 14.4918 17.2373 14.5262Z" fill="#BF9200"/>
<path fill-rule="evenodd" clip-rule="evenodd" d="M17.2373 14.5263C17.1996 14.5203 17.1598 14.5263 17.1282 14.5045C17.1718 14.5018 17.2138 14.499 17.2558 14.499C17.2673 14.499 17.2814 14.5105 17.2613 14.5214C17.2553 14.5263 17.2454 14.5236 17.2373 14.5263ZM18.4454 14.505C18.3772 14.5296 18.3032 14.5335 18.2327 14.5165C18.3085 14.4445 18.3756 14.4728 18.4454 14.505ZM18.0658 14.5045C18.092 14.499 18.1138 14.5099 18.1449 14.5416C18.0814 14.5564 18.0149 14.551 17.9545 14.5263C17.9867 14.4919 18.0304 14.5214 18.0658 14.5045Z" fill="#BF9200"/>
<path fill-rule="evenodd" clip-rule="evenodd" d="M18.0657 14.5045C18.0313 14.5263 17.9921 14.5203 17.9544 14.5263C17.9435 14.5203 17.8961 14.5236 17.9332 14.5045C17.9664 14.4843 18.0193 14.5018 18.0657 14.5045ZM16.9639 12.3881C16.9355 12.4094 16.9475 12.4411 16.9377 12.4672C16.9192 12.4323 16.9066 12.3958 16.9241 12.3598C16.9312 12.3423 16.9513 12.362 16.9639 12.3707V12.3881ZM16.6361 14.9343C16.647 14.9463 16.6584 14.9534 16.6606 14.9632C16.6721 14.99 16.6492 14.99 16.6339 14.9878C16.6252 14.9878 16.6115 14.9731 16.6126 14.9654C16.6137 14.9556 16.6252 14.9463 16.6361 14.9343Z" fill="#BF9200"/>
</svg>
