<svg width="20" height="21" viewBox="0 0 20 21" fill="none" xmlns="http://www.w3.org/2000/svg">
<g id="Vector">
<path id="Vector_2" d="M18 10.8267C18 8.70493 17.1571 6.6701 15.6569 5.16981C14.1566 3.66952 12.1217 2.82666 10 2.82666C7.87827 2.82666 5.84344 3.66952 4.34315 5.16981C2.84285 6.6701 2 8.70493 2 10.8267C2 12.9484 2.84285 14.9832 4.34315 16.4835C5.84344 17.9838 7.87827 18.8267 10 18.8267C12.1217 18.8267 14.1566 17.9838 15.6569 16.4835C17.1571 14.9832 18 12.9484 18 10.8267ZM20 10.8267C20 13.4788 18.9464 16.0224 17.0711 17.8977C15.1957 19.7731 12.6522 20.8267 10 20.8267C8.68678 20.8267 7.38642 20.568 6.17317 20.0655C4.95991 19.5629 3.85752 18.8263 2.92893 17.8977C1.05357 16.0224 0 13.4788 0 10.8267C0 8.1745 1.05357 5.63096 2.92893 3.75559C4.8043 1.88023 7.34784 0.82666 10 0.82666C11.3132 0.82666 12.6136 1.08532 13.8268 1.58786C15.0401 2.09041 16.1425 2.82701 17.0711 3.75559C17.9997 4.68418 18.7362 5.78657 19.2388 6.99983C19.7413 8.21308 20 9.51344 20 10.8267ZM8 8.32666C8 9.12666 7.3 9.82666 6.5 9.82666C5.7 9.82666 5 9.12666 5 8.32666C5 7.52666 5.7 6.82666 6.5 6.82666C7.3 6.82666 8 7.52666 8 8.32666ZM15 8.32666C15 9.12666 14.3 9.82666 13.5 9.82666C12.7 9.82666 12 9.12666 12 8.32666C12 7.52666 12.7 6.82666 13.5 6.82666C14.3 6.82666 15 7.52666 15 8.32666ZM10 16.0567C8.25 16.0567 6.71 15.3267 5.81 14.2467L7.23 12.8267C7.68 13.5467 8.75 14.0567 10 14.0567C11.25 14.0567 12.32 13.5467 12.77 12.8267L14.19 14.2467C13.29 15.3267 11.75 16.0567 10 16.0567Z" fill="#A4A4A4"/>
</g>
</svg>
