<svg width="18" height="18" viewBox="0 0 18 18" fill="none" xmlns="http://www.w3.org/2000/svg">
<path d="M9 18C13.9235 18 18 13.9147 18 9C18 4.07647 13.9147 0 8.99118 0C4.07647 0 0 4.07647 0 9C0 13.9147 4.08529 18 9 18ZM5.88529 12.8471C5.48823 12.8471 5.16176 12.5118 5.16176 12.1059C5.16176 11.9118 5.24118 11.7353 5.37353 11.5941L7.95882 9.00882L5.37353 6.42353C5.24118 6.28235 5.16176 6.10588 5.16176 5.91176C5.16176 5.50588 5.48823 5.18824 5.88529 5.18824C6.09706 5.18824 6.26471 5.25882 6.39706 5.4L8.99118 7.98529L11.6118 5.39118C11.7618 5.24118 11.9206 5.17059 12.1147 5.17059C12.5118 5.17059 12.8382 5.49706 12.8382 5.89412C12.8382 6.09706 12.7765 6.25588 12.6265 6.41471L10.0324 9.00882L12.6176 11.5853C12.7588 11.7353 12.8294 11.9029 12.8294 12.1059C12.8294 12.5118 12.5029 12.8471 12.0971 12.8471C11.8941 12.8471 11.7176 12.7588 11.5765 12.6265L8.99118 10.0412L6.42353 12.6265C6.28235 12.7676 6.09706 12.8471 5.88529 12.8471Z" fill="#191D31"/>
</svg>
