<svg width="161" height="126" viewBox="0 0 161 126" fill="none" xmlns="http://www.w3.org/2000/svg">
<ellipse cx="80.9909" cy="63" rx="61.8405" ry="63" fill="#A4A4A4" fill-opacity="0.8"/>
<rect x="46" y="46" width="70" height="80" rx="8" fill="white"/>
<path d="M84.5133 85.6495L93.6525 76.511C93.8598 76.3037 94.0242 76.0576 94.1364 75.7868C94.2486 75.516 94.3063 75.2257 94.3063 74.9325C94.3063 74.6394 94.2486 74.3491 94.1364 74.0783C94.0242 73.8074 93.8598 73.5613 93.6525 73.354C93.4452 73.1467 93.1991 72.9823 92.9283 72.8701C92.6574 72.7579 92.3671 72.7002 92.074 72.7002C91.7808 72.7002 91.4905 72.7579 91.2197 72.8701C90.9489 72.9823 90.7028 73.1467 90.4955 73.354L81.3563 82.4925L72.2178 73.354C71.7991 72.9354 71.2313 72.7002 70.6393 72.7002C70.0472 72.7002 69.4794 72.9354 69.0608 73.354C68.6421 73.7727 68.4069 74.3405 68.4069 74.9325C68.4069 75.5246 68.6421 76.0924 69.0608 76.511L78.1993 85.6495L69.0601 94.788C68.8528 94.9953 68.6884 95.2414 68.5762 95.5123C68.464 95.7831 68.4063 96.0734 68.4062 96.3665C68.4062 96.6597 68.464 96.95 68.5762 97.2208C68.6884 97.4916 68.8528 97.7377 69.0601 97.945C69.2674 98.1523 69.5135 98.3168 69.7843 98.4289C70.0551 98.5411 70.3454 98.5989 70.6386 98.5989C70.9317 98.5989 71.222 98.5411 71.4929 98.4289C71.7637 98.3168 72.0098 98.1523 72.2171 97.945L81.3563 88.8079L90.4948 97.9464C90.9309 98.3825 91.5028 98.6002 92.0733 98.6002C92.6438 98.6002 93.2164 98.3825 93.6525 97.9464C93.8599 97.7392 94.0244 97.4931 94.1366 97.2223C94.2489 96.9514 94.3066 96.6611 94.3066 96.3679C94.3066 96.0747 94.2489 95.7844 94.1366 95.5136C94.0244 95.2427 93.8599 94.9967 93.6525 94.7894L84.5133 85.6495Z" fill="#A4A4A4" fill-opacity="0.8"/>
<ellipse cx="13.261" cy="8" rx="7.85276" ry="8" fill="#A4A4A4" fill-opacity="0.8"/>
<ellipse cx="152.648" cy="100" rx="7.85276" ry="8" fill="#A4A4A4" fill-opacity="0.8"/>
<ellipse cx="4.91718" cy="99.5" rx="4.41718" ry="4.5" fill="#A4A4A4" fill-opacity="0.8"/>
<ellipse cx="152.156" cy="12.5" rx="4.41718" ry="4.5" fill="#A4A4A4" fill-opacity="0.8"/>
</svg>
