<svg width="26" height="23" viewBox="0 0 26 23" fill="none" xmlns="http://www.w3.org/2000/svg">
<path d="M13 0.888184C11.3 0.888184 10 2.18818 10 3.88818V9.88818C10 11.5882 11.3 12.8882 13 12.8882H19L23 16.8882V12.8882C24.7 12.8882 26 11.5882 26 9.88818V3.88818C26 2.18818 24.7 0.888184 23 0.888184H13ZM17.188 3.88818H18.906L20.594 9.88818H19.094L18.687 8.38818H17.187L16.813 9.88818H15.5L17.188 3.88818ZM18 4.88818C17.9 5.28818 17.788 5.77618 17.687 6.07618L17.407 7.38818H18.594L18.312 6.07518C18.113 5.77618 18 5.28818 18 4.88818ZM3 10.8882C1.3 10.8882 0 12.1882 0 13.8882V19.8882C0 21.5882 1.3 22.8882 3 22.8882V26.8882L7 22.8882H13C14.7 22.8882 16 21.5882 16 19.8882V13.8882H13C11.1 13.8882 9.594 12.5882 9.094 10.8882H3ZM7.594 13.7942C9.294 13.7942 10.094 15.1942 10.094 16.7942C10.094 18.1942 9.613 19.0822 8.813 19.4822C9.213 19.6822 9.687 19.7882 10.187 19.8882L9.813 20.8882C9.113 20.6882 8.387 20.3762 7.687 20.0752C7.587 19.9752 7.412 19.9822 7.312 19.9822C6.112 19.8822 5 18.8882 5 16.8882C5 15.1882 5.994 13.7942 7.594 13.7942ZM7.594 14.8882C6.794 14.8882 6.406 15.7882 6.406 16.8882C6.406 18.0882 6.794 18.8882 7.594 18.8882C8.394 18.8882 8.812 17.9882 8.812 16.8882C8.812 15.7882 8.394 14.8882 7.594 14.8882Z" fill="#FF981A"/>
</svg>
