<svg width="25" height="29" viewBox="0 0 25 29" fill="none" xmlns="http://www.w3.org/2000/svg">
<path d="M9.63996 20.4219C10.2042 20.7242 10.712 21.0953 11.1633 21.5351C11.6147 21.9749 12.0053 22.4697 12.3352 23.0195C12.665 23.5692 12.9124 24.1556 13.0773 24.7787C13.2423 25.4017 13.3291 26.0523 13.3377 26.7303H11.6711C11.6711 26.0065 11.5409 25.3238 11.2805 24.6825C11.0201 24.0411 10.6642 23.4822 10.2129 23.0057C9.76149 22.5293 9.22765 22.149 8.61135 21.865C7.99505 21.5809 7.34838 21.4435 6.67132 21.4527C5.9769 21.4527 5.33022 21.5901 4.73128 21.865C4.13234 22.1399 3.60285 22.5155 3.14279 22.992C2.68274 23.4684 2.32251 24.0319 2.0621 24.6825C1.80169 25.333 1.67149 26.0156 1.67149 26.7303H0.00488281C0.00488281 26.0614 0.0916853 25.4155 0.26529 24.7924C0.438895 24.1694 0.686283 23.583 1.00745 23.0332C1.32862 22.4834 1.71489 21.9887 2.16627 21.5489C2.61764 21.1091 3.12977 20.7334 3.70267 20.4219C3.06033 19.9179 2.56122 19.2949 2.20533 18.5527C1.84944 17.8105 1.67149 17.018 1.67149 16.175C1.67149 15.4512 1.80169 14.7686 2.0621 14.1272C2.32251 13.4858 2.6784 12.9269 3.12977 12.4504C3.58115 11.974 4.11064 11.5937 4.71826 11.3097C5.32588 11.0257 5.9769 10.8882 6.67132 10.8974C7.4699 10.8974 8.22074 11.0852 8.92384 11.4609C9.62694 11.8365 10.2172 12.3634 10.6946 13.0414C11.0245 12.3542 11.4455 11.7403 11.9576 11.1997C12.4697 10.6592 13.0513 10.2148 13.7023 9.86659C13.06 9.36265 12.5609 8.7396 12.205 7.99743C11.8491 7.25526 11.6711 6.4627 11.6711 5.61974C11.6711 4.8959 11.8013 4.21329 12.0618 3.57191C12.3222 2.93053 12.6781 2.37161 13.1294 1.89516C13.5808 1.41871 14.1103 1.03846 14.7179 0.75442C15.3255 0.47038 15.9765 0.332942 16.671 0.342104C17.3567 0.342104 18.0034 0.479543 18.611 0.75442C19.2186 1.0293 19.7481 1.40496 20.1995 1.88142C20.6509 2.35787 21.0111 2.92137 21.2802 3.57191C21.5493 4.22245 21.6795 4.90506 21.6708 5.61974C21.6708 6.4627 21.4928 7.25526 21.137 7.99743C20.7811 8.7396 20.2819 9.36265 19.6396 9.86659C20.2038 10.169 20.7116 10.54 21.163 10.9798C21.6144 11.4196 22.005 11.9144 22.3348 12.4642C22.6647 13.0139 22.9121 13.6003 23.077 14.2234C23.2419 14.8464 23.3287 15.497 23.3374 16.175H21.6708C21.6708 15.4512 21.5406 14.7686 21.2802 14.1272C21.0198 13.4858 20.6639 12.9269 20.2125 12.4504C19.7611 11.974 19.2273 11.5937 18.611 11.3097C17.9947 11.0257 17.348 10.8882 16.671 10.8974C15.9765 10.8974 15.3299 11.0348 14.7309 11.3097C14.132 11.5846 13.6025 11.9602 13.1424 12.4367C12.6824 12.9131 12.3222 13.4766 12.0618 14.1272C11.8013 14.7777 11.6711 15.4603 11.6711 16.175C11.6711 17.018 11.4932 17.8105 11.1373 18.5527C10.7814 19.2949 10.2823 19.9179 9.63996 20.4219ZM13.3377 5.61974C13.3377 6.10536 13.4246 6.55891 13.5982 6.98038C13.7718 7.40186 14.0105 7.77753 14.3143 8.10738C14.6181 8.43723 14.9696 8.6892 15.3689 8.86329C15.7682 9.03738 16.2022 9.12901 16.671 9.13817C17.131 9.13817 17.5607 9.04654 17.96 8.86329C18.3593 8.68004 18.7152 8.42807 19.0277 8.10738C19.3401 7.78669 19.5788 7.41561 19.7438 6.99413C19.9087 6.57265 19.9955 6.11452 20.0042 5.61974C20.0042 5.13413 19.9174 4.68058 19.7438 4.2591C19.5702 3.83762 19.3315 3.46196 19.0277 3.13211C18.7238 2.80225 18.3723 2.55028 17.973 2.37619C17.5737 2.20211 17.1397 2.11048 16.671 2.10132C16.2109 2.10132 15.7812 2.19294 15.3819 2.37619C14.9827 2.55945 14.6268 2.81142 14.3143 3.13211C14.0018 3.4528 13.7631 3.82388 13.5982 4.24536C13.4332 4.66684 13.3464 5.12496 13.3377 5.61974ZM3.3381 16.175C3.3381 16.6606 3.4249 17.1142 3.59851 17.5357C3.77211 17.9571 4.01082 18.3328 4.31463 18.6627C4.61844 18.9925 4.96999 19.2445 5.36928 19.4186C5.76857 19.5927 6.20258 19.6843 6.67132 19.6934C7.13137 19.6934 7.56104 19.6018 7.96033 19.4186C8.35962 19.2353 8.71552 18.9833 9.028 18.6627C9.34049 18.342 9.5792 17.9709 9.74413 17.5494C9.90905 17.1279 9.99585 16.6698 10.0045 16.175C10.0045 15.6894 9.91773 15.2359 9.74413 14.8144C9.57052 14.3929 9.33181 14.0172 9.028 13.6874C8.7242 13.3575 8.37265 13.1056 7.97335 12.9315C7.57406 12.7574 7.14005 12.6658 6.67132 12.6566C6.21126 12.6566 5.78159 12.7482 5.3823 12.9315C4.98301 13.1147 4.62712 13.3667 4.31463 13.6874C4.00214 14.0081 3.76343 14.3792 3.59851 14.8006C3.43358 15.2221 3.34678 15.6802 3.3381 16.175ZM22.9207 28.4895L19.1709 25.3971L15.421 28.4895L16.9314 23.5417L13.3377 20.5731H17.8298L19.1709 16.175L20.512 20.5731H25.004L21.4104 23.5417L22.9207 28.4895Z" fill="#FF981A"/>
</svg>
