<svg width="14" height="20" viewBox="0 0 14 20" fill="none" xmlns="http://www.w3.org/2000/svg">
<mask id="path-1-inside-1_21_5208" fill="white">
<path d="M13.6318 0.858215H9.94949C9.85183 0.858215 9.75816 0.896711 9.68911 0.965234C9.62005 1.03376 9.58126 1.12669 9.58126 1.2236C9.58126 1.32051 9.62005 1.41344 9.68911 1.48197C9.75816 1.55049 9.85183 1.58898 9.94949 1.58898H12.7425L9.53983 4.76692C8.92216 4.11769 8.154 3.62802 7.30215 3.3405C6.4503 3.05298 5.54057 2.97631 4.65205 3.11717C3.76354 3.25802 2.92316 3.61213 2.20399 4.14869C1.48483 4.68526 0.908655 5.38804 0.525582 6.19592C0.142509 7.00379 -0.0358641 7.89229 0.00597535 8.78416C0.0478148 9.67602 0.3086 10.5442 0.765651 11.3133C1.2227 12.0824 1.86218 12.729 2.62847 13.197C3.39476 13.6649 4.26466 13.94 5.16252 13.9984V16.2044H2.58492C2.48726 16.2044 2.39359 16.2429 2.32454 16.3114C2.25548 16.3799 2.21669 16.4728 2.21669 16.5698C2.21669 16.6667 2.25548 16.7596 2.32454 16.8281C2.39359 16.8966 2.48726 16.9351 2.58492 16.9351H5.16252V19.4928C5.16252 19.5897 5.20131 19.6827 5.27037 19.7512C5.33942 19.8197 5.43308 19.8582 5.53074 19.8582C5.6284 19.8582 5.72206 19.8197 5.79112 19.7512C5.86018 19.6827 5.89897 19.5897 5.89897 19.4928V16.9351H8.47657C8.57423 16.9351 8.66789 16.8966 8.73695 16.8281C8.80601 16.7596 8.8448 16.6667 8.8448 16.5698C8.8448 16.4728 8.80601 16.3799 8.73695 16.3114C8.66789 16.2429 8.57423 16.2044 8.47657 16.2044H5.89897V13.9984C6.88171 13.9339 7.82917 13.6097 8.64299 13.0593C9.45682 12.5089 10.1073 11.7523 10.527 10.8683C10.9468 9.98415 11.1203 9.0047 11.0298 8.03156C10.9392 7.05842 10.5878 6.12707 10.0121 5.33418L13.2635 2.106V4.87745C13.2635 4.97435 13.3023 5.06729 13.3714 5.13581C13.4404 5.20434 13.5341 5.24283 13.6318 5.24283C13.7294 5.24283 13.8231 5.20434 13.8921 5.13581C13.9612 5.06729 14 4.97435 14 4.87745V1.2236C14 1.12669 13.9612 1.03376 13.8921 0.965234C13.8231 0.896711 13.7294 0.858215 13.6318 0.858215ZM5.53074 13.2813C4.58397 13.2813 3.65846 13.0027 2.87125 12.4808C2.08403 11.9588 1.47047 11.217 1.10816 10.349C0.745845 9.48109 0.651047 8.52602 0.835753 7.60461C1.02046 6.6832 1.47637 5.83683 2.14584 5.17253C2.81531 4.50824 3.66827 4.05584 4.59685 3.87256C5.52543 3.68928 6.48793 3.78335 7.36264 4.14286C8.23734 4.50238 8.98497 5.1112 9.51096 5.89233C10.037 6.67347 10.3177 7.59183 10.3177 8.53129C10.3163 9.79063 9.81144 10.998 8.91403 11.8884C8.01661 12.7789 6.79988 13.2798 5.53074 13.2813Z"/>
</mask>
<path d="M13.6318 0.858215H9.94949C9.85183 0.858215 9.75816 0.896711 9.68911 0.965234C9.62005 1.03376 9.58126 1.12669 9.58126 1.2236C9.58126 1.32051 9.62005 1.41344 9.68911 1.48197C9.75816 1.55049 9.85183 1.58898 9.94949 1.58898H12.7425L9.53983 4.76692C8.92216 4.11769 8.154 3.62802 7.30215 3.3405C6.4503 3.05298 5.54057 2.97631 4.65205 3.11717C3.76354 3.25802 2.92316 3.61213 2.20399 4.14869C1.48483 4.68526 0.908655 5.38804 0.525582 6.19592C0.142509 7.00379 -0.0358641 7.89229 0.00597535 8.78416C0.0478148 9.67602 0.3086 10.5442 0.765651 11.3133C1.2227 12.0824 1.86218 12.729 2.62847 13.197C3.39476 13.6649 4.26466 13.94 5.16252 13.9984V16.2044H2.58492C2.48726 16.2044 2.39359 16.2429 2.32454 16.3114C2.25548 16.3799 2.21669 16.4728 2.21669 16.5698C2.21669 16.6667 2.25548 16.7596 2.32454 16.8281C2.39359 16.8966 2.48726 16.9351 2.58492 16.9351H5.16252V19.4928C5.16252 19.5897 5.20131 19.6827 5.27037 19.7512C5.33942 19.8197 5.43308 19.8582 5.53074 19.8582C5.6284 19.8582 5.72206 19.8197 5.79112 19.7512C5.86018 19.6827 5.89897 19.5897 5.89897 19.4928V16.9351H8.47657C8.57423 16.9351 8.66789 16.8966 8.73695 16.8281C8.80601 16.7596 8.8448 16.6667 8.8448 16.5698C8.8448 16.4728 8.80601 16.3799 8.73695 16.3114C8.66789 16.2429 8.57423 16.2044 8.47657 16.2044H5.89897V13.9984C6.88171 13.9339 7.82917 13.6097 8.64299 13.0593C9.45682 12.5089 10.1073 11.7523 10.527 10.8683C10.9468 9.98415 11.1203 9.0047 11.0298 8.03156C10.9392 7.05842 10.5878 6.12707 10.0121 5.33418L13.2635 2.106V4.87745C13.2635 4.97435 13.3023 5.06729 13.3714 5.13581C13.4404 5.20434 13.5341 5.24283 13.6318 5.24283C13.7294 5.24283 13.8231 5.20434 13.8921 5.13581C13.9612 5.06729 14 4.97435 14 4.87745V1.2236C14 1.12669 13.9612 1.03376 13.8921 0.965234C13.8231 0.896711 13.7294 0.858215 13.6318 0.858215ZM5.53074 13.2813C4.58397 13.2813 3.65846 13.0027 2.87125 12.4808C2.08403 11.9588 1.47047 11.217 1.10816 10.349C0.745845 9.48109 0.651047 8.52602 0.835753 7.60461C1.02046 6.6832 1.47637 5.83683 2.14584 5.17253C2.81531 4.50824 3.66827 4.05584 4.59685 3.87256C5.52543 3.68928 6.48793 3.78335 7.36264 4.14286C8.23734 4.50238 8.98497 5.1112 9.51096 5.89233C10.037 6.67347 10.3177 7.59183 10.3177 8.53129C10.3163 9.79063 9.81144 10.998 8.91403 11.8884C8.01661 12.7789 6.79988 13.2798 5.53074 13.2813Z" fill="#FF981A"/>
<path d="M12.7425 1.58898L13.4469 2.29883L15.17 0.588985H12.7425V1.58898ZM9.53983 4.76692L8.81534 5.4562L9.51927 6.19609L10.2442 5.47676L9.53983 4.76692ZM5.16252 13.9984H6.16252V13.0612L5.22736 13.0005L5.16252 13.9984ZM5.16252 16.2044V17.2044H6.16252V16.2044H5.16252ZM5.16252 16.9351H6.16252V15.9351H5.16252V16.9351ZM5.89897 16.9351V15.9351H4.89897V16.9351H5.89897ZM5.89897 16.2044H4.89897V17.2044H5.89897V16.2044ZM5.89897 13.9984L5.83356 13.0005L4.89897 13.0618V13.9984H5.89897ZM10.0121 5.33418L9.30752 4.62453L8.69938 5.22832L9.20291 5.92175L10.0121 5.33418ZM13.2635 2.106H14.2635V-0.295993L12.559 1.39636L13.2635 2.106ZM5.53074 13.2813V14.2813L5.53189 14.2813L5.53074 13.2813ZM10.3177 8.53129L11.3177 8.53245V8.53129H10.3177ZM13.6318 -0.141785H9.94949V1.85822H13.6318V-0.141785ZM9.94949 -0.141785C9.5891 -0.141785 9.24193 0.000199258 8.98475 0.255391L10.3935 1.67508C10.2744 1.79322 10.1146 1.85822 9.94949 1.85822V-0.141785ZM8.98475 0.255391C8.72731 0.510845 8.58126 0.858966 8.58126 1.2236H10.5813C10.5813 1.39442 10.5128 1.55667 10.3935 1.67508L8.98475 0.255391ZM8.58126 1.2236C8.58126 1.58823 8.72731 1.93636 8.98475 2.19181L10.3935 0.772123C10.5128 0.890531 10.5813 1.05278 10.5813 1.2236H8.58126ZM8.98475 2.19181C9.24193 2.447 9.5891 2.58898 9.94949 2.58898V0.588985C10.1146 0.588985 10.2744 0.653977 10.3935 0.772123L8.98475 2.19181ZM9.94949 2.58898H12.7425V0.588985H9.94949V2.58898ZM12.0381 0.879142L8.83547 4.05707L10.2442 5.47676L13.4469 2.29883L12.0381 0.879142ZM10.2643 4.07764C9.53434 3.31035 8.62713 2.73229 7.62195 2.39302L6.98235 4.28799C7.68086 4.52375 8.30998 4.92502 8.81534 5.4562L10.2643 4.07764ZM7.62195 2.39302C6.6168 2.05375 5.5436 1.96335 4.49548 2.1295L4.80863 4.10483C5.53753 3.98928 6.28381 4.05221 6.98235 4.28799L7.62195 2.39302ZM4.49548 2.1295C3.44735 2.29566 2.4554 2.71346 1.606 3.3472L2.80199 4.95019C3.39092 4.5108 4.07973 4.22038 4.80863 4.10483L4.49548 2.1295ZM1.606 3.3472C0.756556 3.98096 0.0752485 4.81163 -0.377985 5.76747L1.42915 6.62436C1.74206 5.96445 2.2131 5.38956 2.80199 4.95019L1.606 3.3472ZM-0.377985 5.76747C-0.831237 6.72334 -1.04246 7.77506 -0.992926 8.83102L1.00488 8.7373C0.970736 8.00953 1.11625 7.28423 1.42915 6.62436L-0.377985 5.76747ZM-0.992926 8.83102C-0.943389 9.88697 -0.634624 10.9145 -0.0939993 11.8242L1.6253 10.8024C1.25182 10.174 1.03902 9.46507 1.00488 8.7373L-0.992926 8.83102ZM-0.0939993 11.8242C0.446601 12.7338 1.20248 13.4979 2.10729 14.0504L3.14965 12.3435C2.52187 11.9601 1.9988 11.4309 1.6253 10.8024L-0.0939993 11.8242ZM2.10729 14.0504C3.01206 14.6029 4.03861 14.9274 5.09768 14.9963L5.22736 13.0005C4.49071 12.9526 3.77746 12.7269 3.14965 12.3435L2.10729 14.0504ZM4.16252 13.9984V16.2044H6.16252V13.9984H4.16252ZM5.16252 15.2044H2.58492V17.2044H5.16252V15.2044ZM2.58492 15.2044C2.22453 15.2044 1.87736 15.3464 1.62018 15.6015L3.0289 17.0212C2.90983 17.1394 2.74998 17.2044 2.58492 17.2044V15.2044ZM1.62018 15.6015C1.36274 15.857 1.21669 16.2051 1.21669 16.5698H3.21669C3.21669 16.7406 3.14823 16.9028 3.0289 17.0212L1.62018 15.6015ZM1.21669 16.5698C1.21669 16.9344 1.36274 17.2825 1.62018 17.538L3.0289 16.1183C3.14823 16.2367 3.21669 16.3989 3.21669 16.5698H1.21669ZM1.62018 17.538C1.87736 17.7932 2.22453 17.9351 2.58492 17.9351V15.9351C2.74998 15.9351 2.90983 16.0001 3.0289 16.1183L1.62018 17.538ZM2.58492 17.9351H5.16252V15.9351H2.58492V17.9351ZM4.16252 16.9351V19.4928H6.16252V16.9351H4.16252ZM4.16252 19.4928C4.16252 19.8575 4.30856 20.2056 4.56601 20.461L5.97473 19.0414C6.09406 19.1598 6.16252 19.322 6.16252 19.4928H4.16252ZM4.56601 20.461C4.82319 20.7162 5.17036 20.8582 5.53074 20.8582V18.8582C5.69581 18.8582 5.85566 18.9232 5.97473 19.0414L4.56601 20.461ZM5.53074 20.8582C5.89113 20.8582 6.2383 20.7162 6.49548 20.461L5.08676 19.0414C5.20583 18.9232 5.36568 18.8582 5.53074 18.8582V20.8582ZM6.49548 20.461C6.75293 20.2056 6.89897 19.8575 6.89897 19.4928H4.89897C4.89897 19.322 4.96743 19.1598 5.08676 19.0414L6.49548 20.461ZM6.89897 19.4928V16.9351H4.89897V19.4928H6.89897ZM5.89897 17.9351H8.47657V15.9351H5.89897V17.9351ZM8.47657 17.9351C8.83695 17.9351 9.18413 17.7932 9.44131 17.538L8.03259 16.1183C8.15166 16.0001 8.31151 15.9351 8.47657 15.9351V17.9351ZM9.44131 17.538C9.69875 17.2825 9.8448 16.9344 9.8448 16.5698H7.8448C7.8448 16.3989 7.91326 16.2367 8.03259 16.1183L9.44131 17.538ZM9.8448 16.5698C9.8448 16.2051 9.69875 15.857 9.44131 15.6015L8.03259 17.0212C7.91326 16.9028 7.8448 16.7406 7.8448 16.5698H9.8448ZM9.44131 15.6015C9.18413 15.3464 8.83695 15.2044 8.47657 15.2044V17.2044C8.31151 17.2044 8.15166 17.1394 8.03259 17.0212L9.44131 15.6015ZM8.47657 15.2044H5.89897V17.2044H8.47657V15.2044ZM6.89897 16.2044V13.9984H4.89897V16.2044H6.89897ZM5.96438 14.9962C7.12373 14.9202 8.24205 14.5377 9.20322 13.8876L8.08276 12.2309C7.41629 12.6817 6.6397 12.9477 5.83356 13.0005L5.96438 14.9962ZM9.20322 13.8876C10.1645 13.2375 10.9338 12.3433 11.4304 11.2971L9.62367 10.4394C9.28092 11.1614 8.74918 11.7802 8.08276 12.2309L9.20322 13.8876ZM11.4304 11.2971C11.9271 10.2509 12.1327 9.09128 12.0255 7.93891L10.0341 8.12422C10.108 8.91812 9.9664 9.71745 9.62367 10.4394L11.4304 11.2971ZM12.0255 7.93891C11.9183 6.78656 11.5022 5.68434 10.8213 4.7466L9.20291 5.92175C9.67349 6.5698 9.96021 7.33029 10.0341 8.12422L12.0255 7.93891ZM10.7166 6.04382L13.9681 2.81565L12.559 1.39636L9.30752 4.62453L10.7166 6.04382ZM12.2635 2.106V4.87745H14.2635V2.106H12.2635ZM12.2635 4.87745C12.2635 5.24208 12.4096 5.5902 12.667 5.84565L14.0758 4.42597C14.1951 4.54438 14.2635 4.70663 14.2635 4.87745H12.2635ZM12.667 5.84565C12.9242 6.10085 13.2714 6.24283 13.6318 6.24283V4.24283C13.7968 4.24283 13.9567 4.30782 14.0758 4.42597L12.667 5.84565ZM13.6318 6.24283C13.9922 6.24283 14.3393 6.10085 14.5965 5.84565L13.1878 4.42597C13.3069 4.30782 13.4667 4.24283 13.6318 4.24283V6.24283ZM14.5965 5.84565C14.854 5.5902 15 5.24208 15 4.87745H13C13 4.70663 13.0685 4.54438 13.1878 4.42597L14.5965 5.84565ZM15 4.87745V1.2236H13V4.87745H15ZM15 1.2236C15 0.858966 14.8539 0.510845 14.5965 0.255391L13.1878 1.67508C13.0685 1.55667 13 1.39442 13 1.2236H15ZM14.5965 0.255391C14.3393 0.000199258 13.9922 -0.141785 13.6318 -0.141785V1.85822C13.4667 1.85822 13.3069 1.79322 13.1878 1.67508L14.5965 0.255391ZM5.53074 12.2813C4.78003 12.2813 4.04681 12.0604 3.42384 11.6473L2.31865 13.3142C3.27011 13.9451 4.38791 14.2813 5.53074 14.2813V12.2813ZM3.42384 11.6473C2.80095 11.2343 2.31666 10.6482 2.03098 9.96382L0.185335 10.7343C0.624293 11.7858 1.36711 12.6833 2.31865 13.3142L3.42384 11.6473ZM2.03098 9.96382C1.74535 9.27955 1.67073 8.52706 1.81625 7.80116L-0.14474 7.40806C-0.36864 8.52499 -0.253655 9.68263 0.185335 10.7343L2.03098 9.96382ZM1.81625 7.80116C1.96177 7.07522 2.32116 6.40733 2.8502 5.88238L1.44148 4.46269C0.631585 5.26634 0.0791497 6.29118 -0.14474 7.40806L1.81625 7.80116ZM2.8502 5.88238C3.37933 5.35734 4.05441 4.99892 4.79049 4.85363L4.40321 2.89149C3.28213 3.11276 2.2513 3.65913 1.44148 4.46269L2.8502 5.88238ZM4.79049 4.85363C5.52662 4.70834 6.28954 4.78298 6.98248 5.06779L7.74279 3.21794C6.68632 2.78372 5.52425 2.67022 4.40321 2.89149L4.79049 4.85363ZM6.98248 5.06779C7.67535 5.35256 8.2663 5.8343 8.68149 6.45088L10.3404 5.33379C9.70363 4.3881 8.79934 3.6522 7.74279 3.21794L6.98248 5.06779ZM8.68149 6.45088C9.09662 7.06737 9.31771 7.79135 9.31771 8.53129H11.3177C11.3177 7.39232 10.9773 6.27956 10.3404 5.33379L8.68149 6.45088ZM9.31771 8.53013C9.31656 9.52214 8.91898 10.4748 8.20967 11.1786L9.61839 12.5983C10.7039 11.5212 11.3159 10.0591 11.3177 8.53245L9.31771 8.53013ZM8.20967 11.1786C7.50009 11.8827 6.5364 12.2801 5.5296 12.2813L5.53189 14.2813C7.06335 14.2795 8.53313 13.6752 9.61839 12.5983L8.20967 11.1786Z" fill="#FF981A" mask="url(#path-1-inside-1_21_5208)"/>
</svg>
