<svg width="18" height="18" viewBox="0 0 18 18" fill="none" xmlns="http://www.w3.org/2000/svg">
<g id="Vector">
<path id="Vector_2" d="M8.77619 0.254883C7.04042 0.254883 5.34364 0.765316 3.9004 1.72163C2.45717 2.67795 1.3323 4.03721 0.668051 5.62751C0.00380258 7.21781 -0.169995 8.96773 0.168636 10.656C0.507267 12.3442 1.34312 13.895 2.57049 15.1122C3.79786 16.3293 5.36163 17.1582 7.06404 17.494C8.76645 17.8298 10.5311 17.6575 12.1347 16.9988C13.7383 16.34 15.109 15.2245 16.0733 13.7933C17.0377 12.3621 17.5524 10.6794 17.5524 8.95807C17.5499 6.65059 16.6245 4.43832 14.9792 2.80668C13.3339 1.17504 11.103 0.25732 8.77619 0.254883ZM8.77619 16.3223C7.30746 16.3223 5.87172 15.8904 4.65052 15.0812C3.42932 14.272 2.47751 13.1219 1.91546 11.7762C1.3534 10.4306 1.20634 8.9499 1.49287 7.52138C1.77941 6.09286 2.48667 4.78068 3.52521 3.75077C4.56376 2.72086 5.88694 2.01949 7.32745 1.73534C8.76795 1.45119 10.2611 1.59702 11.618 2.1544C12.9749 2.71179 14.1347 3.65568 14.9507 4.86672C15.7667 6.07776 16.2022 7.50156 16.2022 8.95807C16.2 10.9105 15.4169 12.7823 14.0247 14.1629C12.6325 15.5435 10.745 16.3201 8.77619 16.3223ZM10.1264 12.9749C10.1264 13.1525 10.0552 13.3228 9.92864 13.4483C9.80204 13.5739 9.63033 13.6444 9.45128 13.6444C9.09319 13.6444 8.74977 13.5033 8.49656 13.2522C8.24335 13.0011 8.1011 12.6606 8.1011 12.3055V8.95807C7.92205 8.95807 7.75034 8.88754 7.62374 8.76199C7.49713 8.63644 7.42601 8.46615 7.42601 8.2886C7.42601 8.11104 7.49713 7.94076 7.62374 7.81521C7.75034 7.68965 7.92205 7.61912 8.1011 7.61912C8.45919 7.61912 8.80261 7.76019 9.05582 8.01129C9.30903 8.26239 9.45128 8.60296 9.45128 8.95807V12.3055C9.63033 12.3055 9.80204 12.376 9.92864 12.5015C10.0552 12.6271 10.1264 12.7974 10.1264 12.9749ZM7.42601 5.27595C7.42601 5.07734 7.4854 4.88318 7.59667 4.71804C7.70794 4.5529 7.86609 4.42419 8.05112 4.34818C8.23616 4.27217 8.43977 4.25229 8.6362 4.29104C8.83263 4.32978 9.01307 4.42543 9.15469 4.56587C9.2963 4.70631 9.39275 4.88524 9.43182 5.08004C9.4709 5.27484 9.45084 5.47675 9.3742 5.66025C9.29755 5.84375 9.16776 6.00058 9.00123 6.11093C8.83471 6.22127 8.63892 6.28017 8.43864 6.28017C8.17008 6.28017 7.91251 6.17437 7.7226 5.98604C7.53269 5.79771 7.42601 5.54229 7.42601 5.27595Z" fill="white"/>
</g>
</svg>
