<svg width="19" height="18" viewBox="0 0 19 18" fill="none" xmlns="http://www.w3.org/2000/svg">
<path d="M4.64159 15.4484H14.3588V6.98821L9.50018 2.29907L4.64159 6.98821V15.4484ZM15.1685 17.1676H3.83183C3.61707 17.1676 3.4111 17.0771 3.25924 16.9159C3.10738 16.7547 3.02207 16.536 3.02207 16.308V8.5716H0.592773L8.95521 0.501636C9.10429 0.357634 9.29861 0.277832 9.50018 0.277832C9.70175 0.277832 9.89607 0.357634 10.0452 0.501636L18.4076 8.5716H15.9783V16.308C15.9783 16.536 15.893 16.7547 15.7411 16.9159C15.5893 17.0771 15.3833 17.1676 15.1685 17.1676ZM5.85624 10.2908H7.47577C7.47577 10.8608 7.68905 11.4074 8.06871 11.8104C8.44836 12.2134 8.96327 12.4398 9.50018 12.4398C10.0371 12.4398 10.552 12.2134 10.9317 11.8104C11.3113 11.4074 11.5246 10.8608 11.5246 10.2908H13.1441C13.1441 11.3167 12.7602 12.3006 12.0768 13.026C11.3935 13.7515 10.4666 14.159 9.50018 14.159C8.53375 14.159 7.6069 13.7515 6.92353 13.026C6.24016 12.3006 5.85624 11.3167 5.85624 10.2908Z" fill="white"/>
</svg>
