<svg width="20" height="21" viewBox="0 0 20 21" fill="none" xmlns="http://www.w3.org/2000/svg">
<path d="M9.75 0.717163C7.82164 0.717163 5.93657 1.28899 4.33319 2.36033C2.72982 3.43168 1.48013 4.95442 0.742179 6.736C0.00422452 8.51758 -0.188858 10.478 0.187348 12.3693C0.563554 14.2606 1.49215 15.9979 2.85571 17.3615C4.21928 18.725 5.95656 19.6536 7.84787 20.0298C9.73919 20.406 11.6996 20.2129 13.4812 19.475C15.2627 18.737 16.7855 17.4874 17.8568 15.884C18.9282 14.2806 19.5 12.3955 19.5 10.4672C19.4973 7.88214 18.4692 5.40378 16.6413 3.57589C14.8134 1.748 12.335 0.719893 9.75 0.717163ZM9.75 18.7172C8.11831 18.7172 6.52326 18.2333 5.16655 17.3268C3.80984 16.4203 2.75242 15.1318 2.128 13.6243C1.50358 12.1168 1.3402 10.458 1.65853 8.85767C1.97685 7.25733 2.76259 5.78732 3.91637 4.63353C5.07016 3.47975 6.54017 2.69401 8.14051 2.37568C9.74085 2.05736 11.3997 2.22073 12.9071 2.84516C14.4146 3.46958 15.7031 4.527 16.6096 5.88371C17.5161 7.24041 18 8.83547 18 10.4672C17.9975 12.6544 17.1275 14.7514 15.5809 16.2981C14.0343 17.8447 11.9373 18.7147 9.75 18.7172ZM11.25 14.9672C11.25 15.1661 11.171 15.3568 11.0303 15.4975C10.8897 15.6381 10.6989 15.7172 10.5 15.7172C10.1022 15.7172 9.72065 15.5591 9.43934 15.2778C9.15804 14.9965 9 14.615 9 14.2172V10.4672C8.80109 10.4672 8.61033 10.3881 8.46967 10.2475C8.32902 10.1068 8.25 9.91608 8.25 9.71716C8.25 9.51825 8.32902 9.32749 8.46967 9.18683C8.61033 9.04618 8.80109 8.96716 9 8.96716C9.39783 8.96716 9.77936 9.1252 10.0607 9.4065C10.342 9.68781 10.5 10.0693 10.5 10.4672V14.2172C10.6989 14.2172 10.8897 14.2962 11.0303 14.4368C11.171 14.5775 11.25 14.7683 11.25 14.9672ZM8.25 6.34216C8.25 6.11966 8.31598 5.90215 8.4396 5.71715C8.56322 5.53214 8.73892 5.38795 8.94449 5.3028C9.15005 5.21765 9.37625 5.19537 9.59448 5.23878C9.81271 5.28219 10.0132 5.38933 10.1705 5.54667C10.3278 5.704 10.435 5.90446 10.4784 6.12269C10.5218 6.34091 10.4995 6.56712 10.4144 6.77268C10.3292 6.97825 10.185 7.15395 10 7.27757C9.81501 7.40118 9.59751 7.46716 9.375 7.46716C9.07664 7.46716 8.79049 7.34864 8.57951 7.13766C8.36853 6.92668 8.25 6.64053 8.25 6.34216Z" fill="#FF981A"/>
</svg>
