<svg width="18" height="19" viewBox="0 0 18 19" fill="none" xmlns="http://www.w3.org/2000/svg">
<path d="M9 18.0224C7.76133 18.0224 6.59467 17.7857 5.5 17.3124C4.40533 16.8391 3.452 16.1957 2.64 15.3824C1.82667 14.5711 1.18333 13.6177 0.71 12.5224C0.236667 11.4277 0 10.2611 0 9.0224C0 7.7804 0.236667 6.61273 0.71 5.5194C1.184 4.42607 1.82733 3.4734 2.64 2.6614C3.45133 1.8494 4.40467 1.20673 5.5 0.7334C6.59467 0.2594 7.76133 0.0223999 9 0.0223999C10.242 0.0223999 11.4097 0.259067 12.503 0.7324C13.5963 1.2064 14.549 1.84973 15.361 2.6624C16.173 3.4744 16.8157 4.42673 17.289 5.5194C17.763 6.61273 18 7.7804 18 9.0224C18 10.2611 17.7633 11.4277 17.29 12.5224C16.8167 13.6171 16.1733 14.5704 15.36 15.3824C14.548 16.1951 13.5957 16.8384 12.503 17.3124C11.4097 17.7857 10.242 18.0224 9 18.0224ZM9 17.0304C9.58667 16.2764 10.0707 15.5361 10.452 14.8094C10.8327 14.0827 11.1423 13.2694 11.381 12.3694H6.619C6.883 13.3201 7.199 14.1587 7.567 14.8854C7.935 15.6121 8.41267 16.3271 9 17.0304ZM7.727 16.8804C7.26033 16.3304 6.83433 15.6504 6.449 14.8404C6.06367 14.0311 5.777 13.2071 5.589 12.3684H1.753C2.32633 13.6124 3.13867 14.6324 4.19 15.4284C5.242 16.2244 6.42067 16.7084 7.726 16.8804H7.727ZM10.273 16.8804C11.5783 16.7084 12.757 16.2244 13.809 15.4284C14.861 14.6324 15.6733 13.6124 16.246 12.3684H12.412C12.1587 13.2197 11.8397 14.0504 11.455 14.8604C11.0697 15.6697 10.6757 16.3431 10.273 16.8804ZM1.346 11.3684H5.381C5.305 10.9584 5.25167 10.5587 5.221 10.1694C5.189 9.78007 5.173 9.39773 5.173 9.0224C5.173 8.64707 5.18867 8.26473 5.22 7.8754C5.25133 7.48607 5.30467 7.08607 5.38 6.6754H1.347C1.23833 7.02207 1.15333 7.39973 1.092 7.8084C1.03067 8.21707 1 8.62173 1 9.0224C1 9.42373 1.03033 9.8284 1.091 10.2364C1.15233 10.6451 1.23733 11.0224 1.346 11.3684ZM6.381 11.3684H11.619C11.695 10.9584 11.7483 10.5651 11.779 10.1884C11.811 9.8124 11.827 9.42373 11.827 9.0224C11.827 8.62107 11.8113 8.2324 11.78 7.8564C11.7487 7.47973 11.6953 7.0864 11.62 6.6764H6.38C6.30467 7.0864 6.25133 7.47973 6.22 7.8564C6.18867 8.2324 6.173 8.62107 6.173 9.0224C6.173 9.42373 6.18867 9.8124 6.22 10.1884C6.25133 10.5651 6.30567 10.9584 6.381 11.3684ZM12.619 11.3684H16.654C16.7627 11.0217 16.8477 10.6444 16.909 10.2364C16.9703 9.8284 17.0007 9.42373 17 9.0224C17 8.62107 16.9697 8.2164 16.909 7.8084C16.8477 7.39973 16.7627 7.0224 16.654 6.6764H12.619C12.695 7.0864 12.7483 7.48607 12.779 7.8754C12.811 8.26473 12.827 8.64707 12.827 9.0224C12.827 9.39773 12.8113 9.78007 12.78 10.1694C12.7487 10.5587 12.6953 10.9587 12.62 11.3694L12.619 11.3684ZM12.412 5.6764H16.246C15.66 4.40707 14.8573 3.38707 13.838 2.6164C12.818 1.84573 11.6297 1.35573 10.273 1.1464C10.7397 1.75973 11.1593 2.46173 11.532 3.2524C11.904 4.0424 12.1973 4.8504 12.412 5.6764ZM6.619 5.6764H11.381C11.117 4.73773 10.7913 3.88907 10.404 3.1304C10.0173 2.37107 9.54933 1.66573 9 1.0144C8.45133 1.66573 7.98333 2.37107 7.596 3.1304C7.20933 3.88907 6.88367 4.73773 6.619 5.6764ZM1.754 5.6764H5.588C5.80267 4.8504 6.096 4.0424 6.468 3.2524C6.84067 2.46173 7.26033 1.7594 7.727 1.1454C6.35767 1.3554 5.16633 1.84873 4.153 2.6254C3.13967 3.40273 2.33967 4.4194 1.753 5.6754L1.754 5.6764Z" fill="#FF981A"/>
</svg>
