<svg width="21" height="26" viewBox="0 0 21 26" fill="none" xmlns="http://www.w3.org/2000/svg">
<path d="M10.0049 13.6606C9.31265 13.6606 8.63596 13.4554 8.06039 13.0708C7.48482 12.6862 7.03621 12.1396 6.77131 11.5C6.5064 10.8605 6.43709 10.1568 6.57214 9.47783C6.70718 8.7989 7.04053 8.17526 7.53001 7.68577C8.0195 7.19629 8.64314 6.86295 9.32207 6.7279C10.001 6.59285 10.7047 6.66216 11.3443 6.92707C11.9838 7.19197 12.5304 7.64058 12.915 8.21615C13.2996 8.79172 13.5049 9.46841 13.5049 10.1606C13.5038 11.0886 13.1347 11.9782 12.4785 12.6343C11.8224 13.2904 10.9328 13.6595 10.0049 13.6606ZM10.0049 8.06065C9.58954 8.06065 9.18353 8.18381 8.83819 8.41456C8.49284 8.64531 8.22368 8.97329 8.06474 9.35701C7.90579 9.74074 7.86421 10.163 7.94524 10.5703C8.02626 10.9777 8.22627 11.3519 8.51996 11.6456C8.81365 11.9393 9.18784 12.1393 9.5952 12.2203C10.0026 12.3013 10.4248 12.2597 10.8085 12.1008C11.1922 11.9419 11.5202 11.6727 11.751 11.3273C11.9817 10.982 12.1049 10.576 12.1049 10.1606C12.1043 9.60386 11.8829 9.07004 11.4892 8.67634C11.0955 8.28263 10.5617 8.0612 10.0049 8.06065Z" fill="#FF981A"/>
<path d="M10.0049 25.6606L2.71926 16.7776C2.61802 16.6442 2.51784 16.51 2.41871 16.3749C1.17419 14.6801 0.501876 12.61 0.504893 10.4821C0.504893 7.87727 1.50578 5.37915 3.28738 3.53727C5.06897 1.6954 7.48534 0.660645 10.0049 0.660645C12.5245 0.660645 14.9408 1.6954 16.7224 3.53727C18.504 5.37915 19.5049 7.87727 19.5049 10.4821C19.5079 12.609 18.8359 14.6782 17.5919 16.3723L17.5911 16.3749C17.5911 16.3749 17.332 16.7267 17.2931 16.774L10.0049 25.6606ZM3.79794 15.299C3.79794 15.299 3.99917 15.574 4.04494 15.633L10.0049 22.8999L15.9726 15.6231C16.0106 15.574 16.2127 15.2973 16.2136 15.2964C17.2302 13.9116 17.7796 12.2205 17.7776 10.4821C17.7776 8.35087 16.9587 6.30695 15.501 4.79996C14.0434 3.29298 12.0663 2.44636 10.0049 2.44636C7.94344 2.44636 5.96641 3.29298 4.50875 4.79996C3.05108 6.30695 2.23217 8.35087 2.23217 10.4821C2.23035 12.2216 2.78038 13.9137 3.79794 15.299Z" fill="#FF981A"/>
</svg>
