<svg width="24" height="24" viewBox="0 0 24 24" fill="none" xmlns="http://www.w3.org/2000/svg">
<path d="M1.5 1.75028H13.5V9.80028H15V1.75028C15 1.31457 14.842 0.896699 14.5607 0.588604C14.2794 0.280508 13.8978 0.107422 13.5 0.107422H1.5C1.10218 0.107422 0.720644 0.280508 0.43934 0.588604C0.158035 0.896699 0 1.31457 0 1.75028V21.4646C0 21.9003 0.158035 22.3181 0.43934 22.6262C0.720644 22.9343 1.10218 23.1074 1.5 23.1074H13.5C13.8978 23.1074 14.2794 22.9343 14.5607 22.6262C14.842 22.3181 15 21.9003 15 21.4646H1.5V1.75028Z" fill="#FF981A"/>
<path d="M19.6674 13.2887C19.5254 13.1921 19.3429 13.1417 19.1562 13.1474C18.9695 13.1531 18.7924 13.2146 18.6602 13.3196C18.5281 13.4246 18.4507 13.5654 18.4435 13.7137C18.4363 13.8621 18.4998 14.0071 18.6213 14.1199L21.1288 16.0711H10.3718C10.175 16.0711 9.9863 16.1332 9.84717 16.2438C9.70804 16.3543 9.62988 16.5043 9.62988 16.6606C9.62988 16.817 9.70804 16.9669 9.84717 17.0774C9.9863 17.188 10.175 17.2501 10.3718 17.2501H21.1288L18.6213 19.2897C18.5437 19.3426 18.4806 19.4076 18.4361 19.4807C18.3915 19.5539 18.3665 19.6335 18.3626 19.7147C18.3586 19.7959 18.3758 19.8769 18.4131 19.9525C18.4504 20.0282 18.507 20.0969 18.5793 20.1543C18.6516 20.2118 18.7381 20.2567 18.8333 20.2864C18.9285 20.316 19.0304 20.3297 19.1325 20.3265C19.2347 20.3234 19.3349 20.3035 19.427 20.2681C19.519 20.2327 19.6009 20.1826 19.6674 20.1209L23.9999 16.7019L19.6674 13.2887Z" fill="#FF981A"/>
</svg>
