<svg width="32" height="21" viewBox="0 0 32 21" fill="none" xmlns="http://www.w3.org/2000/svg">
<g clip-path="url(#clip0_251_5710)">
<path d="M9.98775 6.55075L0.98291 3.37558L2.8538 2.78232L11.7516 5.91946L9.98775 6.55075Z" fill="#FF981A"/>
<path d="M14.2262 5.08765L5.22168 1.91248L7.09223 1.31921L15.9903 4.45636L14.2262 5.08765Z" fill="#FF981A"/>
<path d="M17.9122 3.79178L8.90771 0.616611L10.7783 0.0233459L19.6764 3.16049L17.9122 3.79178Z" fill="#FF981A"/>
<path d="M9.72407 9.77671L1.36818 6.83059L0.719238 5.35352L9.71313 8.52037L9.72407 9.77671Z" fill="#FF981A"/>
<path d="M9.72404 12.3158L3.3899 10.0711L2.81006 8.61749L9.71309 11.0592L9.72404 12.3158Z" fill="#FF981A"/>
<path d="M9.72398 14.8802L6.22679 13.6334L5.4458 12.1085L9.71303 13.6236L9.72398 14.8802Z" fill="#FF981A"/>
<path d="M11.0908 17.3416L21.1295 21.0423L21.1298 11.1201L11.0908 7.41528V17.3416ZM12.6514 9.40927L19.7033 12.0093V18.9752L12.6514 16.3755V9.40927Z" fill="#FF981A"/>
<path d="M27.3616 8.92383V8.79698L26.9661 8.94374L27.3616 8.7949L27.1899 8.7343L31.2645 7.23376L21.2638 3.79181L11.2734 7.22989L21.2638 10.9169L25.452 9.3745L25.6347 9.43897V9.55988L21.3976 11.1204L21.3972 21.0425L31.4362 17.3415V7.423L27.3616 8.92383ZM27.6182 7.33952L25.4746 8.12945L19.1227 5.88948L21.2638 5.15272L27.6182 7.33952ZM21.2638 9.68227L14.9092 7.33981L17.3243 6.50859L23.7378 8.77024L21.2638 9.68227ZM29.8147 16.3374L22.8853 18.8926V12.0473L25.6347 11.0337V12.6614L26.0606 11.8949L26.35 12.0375L26.6169 11.4909L26.8645 11.7918L27.0742 11.6097L27.3616 12.0203V10.3967L29.8147 9.49244V16.3374Z" fill="#FF981A"/>
<path d="M28.9275 12.7695C28.9275 13.1545 28.5676 13.5975 28.1235 13.7591C27.6802 13.9198 27.3203 13.7383 27.3203 13.353C27.3203 12.9671 27.6802 12.5241 28.1235 12.3634C28.5676 12.2021 28.9275 12.3839 28.9275 12.7695Z" fill="#FF981A"/>
<path d="M26.524 13.6423C26.524 14.0273 26.1641 14.47 25.7197 14.6313C25.2764 14.7926 24.9165 14.6102 24.9165 14.2252C24.9165 13.8399 25.2764 13.3966 25.7197 13.2356C26.1641 13.0749 26.524 13.2567 26.524 13.6423Z" fill="#FF981A"/>
<path d="M26.8448 16.5349C25.6171 16.9805 24.5675 16.5994 24.3496 15.6288L24.9442 15.3202C25.1097 16.0596 25.9095 16.3501 26.8448 16.0106C27.7811 15.6707 28.5806 14.8003 28.7465 13.9403L29.341 13.8173C29.1231 14.9462 28.0736 16.0893 26.8448 16.5349Z" fill="#FF981A"/>
</g>
<defs>
<clipPath id="clip0_251_5710">
<rect width="30.7169" height="21.0192" fill="white" transform="translate(0.719238 0.0233459)"/>
</clipPath>
</defs>
</svg>
