<svg width="22" height="23" viewBox="0 0 22 23" fill="none" xmlns="http://www.w3.org/2000/svg">
<path d="M18.3333 6.68717C19.7256 6.68717 20.8542 5.55856 20.8542 4.16634C20.8542 2.77412 19.7256 1.64551 18.3333 1.64551C16.9411 1.64551 15.8125 2.77412 15.8125 4.16634C15.8125 5.55856 16.9411 6.68717 18.3333 6.68717Z" fill="white"/>
<path d="M17.4535 7.97051C16.0143 7.65884 14.841 6.48551 14.5293 5.04634C14.4102 4.48717 14.401 3.94634 14.5018 3.43301C14.621 2.86467 14.1993 2.33301 13.6127 2.33301H6.41683C3.88683 2.33301 1.8335 4.38634 1.8335 6.91634V13.2872C1.8335 15.8172 3.88683 17.8705 6.41683 17.8705H7.79183C8.0485 17.8705 8.3785 18.0355 8.52516 18.2372L9.90016 20.0613C10.5052 20.868 11.4952 20.868 12.1002 20.0613L13.4752 18.2372C13.6493 18.008 13.9152 17.8705 14.2085 17.8705H15.5927C18.1227 17.8705 20.1668 15.8263 20.1668 13.2963V8.88717C20.1668 8.30967 19.6352 7.88801 19.0668 7.99801C18.5535 8.08967 18.0127 8.08967 17.4535 7.97051ZM7.3335 11.4997C6.82016 11.4997 6.41683 11.0872 6.41683 10.583C6.41683 10.0788 6.82016 9.66634 7.3335 9.66634C7.83766 9.66634 8.25016 10.0788 8.25016 10.583C8.25016 11.0872 7.84683 11.4997 7.3335 11.4997ZM11.0002 11.4997C10.4868 11.4997 10.0835 11.0872 10.0835 10.583C10.0835 10.0788 10.4868 9.66634 11.0002 9.66634C11.5043 9.66634 11.9168 10.0788 11.9168 10.583C11.9168 11.0872 11.5135 11.4997 11.0002 11.4997ZM14.6668 11.4997C14.1535 11.4997 13.7502 11.0872 13.7502 10.583C13.7502 10.0788 14.1535 9.66634 14.6668 9.66634C15.171 9.66634 15.5835 10.0788 15.5835 10.583C15.5835 11.0872 15.1802 11.4997 14.6668 11.4997Z" fill="white"/>
</svg>
