<svg width="34" height="37" viewBox="0 0 34 37" fill="none" xmlns="http://www.w3.org/2000/svg">
<path d="M12.4493 29.1312H11.7549C6.19956 29.1312 3.42188 27.6497 3.42188 20.2424V12.8351C3.42188 6.90922 6.19956 3.94629 11.7549 3.94629H22.8656C28.421 3.94629 31.1987 6.90922 31.1987 12.8351V20.2424C31.1987 26.1683 28.421 29.1312 22.8656 29.1312H22.1712C21.7407 29.1312 21.324 29.3534 21.0601 29.7238L18.9769 32.6867C18.0603 33.9904 16.5603 33.9904 15.6437 32.6867L13.5604 29.7238C13.3382 29.3979 12.8243 29.1312 12.4493 29.1312Z" stroke="#FF981A" stroke-width="1.5" stroke-miterlimit="10" stroke-linecap="round" stroke-linejoin="round"/>
<path d="M22.8606 17.2794H22.8731" stroke="#FF981A" stroke-width="2" stroke-linecap="round" stroke-linejoin="round"/>
<path d="M17.304 17.2794H17.3165" stroke="#FF981A" stroke-width="2" stroke-linecap="round" stroke-linejoin="round"/>
<path d="M11.7473 17.2794H11.7598" stroke="#FF981A" stroke-width="2" stroke-linecap="round" stroke-linejoin="round"/>
</svg>
