<svg width="22" height="23" viewBox="0 0 22 23" fill="none" xmlns="http://www.w3.org/2000/svg">
<path d="M18.3333 6.68717C19.7256 6.68717 20.8542 5.55856 20.8542 4.16634C20.8542 2.77412 19.7256 1.64551 18.3333 1.64551C16.9411 1.64551 15.8125 2.77412 15.8125 4.16634C15.8125 5.55856 16.9411 6.68717 18.3333 6.68717Z" fill="white"/>
<path d="M17.453 7.97051C16.0138 7.65884 14.8405 6.48551 14.5288 5.04634C14.4097 4.48717 14.4005 3.94634 14.5013 3.43301C14.6205 2.86467 14.1988 2.33301 13.6122 2.33301H6.41634C3.88634 2.33301 1.83301 4.38634 1.83301 6.91634V13.2872C1.83301 15.8172 3.88634 17.8705 6.41634 17.8705H7.79134C8.04801 17.8705 8.37801 18.0355 8.52467 18.2372L9.89967 20.0613C10.5047 20.868 11.4947 20.868 12.0997 20.0613L13.4747 18.2372C13.6488 18.008 13.9147 17.8705 14.208 17.8705H15.5922C18.1222 17.8705 20.1663 15.8263 20.1663 13.2963V8.88717C20.1663 8.30967 19.6347 7.88801 19.0663 7.99801C18.553 8.08967 18.0122 8.08967 17.453 7.97051ZM7.33301 11.4997C6.81967 11.4997 6.41634 11.0872 6.41634 10.583C6.41634 10.0788 6.81967 9.66634 7.33301 9.66634C7.83717 9.66634 8.24967 10.0788 8.24967 10.583C8.24967 11.0872 7.84634 11.4997 7.33301 11.4997ZM10.9997 11.4997C10.4863 11.4997 10.083 11.0872 10.083 10.583C10.083 10.0788 10.4863 9.66634 10.9997 9.66634C11.5038 9.66634 11.9163 10.0788 11.9163 10.583C11.9163 11.0872 11.513 11.4997 10.9997 11.4997ZM14.6663 11.4997C14.153 11.4997 13.7497 11.0872 13.7497 10.583C13.7497 10.0788 14.153 9.66634 14.6663 9.66634C15.1705 9.66634 15.583 10.0788 15.583 10.583C15.583 11.0872 15.1797 11.4997 14.6663 11.4997Z" fill="white"/>
</svg>
