<svg width="28" height="21" viewBox="0 0 28 21" fill="none" xmlns="http://www.w3.org/2000/svg">
<path d="M3 0.634338C1.355 0.634338 0 1.98934 0 3.63434V17.6343C0 19.2793 1.355 20.6343 3 20.6343H25C26.645 20.6343 28 19.2793 28 17.6343V3.63434C28 1.98934 26.645 0.634338 25 0.634338H3ZM3 2.63434H25C25.566 2.63434 26 3.06834 26 3.63434V17.6343C26 18.2003 25.566 18.6343 25 18.6343H3C2.434 18.6343 2 18.2003 2 17.6343V3.63434C2 3.06834 2.434 2.63434 3 2.63434ZM9 4.63434C6.8 4.63434 5 6.43434 5 8.63434C5 9.74734 5.477 10.7513 6.219 11.4783C5.53832 11.9377 4.98029 12.5565 4.59353 13.2808C4.20677 14.0052 4.00301 14.8132 4 15.6343H6C6 13.9663 7.332 12.6343 9 12.6343C10.668 12.6343 12 13.9663 12 15.6343H14C13.997 14.8132 13.7932 14.0052 13.4065 13.2808C13.0197 12.5565 12.4617 11.9377 11.781 11.4783C12.523 10.7513 13 9.74834 13 8.63434C13 6.43434 11.2 4.63434 9 4.63434ZM16 5.63434V7.63434H24V5.63434H16ZM9 6.63434C10.117 6.63434 11 7.51734 11 8.63434C11 9.75134 10.117 10.6343 9 10.6343C7.883 10.6343 7 9.75134 7 8.63434C7 7.51734 7.883 6.63434 9 6.63434ZM16 9.63434V11.6343H24V9.63434H16ZM16 13.6343V15.6343H21V13.6343H16Z" fill="#FF981A"/>
</svg>
