<svg width="22" height="22" viewBox="0 0 22 22" fill="none" xmlns="http://www.w3.org/2000/svg">
<path fill-rule="evenodd" clip-rule="evenodd" d="M10.75 0.5C10.145 0.5 9.588 0.65 8.979 0.902C8.39 1.146 7.706 1.505 6.855 1.952L4.787 3.037C3.742 3.585 2.907 4.024 2.26 4.455C1.592 4.902 1.076 5.372 0.701 6.009C0.327 6.644 0.159 7.332 0.0779999 8.151C-5.21541e-08 8.946 0 9.923 0 11.153V11.347C0 12.577 -5.21541e-08 13.554 0.0779999 14.349C0.159 15.169 0.328 15.856 0.701 16.491C1.076 17.128 1.591 17.598 2.261 18.045C2.906 18.476 3.742 18.915 4.787 19.463L6.855 20.548C7.706 20.995 8.39 21.354 8.979 21.598C9.589 21.85 10.145 22 10.75 22C11.355 22 11.912 21.85 12.521 21.598C13.11 21.354 13.794 20.995 14.645 20.548L16.713 19.464C17.758 18.915 18.593 18.476 19.239 18.045C19.909 17.598 20.424 17.128 20.799 16.491C21.173 15.856 21.341 15.168 21.422 14.349C21.5 13.554 21.5 12.577 21.5 11.348V11.152C21.5 9.923 21.5 8.946 21.422 8.151C21.341 7.331 21.172 6.644 20.799 6.009C20.424 5.372 19.909 4.902 19.239 4.455C18.594 4.024 17.758 3.585 16.713 3.037L14.645 1.952C13.794 1.505 13.11 1.146 12.521 0.902C11.911 0.65 11.355 0.5 10.75 0.5ZM7.52 3.296C8.41 2.829 9.034 2.503 9.552 2.289C10.056 2.08 10.411 2 10.75 2C11.09 2 11.444 2.08 11.948 2.289C12.466 2.503 13.089 2.829 13.979 3.296L15.979 4.346C17.069 4.917 17.834 5.32 18.407 5.702C18.689 5.891 18.91 6.066 19.09 6.242L15.759 7.907L7.259 3.433L7.52 3.296ZM5.695 4.254L5.521 4.346C4.431 4.917 3.666 5.32 3.094 5.702C2.84993 5.86022 2.62126 6.04102 2.411 6.242L10.75 10.412L14.107 8.732L5.901 4.414C5.8235 4.37313 5.75378 4.31897 5.695 4.254ZM1.688 7.557C1.638 7.771 1.599 8.014 1.571 8.297C1.501 9.011 1.5 9.914 1.5 11.191V11.308C1.5 12.586 1.5 13.489 1.571 14.202C1.64 14.899 1.771 15.35 1.994 15.73C2.216 16.107 2.537 16.426 3.094 16.798C3.666 17.18 4.431 17.583 5.521 18.154L7.521 19.204C8.411 19.671 9.034 19.997 9.552 20.211C9.716 20.279 9.863 20.333 10 20.376V11.713L1.688 7.557ZM11.5 20.375C11.637 20.333 11.784 20.279 11.948 20.211C12.466 19.997 13.089 19.671 13.979 19.204L15.979 18.154C17.069 17.582 17.834 17.18 18.407 16.798C18.963 16.426 19.284 16.107 19.507 15.73C19.73 15.35 19.86 14.9 19.929 14.202C19.999 13.489 20 12.586 20 11.309V11.192C20 9.914 20 9.011 19.929 8.298C19.9065 8.04901 19.8674 7.80179 19.812 7.558L16.5 9.213V12.25C16.5 12.4489 16.421 12.6397 16.2803 12.7803C16.1397 12.921 15.9489 13 15.75 13C15.5511 13 15.3603 12.921 15.2197 12.7803C15.079 12.6397 15 12.4489 15 12.25V9.964L11.5 11.714V20.375Z" fill="white"/>
</svg>
