<svg width="19" height="20" viewBox="0 0 19 20" fill="none" xmlns="http://www.w3.org/2000/svg">
<path d="M4.15064 5.58588L2.23339 3.6935L3.50256 2.43488L5.41081 4.33619L4.15064 5.58588ZM10.4515 0.319336V2.99724H8.65125V0.319336H10.4515ZM16.8694 3.6935L14.9521 5.58588L13.6919 4.33619L15.6002 2.43488L16.8694 3.6935ZM2.80046 8.79937V10.5846H0.100098V8.79937H2.80046ZM16.3023 8.79937H19.0026V10.5846H16.3023V8.79937ZM4.15064 17.2794H14.9521C15.4296 17.2794 15.8875 17.4675 16.2251 17.8023C16.5627 18.1371 16.7523 18.5912 16.7523 19.0647H2.3504C2.3504 18.5912 2.54007 18.1371 2.87768 17.8023C3.21529 17.4675 3.67319 17.2794 4.15064 17.2794ZM9.55137 3.88988C10.9837 3.88988 12.3574 4.45415 13.3703 5.45856C14.3831 6.46297 14.9521 7.82524 14.9521 9.24569V16.3868H4.15064V9.24569C4.15064 7.82524 4.71965 6.46297 5.73248 5.45856C6.74531 4.45415 8.11901 3.88988 9.55137 3.88988ZM9.55137 5.67515C8.59647 5.67515 7.68067 6.05133 7.00545 6.72093C6.33022 7.39054 5.95089 8.29872 5.95089 9.24569V14.6015H13.1519V9.24569C13.1519 8.29872 12.7725 7.39054 12.0973 6.72093C11.4221 6.05133 10.5063 5.67515 9.55137 5.67515Z" fill="white"/>
</svg>
