<svg width="18" height="23" viewBox="0 0 18 23" fill="none" xmlns="http://www.w3.org/2000/svg">
<path d="M8.55131 11.6313C7.92821 11.6313 7.31911 11.448 6.80102 11.1047C6.28294 10.7614 5.87914 10.2735 5.64069 9.70262C5.40224 9.13175 5.33985 8.50357 5.46141 7.89753C5.58297 7.29149 5.88302 6.73481 6.32362 6.29788C6.76421 5.86095 7.32557 5.56339 7.93669 5.44284C8.54781 5.3223 9.18126 5.38417 9.75692 5.62063C10.3326 5.8571 10.8246 6.25754 11.1708 6.77131C11.517 7.28509 11.7017 7.88912 11.7017 8.50704C11.7007 9.33533 11.3685 10.1294 10.7779 10.7151C10.1873 11.3008 9.38654 11.6303 8.55131 11.6313ZM8.55131 6.6325C8.17745 6.6325 7.81199 6.74244 7.50114 6.94842C7.19029 7.1544 6.94801 7.44716 6.80494 7.78968C6.66187 8.13221 6.62444 8.50912 6.69737 8.87274C6.77031 9.23636 6.95034 9.57037 7.21469 9.83253C7.47905 10.0947 7.81586 10.2732 8.18254 10.3456C8.54921 10.4179 8.92928 10.3808 9.27468 10.2389C9.62008 10.097 9.91529 9.85674 10.123 9.54847C10.3307 9.24021 10.4416 8.87778 10.4416 8.50704C10.4411 8.01003 10.2417 7.53352 9.88737 7.18209C9.53298 6.83065 9.05248 6.633 8.55131 6.6325Z" fill="white"/>
<path d="M8.55116 22.3432L1.99321 14.4139C1.90208 14.2948 1.8119 14.175 1.72268 14.0545C0.602462 12.5416 -0.0027062 10.6937 9.09756e-06 8.79429C9.09756e-06 6.46915 0.900932 4.23925 2.50458 2.59512C4.10824 0.951002 6.28326 0.0273438 8.55116 0.0273438C10.8191 0.0273438 12.9941 0.951002 14.5977 2.59512C16.2014 4.23925 17.1023 6.46915 17.1023 8.79429C17.105 10.6929 16.5001 12.5399 15.3804 14.0521L15.3797 14.0545C15.3797 14.0545 15.1464 14.3685 15.1115 14.4107L8.55116 22.3432ZM2.96415 13.0941C2.96415 13.0941 3.14528 13.3396 3.18648 13.3922L8.55116 19.8789L13.9228 13.3834C13.957 13.3396 14.139 13.0925 14.1397 13.0917C15.0548 11.8556 15.5494 10.3461 15.5476 8.79429C15.5476 6.89191 14.8104 5.06744 13.4984 3.72225C12.1863 2.37706 10.4067 1.62133 8.55116 1.62133C6.6956 1.62133 4.91604 2.37706 3.60396 3.72225C2.29188 5.06744 1.55476 6.89191 1.55476 8.79429C1.55313 10.347 2.04823 11.8575 2.96415 13.0941Z" fill="white"/>
</svg>
