<svg width="20" height="24" viewBox="0 0 20 24" fill="none" xmlns="http://www.w3.org/2000/svg">
<mask id="path-1-inside-1_251_5730" fill="white">
<path d="M19.747 17.5056C18.2891 15.6923 17.2599 14.7692 17.2599 9.77019C17.2599 5.19231 14.9595 3.56135 13.0663 2.76923C12.8148 2.66423 12.578 2.42308 12.5014 2.16058C12.1693 1.01192 11.2383 0 10.0007 0C8.76309 0 7.83149 1.0125 7.5028 2.16173C7.42616 2.42712 7.18943 2.66423 6.93793 2.76923C5.04238 3.5625 2.74433 5.18769 2.74433 9.77019C2.74149 14.7692 1.71225 15.6923 0.254397 17.5056C-0.349636 18.2567 0.179461 19.3846 1.23595 19.3846H18.7711C19.8219 19.3846 20.3476 18.2533 19.747 17.5056ZM13.634 19.3846V20.3077C13.634 21.287 13.2512 22.2261 12.5698 22.9185C11.8884 23.611 10.9643 24 10.0007 24C9.03707 24 8.11293 23.611 7.43156 22.9185C6.75019 22.2261 6.3674 21.287 6.3674 20.3077V19.3846"/>
</mask>
<path d="M19.747 17.5056L20.5266 16.8793L20.5263 16.879L19.747 17.5056ZM13.0663 2.76923L13.4522 1.84672L13.4515 1.84643L13.0663 2.76923ZM12.5014 2.16058L11.5407 2.43833L11.5415 2.44084L12.5014 2.16058ZM7.5028 2.16173L8.46354 2.43918L8.46424 2.43672L7.5028 2.16173ZM6.93793 2.76923L6.55266 1.84643L6.55189 1.84675L6.93793 2.76923ZM2.74433 9.77019L3.74433 9.77076V9.77019H2.74433ZM0.254397 17.5056L1.03369 18.1322L1.03375 18.1322L0.254397 17.5056ZM14.634 19.3846C14.634 18.8323 14.1862 18.3846 13.634 18.3846C13.0817 18.3846 12.634 18.8323 12.634 19.3846H14.634ZM6.3674 20.3077H5.3674H6.3674ZM7.3674 19.3846C7.3674 18.8323 6.91968 18.3846 6.3674 18.3846C5.81511 18.3846 5.3674 18.8323 5.3674 19.3846H7.3674ZM20.5263 16.879C19.7571 15.9222 19.2543 15.3699 18.8832 14.4563C18.5138 13.5465 18.2599 12.214 18.2599 9.77019H16.2599C16.2599 12.3254 16.5206 13.954 17.0302 15.2088C17.5382 16.4598 18.279 17.2757 18.9676 18.1322L20.5263 16.879ZM18.2599 9.77019C18.2599 7.30564 17.6371 5.53148 16.6722 4.24887C15.7144 2.97575 14.4895 2.28068 13.4522 1.84672L12.6803 3.69174C13.5363 4.0499 14.4082 4.56637 15.0739 5.45123C15.7325 6.3266 16.2599 7.65686 16.2599 9.77019H18.2599ZM13.4515 1.84643C13.4617 1.85069 13.4635 1.85273 13.4594 1.84978C13.4554 1.84699 13.4503 1.84268 13.4457 1.8378C13.441 1.83284 13.4405 1.83116 13.4429 1.83507C13.4451 1.83877 13.4535 1.85339 13.4613 1.88032L11.5415 2.44084C11.7135 3.02991 12.1879 3.48617 12.681 3.69203L13.4515 1.84643ZM13.4621 1.88283C13.0564 0.47971 11.8412 -1 10.0007 -1V1C10.6354 1 11.2822 1.54414 11.5407 2.43833L13.4621 1.88283ZM10.0007 -1C8.16012 -1 6.94357 0.480457 6.54135 1.88674L8.46424 2.43672C8.71942 1.54454 9.36607 1 10.0007 1V-1ZM6.54206 1.88428C6.54977 1.85757 6.55827 1.84234 6.56123 1.83743C6.56426 1.83241 6.56454 1.83307 6.5606 1.83723C6.55672 1.84132 6.55202 1.84532 6.54794 1.84818C6.54367 1.85117 6.54447 1.84985 6.55266 1.84643L7.32321 3.69203C7.81068 3.48851 8.29047 3.03846 8.46354 2.43918L6.54206 1.88428ZM6.55189 1.84675C5.51436 2.28095 4.2891 2.97469 3.33128 4.24744C2.36633 5.52968 1.74433 7.30377 1.74433 9.77019H3.74433C3.74433 7.65411 4.27136 6.32436 4.92932 5.45006C5.59442 4.56627 6.46595 4.05079 7.32398 3.69171L6.55189 1.84675ZM1.74433 9.76962C1.74294 12.2135 1.48842 13.5461 1.11859 14.456C0.747178 15.3698 0.244286 15.9222 -0.524951 16.879L1.03375 18.1322C1.72236 17.2757 2.46302 16.4599 2.9714 15.2091C3.48136 13.9544 3.74288 12.3259 3.74433 9.77076L1.74433 9.76962ZM-0.524895 16.8789C-1.69129 18.3294 -0.601972 20.3846 1.23595 20.3846V18.3846C1.15426 18.3846 1.10686 18.3642 1.08037 18.3477C1.05106 18.3294 1.0296 18.3048 1.01605 18.2779C1.00224 18.2504 0.998661 18.2246 1.00042 18.2048C1.00185 18.1888 1.00735 18.165 1.03369 18.1322L-0.524895 16.8789ZM1.23595 20.3846H18.7711V18.3846H1.23595V20.3846ZM18.7711 20.3846C20.6128 20.3846 21.6831 18.319 20.5266 16.8793L18.9674 18.1318C18.9924 18.163 18.9981 18.1863 18.9996 18.2031C19.0014 18.2238 18.9976 18.2507 18.9835 18.2791C18.9696 18.307 18.948 18.3314 18.9199 18.3491C18.8947 18.3649 18.8496 18.3846 18.7711 18.3846V20.3846ZM12.634 19.3846V20.3077H14.634V19.3846H12.634ZM12.634 20.3077C12.634 21.0269 12.3527 21.7134 11.857 22.2172L13.2826 23.6199C14.1497 22.7388 14.634 21.547 14.634 20.3077H12.634ZM11.857 22.2172C11.3619 22.7203 10.6938 23 10.0007 23V25C11.2347 25 12.415 24.5017 13.2826 23.6199L11.857 22.2172ZM10.0007 23C9.30754 23 8.63946 22.7203 8.14434 22.2172L6.71878 23.6199C7.5864 24.5017 8.76661 25 10.0007 25V23ZM8.14434 22.2172C7.64868 21.7134 7.3674 21.0269 7.3674 20.3077H5.3674C5.3674 21.547 5.85169 22.7388 6.71878 23.6199L8.14434 22.2172ZM7.3674 20.3077V19.3846H5.3674V20.3077H7.3674Z" fill="white" mask="url(#path-1-inside-1_251_5730)"/>
<circle cx="15.5" cy="6.5" r="4.5" fill="#FF981A"/>
</svg>
