<?xml version="1.0" encoding="utf-8"?>
<!-- Generator: Adobe Illustrator 27.5.0, SVG Export Plug-In . SVG Version: 6.00 Build 0)  -->
<svg version="1.1" xmlns="http://www.w3.org/2000/svg" xmlns:xlink="http://www.w3.org/1999/xlink" x="0px" y="0px"
	 viewBox="0 0 500 500" style="enable-background:new 0 0 500 500;" xml:space="preserve">
<g id="BACKGROUND">
	<rect style="fill:#FFFFFF;" width="500" height="500"/>
	<g>
		<g>
			<path style="fill:#D6EDF1;" d="M150.764,400.894h294.042c27.083-46.585,38.47-102.131,31.825-155.61
				c-2.229-17.942-6.571-35.997-16.18-51.311c-9.609-15.315-25.126-27.645-43.037-30.108c-23.03-3.168-44.749,9.762-66.784,17.17
				c-32.923,11.068-69.237,9.868-102.618,0.271c-36.502-10.495-71.348-30.893-109.308-29.631
				c-34.532,1.148-66.924,21.121-87.34,48.995c-20.416,27.874-29.654,62.848-30.554,97.388c-0.9,34.54,6.094,68.848,15.668,102.046
				L150.764,400.894z"/>
			<path style="fill:#D6EDF1;" d="M84.911,160.495c10.637-6.861,22.593-11.975,35.17-13.399c4.203-0.476,9.141-0.934,11.33-4.553
				c1.822-3.013,0.726-7.133-1.718-9.668c-2.444-2.535-5.92-3.783-9.339-4.623c-17.345-4.264-36.104,0.124-51.326,9.469
				c-5.651,3.469-10.949,7.654-14.981,12.919c-4.032,5.265-6.742,11.685-6.87,18.315c-0.067,3.452,0.588,6.977,2.324,9.962
				c1.459,2.509,4.169,5.81,7.333,4.586c3.128-1.21,6.246-5.649,8.722-7.889C71.631,170.117,78.019,164.939,84.911,160.495z"/>
		</g>
		<g>
			<g>
				<g>
					<g>
						<polygon style="fill:#F58249;" points="379.033,426.395 377.264,426.395 405.302,400.843 407.07,400.843 						"/>
						<polygon style="fill:#F58249;" points="289.943,427.838 291.527,426.395 379.033,426.395 377.449,427.838 						"/>
						<g>
							<polygon style="fill:#F5AD49;" points="405.303,400.842 382.955,421.21 377.265,426.392 291.529,426.392 304.536,414.541 
								319.561,400.842 							"/>
							<path style="opacity:0.5;fill:#F5AD49;" d="M382.955,421.21l-5.69,5.182h-85.735l13.007-11.852
								c7.192-1.561,14.87-1.583,22.29-1.465c13.5,0.221,27.074,0.67,40.339,3.18C372.546,417.272,378.06,418.781,382.955,421.21z"
								/>
						</g>
					</g>
				</g>
				<g>
					<rect x="286.319" y="92.183" style="fill:#A4D7E0;" width="156.246" height="300.378"/>
					<g>
						<rect x="294.932" y="104.024" style="fill:#1C484F;" width="139.021" height="288.538"/>
						<rect x="294.932" y="352.844" style="opacity:0.5;fill:#1F4F57;" width="139.021" height="39.718"/>
					</g>
					<g>
						<polygon style="fill:#E6E6E6;" points="348.507,362.871 433.988,392.562 433.988,104.024 348.507,113.28 						"/>
						<g>
							<g>
								<path style="fill:#80C8D4;" d="M353.658,148.713v-23.808l73.471-6.284v26.865l-0.382,0.017L353.658,148.713z
									 M354.457,125.639v22.24l71.872-3.156v-25.23L354.457,125.639z"/>
							</g>
							<g>
								<path style="fill:#80C8D4;" d="M427.128,379.402l-0.525-0.172l-72.946-24.032v-64.454l73.471,15.752V379.402z
									 M354.457,354.62l71.872,23.679v-71.157l-71.872-15.41V354.62z"/>
							</g>
							<g>
								<path style="fill:#80C8D4;" d="M427.128,280.608l-36.781-6.318V158.863l36.781-0.832V280.608z M391.147,273.617
									l35.182,6.044V158.849l-35.182,0.796V273.617z"/>
							</g>
							<g>
								<path style="fill:#80C8D4;" d="M385.983,273.54l-32.326-5.552V159.693l32.326-0.731V273.54z M354.457,267.315l30.727,5.278
									V159.78l-30.727,0.695V267.315z"/>
							</g>
							<g>
								<path style="fill:#80C8D4;" d="M400.892,292.491l-24.878-4.952v-9.465l24.878,4.578V292.491z M376.813,286.883l23.28,4.635
									v-8.199l-23.28-4.285V286.883z"/>
							</g>
						</g>
					</g>
				</g>
			</g>
		</g>
		<line style="fill:none;stroke:#1C484F;stroke-miterlimit:10;" x1="16.946" y1="400.632" x2="473.967" y2="400.632"/>
	</g>
</g>
<g id="OBJECTS">
	<g>
		<linearGradient id="SVGID_1_" gradientUnits="userSpaceOnUse" x1="66.9254" y1="399.6879" x2="67.1807" y2="433.6454">
			<stop  offset="0.2352" style="stop-color:#9C9C9C"/>
			<stop  offset="1" style="stop-color:#FFFFFF;stop-opacity:0"/>
		</linearGradient>
		<polygon style="opacity:0.5;fill:url(#SVGID_1_);" points="121.21,399.561 78.236,425.221 12.831,425.221 61.885,397.425 		"/>
		<g>
			<g>
				<polygon style="fill:#C7762F;" points="121.21,339.067 121.21,344.014 47.326,344.014 59.31,339.973 61.99,339.067 				"/>
				<g>
					<rect x="47.327" y="344.013" style="fill:#F5AD49;" width="64.159" height="61.176"/>
					<g>
						<g>
							<rect x="50.224" y="395.548" style="fill:#C7762F;" width="26.962" height="3.754"/>
							<rect x="50.224" y="391.197" style="fill:#C7762F;" width="18.088" height="2.73"/>
						</g>
					</g>
					<path style="fill:#C7762F;" d="M106.537,352.844c0,2.71-2.196,4.906-4.906,4.906c-2.71,0-4.906-2.197-4.906-4.906
						c0-2.709,2.196-4.906,4.906-4.906C104.341,347.938,106.537,350.135,106.537,352.844z"/>
					
						<rect x="47.327" y="344.013" transform="matrix(-1 -1.224647e-16 1.224647e-16 -1 97.5509 749.2029)" style="opacity:0.5;fill:#F5AD49;" width="2.898" height="61.176"/>
				</g>
				<g>
					<polygon style="fill:#E38C3B;" points="121.21,339.067 121.21,399.561 111.486,405.193 111.486,344.014 114.085,342.697 					
						"/>
					<path style="opacity:0.5;fill:#E38C3B;" d="M121.21,388.218v11.344l-9.724,5.631v-61.179l2.599-1.318
						c-0.25,9.305,0.155,18.616,1.215,27.862c0.501,4.358,1.17,8.767,2.937,12.779C119.002,385.082,119.996,386.746,121.21,388.218z
						"/>
				</g>
				<path style="opacity:0.5;fill:#C7762F;" d="M121.21,339.067v0.685c-27.781,3.57-51.248,1.568-61.9,0.221l2.68-0.905H121.21z"/>
			</g>
			<g>
				<polygon style="fill:#C7762F;" points="111.486,295.377 111.486,299.022 57.05,299.022 65.88,296.044 67.854,295.377 				"/>
				<g>
					<rect x="57.051" y="299.021" style="fill:#F5AD49;" width="47.271" height="45.073"/>
					<g>
						<g>
							<rect x="59.185" y="336.991" style="fill:#C7762F;" width="19.865" height="2.766"/>
							<rect x="59.185" y="333.785" style="fill:#C7762F;" width="13.327" height="2.012"/>
						</g>
					</g>
					<path style="fill:#C7762F;" d="M100.676,305.528c0,1.996-1.618,3.615-3.615,3.615s-3.615-1.618-3.615-3.615
						c0-1.996,1.618-3.615,3.615-3.615S100.676,303.531,100.676,305.528z"/>
					
						<rect x="57.051" y="299.021" transform="matrix(-1 -1.224647e-16 1.224647e-16 -1 116.2361 643.1159)" style="opacity:0.5;fill:#F5AD49;" width="2.135" height="45.073"/>
				</g>
				<g>
					<polygon style="fill:#E38C3B;" points="111.486,295.377 111.486,339.948 104.322,344.097 104.322,299.022 106.236,298.051 
											"/>
					<path style="opacity:0.5;fill:#E38C3B;" d="M111.486,331.59v8.358l-7.164,4.149v-45.075l1.915-0.971
						c-0.184,6.855,0.114,13.716,0.895,20.528c0.369,3.211,0.862,6.459,2.164,9.415C109.859,329.28,110.591,330.505,111.486,331.59z
						"/>
				</g>
				<path style="opacity:0.5;fill:#C7762F;" d="M111.486,295.377v0.504c-20.468,2.63-37.758,1.155-45.606,0.163l1.974-0.667H111.486
					z"/>
			</g>
		</g>
	</g>
	<g>
		<g>
			<g>
				<path style="fill:#1C2540;" d="M391.845,257.688c3.621,3.819,6.997,7.877,10.13,12.117c3.116,4.254,5.983,8.691,8.625,13.26
					c5.277,9.146,9.581,18.835,13.171,28.762c3.533,9.951,6.367,20.14,8.669,30.433c1.146,5.148,2.18,10.319,3.125,15.504
					c0.923,5.189,1.765,10.389,2.56,15.595l-1.454,0.23c-0.851-5.188-1.748-10.366-2.726-15.528
					c-0.956-5.165-1.985-10.315-3.134-15.437c-2.287-10.243-4.977-20.402-8.429-30.309c-3.394-9.922-7.562-19.586-12.595-28.794
					c-2.513-4.605-5.261-9.086-8.254-13.402C398.559,265.792,395.332,261.63,391.845,257.688z"/>
			</g>
		</g>
		<g>
			<g>
				<path style="fill:#1C2540;" d="M421.056,221.217c4.866,11.747,9.738,23.525,13.388,35.732c0.918,3.048,1.752,6.123,2.48,9.224
					c0.38,1.547,0.702,3.107,1.031,4.666c0.301,1.564,0.56,3.136,0.842,4.704c1.02,6.288,1.74,12.63,2.074,18.992
					c0.753,12.724,0.491,25.468,0.436,38.18c-0.019,6.357,0.011,12.711,0.234,19.054c0.253,6.341,0.712,12.668,1.48,18.955
					l-1.461,0.18c-0.713-6.35-1.114-12.722-1.306-19.094c-0.163-6.373-0.131-12.742-0.051-19.105
					c0.178-12.723,0.562-25.439-0.067-38.129c-0.272-6.346-0.928-12.67-1.884-18.944c-0.266-1.564-0.509-3.134-0.793-4.695
					c-0.313-1.556-0.618-3.114-0.983-4.66c-0.695-3.098-1.498-6.173-2.385-9.224C430.566,244.835,425.809,233.011,421.056,221.217z"
					/>
			</g>
		</g>
		<g>
			<g>
				<path style="fill:#1C2540;" d="M480.82,260.049c-24.536,30.595-36.869,70.551-33.926,109.465l-1.469,0.102
					C442.949,330.283,455.904,290.334,480.82,260.049z"/>
			</g>
		</g>
		<g>
			<g>
				<path style="fill:#FF4846;" d="M451.677,403.183H426.85c-2.347,0-4.31-1.785-4.532-4.122l-2.797-29.477h39.485l-2.797,29.477
					C455.987,401.398,454.024,403.183,451.677,403.183z"/>
				<polygon style="opacity:0.5;fill:#871A1A;" points="458.177,378.313 459.006,369.584 419.521,369.584 420.349,378.313 				"/>
				<rect x="417.069" y="363.698" style="fill:#FF4846;" width="44.389" height="8.093"/>
			</g>
		</g>
		<g>
			<g>
				<path style="fill:#80D4A9;" d="M485.96,266.508c-1.391,2.525-3.607,4.468-5.639,6.522c-1.009,1.016-1.98,2.076-2.908,3.165
					c-3.666,4.292-6.706,9.113-9.018,14.266c-1.693,3.769-2.989,7.722-3.85,11.771c-0.066,0.324-0.133,0.64-0.199,0.964
					c-1.082,5.513-1.494,11.174-3.121,16.555c-0.361,1.178-1.016,2.937-1.921,4.777c-2.054,4.203-5.359,8.819-9.135,7.832
					c-0.471-0.11-0.95-0.324-1.428-0.626c-0.957-0.604-1.737-1.428-2.37-2.4c-2.275-3.497-2.65-8.922-2.341-13.029
					c0.059-0.81,0.147-1.561,0.25-2.238c0.707-4.645,2.355-9.054,4.115-13.427c0.743-1.855,1.516-3.71,2.238-5.572
					c1.347-3.474,2.562-7.008,3.857-10.504c1.347-3.651,2.783-7.266,4.549-10.733c1.384-2.716,3.011-5.359,4.902-7.773
					c2.827-3.614,6.242-6.713,10.328-8.76c1.921-0.964,4.019-1.686,6.169-1.656c2.15,0.037,4.358,0.92,5.617,2.665
					C487.741,260.649,487.351,263.976,485.96,266.508z"/>
			</g>
			<path style="opacity:0.19;fill:#80D4A9;" d="M485.96,266.508c-1.391,2.525-3.607,4.468-5.639,6.522
				c-1.009,1.016-1.98,2.076-2.908,3.165c-0.795,0.39-1.583,0.802-2.356,1.244c-3.003,1.745-5.837,4.277-6.625,7.663
				c-0.412,1.752-0.236,3.556-0.037,5.359c-1.693,3.769-2.989,7.722-3.85,11.771c-0.066,0.324-0.133,0.64-0.199,0.964
				c-2.289,2.635-4.844,5.175-5.837,8.451c-0.78,2.576-0.515,5.344-0.059,7.994c0.28,1.627,0.633,3.254,0.854,4.888
				c-2.054,4.203-5.359,8.819-9.135,7.832c-0.471-0.11-0.95-0.324-1.428-0.626c-0.957-0.604-1.737-1.428-2.37-2.4
				c-2.275-3.497-2.65-8.922-2.341-13.029c1.627-1.752,3.673-3.195,4.733-5.329c1.59-3.187,0.567-6.743-0.368-10.335
				c0.743-1.855,1.516-3.71,2.238-5.572c1.347-3.474,2.562-7.008,3.857-10.504c2.731-1.848,5.558-3.681,7.133-6.463
				c1.752-3.121,1.612-6.905,2.069-10.453c0.066-0.53,0.154-1.06,0.25-1.59c2.827-3.614,6.242-6.713,10.328-8.76
				c1.921-0.964,4.019-1.686,6.169-1.656c2.15,0.037,4.358,0.92,5.617,2.665C487.741,260.649,487.351,263.976,485.96,266.508z"/>
		</g>
		<g>
			<path style="fill:#80D4A9;" d="M448.351,282.32c-0.221,4.314,0.442,8.613,0.685,12.919c0.044,0.817,0.081,1.634,0.081,2.451
				v0.007c0.029,3.519-0.383,7.059-1.87,10.225c-1.87,3.982-7.368,9.511-11.55,5.543c-1.568-1.48-2.687-3.349-3.467-5.396
				c-1.369-3.578-1.708-7.7-1.597-11.263c0.155-4.903,1.001-9.827,0.935-14.708c-0.015-1.472-0.11-2.937-0.339-4.402
				c-0.258-1.671-0.677-3.29-1.207-4.873c-2.908-8.605-9.305-16.01-12.956-24.491c-0.802-1.855-1.465-3.769-1.987-5.712
				c-1.649-6.125-1.958-12.602-0.861-18.845c0.155-0.869,0.331-1.73,0.537-2.584c0.905-3.754,2.937-7.913,6.618-8.782
				c0.14-0.037,0.287-0.066,0.434-0.088c4.071-0.648,7.472,2.981,9.776,6.397c2.694,3.975,5.064,8.156,7.317,12.396
				c1.001,1.862,1.973,3.732,2.944,5.602c3.018,5.801,6.08,11.807,7.729,18.072c0,0,0,0,0.007,0.007
				c0.824,3.128,1.296,6.323,1.229,9.584v0.206C450.641,270.557,448.661,276.358,448.351,282.32z"/>
			<path style="opacity:0.19;fill:#80D4A9;" d="M448.609,295.791c0.177,0.626,0.346,1.259,0.508,1.899v0.007
				c0.029,3.519-0.383,7.059-1.87,10.225c-1.87,3.982-7.368,9.511-11.55,5.543c-1.568-1.48-2.687-3.349-3.467-5.396
				c1.104-0.111,2.113-0.508,2.989-1.325c1.435-1.347,2.12-3.335,2.326-5.3c0.714-6.794-3.6-12.86-5.977-19.345
				c-0.015-1.472-0.11-2.937-0.339-4.402c-0.258-1.671-0.677-3.29-1.207-4.873c0.096-6.331,1.664-12.904-1.561-18.219
				c-3.128-5.153-9.783-7.192-13.383-11.984c-1.649-6.125-1.958-12.602-0.861-18.845c0.147-0.442,0.302-0.876,0.464-1.303
				c1.009-2.709,2.186-5.41,4.041-7.634c0.766-0.92,1.664-1.752,2.65-2.429c0.14-0.037,0.287-0.066,0.434-0.088
				c4.071-0.648,7.472,2.981,9.776,6.397c2.694,3.975,5.064,8.156,7.317,12.396c0.022,0.802,0.037,1.605,0.066,2.4
				c0.162,4.932,0.751,10.129,3.673,14.104c1.686,2.282,4.019,3.99,5.963,6.051c0.339,0.353,0.663,0.729,0.972,1.119
				c0,0,0,0,0.007,0.007c0.824,3.128,1.296,6.323,1.229,9.584c-0.523,1.016-1.163,1.995-1.73,2.981
				c-2.665,4.623-3.894,10.055-3.482,15.378C445.944,287.201,447.402,291.485,448.609,295.791z"/>
		</g>
		<g>
			<path style="fill:#80D4A9;" d="M435.153,319.325c-0.022,0.405-0.052,0.81-0.088,1.215c-0.302,3.342-1.008,11.16-5.315,11.925
				c-3.047,0.537-7.479-4.814-9.908-6.5c-1.362-0.942-2.76-1.884-4.093-2.893c-2.135-1.597-4.115-3.379-5.565-5.646
				c-1.332-2.076-2.091-4.38-2.584-6.78c-0.788-3.813-0.92-7.884-1.634-11.726c-0.316-1.722-0.751-3.401-1.288-5.05
				c-1.973-6.036-5.315-11.587-9.187-16.776c0,0,0,0-0.007,0c-1.914-2.569-3.953-5.05-6.029-7.457
				c-0.721-0.832-1.45-1.693-2.157-2.584c-2.444-3.106-4.505-6.551-4.13-10.372c0.493-4.947,5.366-8.738,10.335-8.966
				c4.969-0.236,9.724,2.503,12.963,6.279c0.928,1.075,1.737,2.23,2.473,3.438c1.833,3.018,3.136,6.389,4.255,9.768
				c0.795,2.407,1.509,4.844,2.304,7.251c0.766,2.311,1.605,4.608,2.657,6.802c1.075,2.245,2.356,4.373,3.732,6.448
				c2.827,4.277,6.029,8.34,8.561,12.75c0.957,1.664,1.818,3.371,2.525,5.16C434.696,309.954,435.403,314.665,435.153,319.325z"/>
			<path style="opacity:0.19;fill:#80D4A9;" d="M435.153,319.325c-0.022,0.405-0.052,0.81-0.088,1.215
				c-0.302,3.342-1.008,11.16-5.315,11.925c-3.047,0.537-7.479-4.814-9.908-6.5c-1.362-0.942-2.76-1.884-4.093-2.893
				c0.515-2.54,0.986-5.234-0.206-7.486c-1.48-2.805-4.836-3.754-7.943-4.939c-0.788-3.813-0.92-7.884-1.634-11.726
				c-0.316-1.722-0.751-3.401-1.288-5.05c0.876-1.7,1.708-3.423,2.253-5.263c1.09-3.688,0.618-8.274-2.517-10.497
				c-2.297-1.627-5.374-1.56-8.156-1.141c-0.25,0.037-0.508,0.081-0.766,0.125c0,0,0,0-0.007,0c-1.914-2.569-3.953-5.05-6.029-7.457
				c-0.721-0.832-1.45-1.693-2.157-2.584c3.813-3.003,8.097-5.433,12.632-7.162c2.79-1.067,5.683-1.87,8.627-2.392
				c0.125-0.022,0.25-0.044,0.383-0.066c1.833,3.018,3.136,6.389,4.255,9.768c0.795,2.407,1.509,4.844,2.304,7.251
				c-0.353,0.817-0.685,1.649-0.942,2.503c-0.972,3.187-0.714,7.162,1.929,9.187c1.516,1.17,3.43,1.435,5.403,1.561
				c2.827,4.277,6.029,8.34,8.561,12.75c-0.802,1.796-1.767,3.526-2.488,5.359c-1.075,2.753-1.524,6.036,0.037,8.539
				C429.536,316.807,432.569,317.882,435.153,319.325z"/>
		</g>
	</g>
	<g>
		<g>
			<g>
				<g>
					<path style="fill:#FFFFFF;" d="M108.567,193.952v2.268h-2.024v-2.207c-2.004-0.121-3.927-0.749-5.04-1.619l1.113-2.469
						c1.012,0.748,2.469,1.295,3.927,1.436v-3.379c-2.247-0.547-4.756-1.295-4.756-4.19c0-2.146,1.558-3.987,4.756-4.352v-2.246
						h2.024v2.206c1.518,0.121,2.995,0.527,4.109,1.234l-1.012,2.49c-1.033-0.588-2.085-0.931-3.097-1.053v3.441
						c2.247,0.527,4.716,1.275,4.716,4.129C113.283,191.746,111.744,193.568,108.567,193.952z M106.543,185.006v-2.874
						c-1.073,0.243-1.498,0.83-1.498,1.498C105.045,184.338,105.652,184.723,106.543,185.006z M110.025,189.883
						c0-0.708-0.588-1.093-1.458-1.396v2.793C109.579,191.058,110.025,190.531,110.025,189.883z"/>
				</g>
				<g>
					<path style="fill:#FFFFFF;" d="M99.723,180.324v1.114h-0.994v-1.084c-0.985-0.059-1.929-0.368-2.476-0.796l0.547-1.213
						c0.497,0.368,1.213,0.636,1.929,0.706v-1.66c-1.104-0.269-2.337-0.636-2.337-2.059c0-1.054,0.766-1.959,2.337-2.138v-1.104
						h0.994v1.084c0.746,0.06,1.472,0.259,2.019,0.607l-0.497,1.223c-0.507-0.289-1.024-0.458-1.521-0.517v1.691
						c1.104,0.259,2.317,0.626,2.317,2.029C102.039,179.24,101.284,180.135,99.723,180.324z M98.728,175.929v-1.412
						c-0.527,0.119-0.736,0.408-0.736,0.736C97.992,175.6,98.291,175.79,98.728,175.929z M100.439,178.325
						c0-0.348-0.289-0.537-0.716-0.686v1.372C100.22,178.902,100.439,178.643,100.439,178.325z"/>
				</g>
			</g>
			<g>
				<path style="fill:#D6EDF1;" d="M217.584,132.342c0,4.488-6.085,13.78-9.142,18.165c-0.831,1.192-2.588,1.192-3.419,0
					c-3.056-4.384-9.142-13.677-9.142-18.165c0-5.993,4.858-10.851,10.851-10.851C212.726,121.491,217.584,126.35,217.584,132.342z"
					/>
				<path style="fill:#FFFFFF;" d="M211.244,132.342c0,2.491-2.02,4.511-4.511,4.511c-2.491,0-4.511-2.02-4.511-4.511
					c0-2.491,2.02-4.511,4.511-4.511C209.224,127.832,211.244,129.851,211.244,132.342z"/>
			</g>
			<g>
				<polygon style="fill:#F5AD49;" points="296.38,72.162 298.691,76.846 303.86,77.597 300.12,81.243 301.003,86.391 296.38,83.96 
					291.757,86.391 292.639,81.243 288.899,77.597 294.068,76.846 				"/>
				<polygon style="fill:#F5AD49;" points="313.958,72.162 316.27,76.846 321.438,77.597 317.698,81.243 318.581,86.391 
					313.958,83.96 309.335,86.391 310.218,81.243 306.478,77.597 311.646,76.846 				"/>
				<polygon style="fill:#F5AD49;" points="331.536,72.162 333.848,76.846 339.017,77.597 335.276,81.243 336.159,86.391 
					331.536,83.96 326.913,86.391 327.796,81.243 324.056,77.597 329.225,76.846 				"/>
				<polygon style="fill:#F5AD49;" points="349.115,72.162 351.426,76.846 356.595,77.597 352.855,81.243 353.738,86.391 
					349.115,83.96 344.492,86.391 345.375,81.243 341.634,77.597 346.803,76.846 				"/>
				<polygon style="fill:#F5AD49;" points="366.693,72.162 369.005,76.846 374.173,77.597 370.433,81.243 371.316,86.391 
					366.693,83.96 362.07,86.391 362.953,81.243 359.213,77.597 364.382,76.846 				"/>
			</g>
			<g>
				<path style="fill:#F5AD49;" d="M45.797,123.999H15.329c-0.681,0-1.234,0.552-1.234,1.234v19.277
					c0,0.681,0.553,1.234,1.234,1.234h20.505l9.74,3.887c0.698,0.279,1.458-0.236,1.458-0.988v-4.133v-1.638v-17.638
					C47.031,124.551,46.478,123.999,45.797,123.999z"/>
				<g>
					<path style="fill:#FFFFFF;" d="M22.935,134.797c0,0.793-0.643,1.436-1.436,1.436c-0.793,0-1.436-0.643-1.436-1.436
						c0-0.793,0.643-1.436,1.436-1.436C22.292,133.361,22.935,134.004,22.935,134.797z"/>
					<path style="fill:#FFFFFF;" d="M31.999,134.797c0,0.793-0.643,1.436-1.436,1.436s-1.436-0.643-1.436-1.436
						c0-0.793,0.643-1.436,1.436-1.436S31.999,134.004,31.999,134.797z"/>
					<path style="fill:#FFFFFF;" d="M41.063,134.797c0,0.793-0.643,1.436-1.436,1.436c-0.793,0-1.436-0.643-1.436-1.436
						c0-0.793,0.643-1.436,1.436-1.436C40.42,133.361,41.063,134.004,41.063,134.797z"/>
				</g>
			</g>
			<g>
				<g>
					<path style="fill:#FF4846;" d="M143.888,101.388H120.75c-0.682,0-1.234,0.553-1.234,1.234v19.277
						c0,0.682,0.553,1.234,1.234,1.234h13.175l9.74,3.886c0.698,0.279,1.457-0.236,1.457-0.988v-4.133v-1.638v-17.638
						C145.122,101.941,144.57,101.388,143.888,101.388z"/>
				</g>
				<g>
					<path style="fill:#FFFFFF;" d="M127.03,110.001c0-1.516,0.926-2.48,2.236-2.48c1.311,0,2.223,0.951,2.223,2.48
						c0,1.53-0.913,2.481-2.223,2.481C127.956,112.482,127.03,111.518,127.03,110.001z M130.205,110.001
						c0-0.964-0.373-1.426-0.938-1.426c-0.552,0-0.938,0.476-0.938,1.426c0,0.951,0.386,1.427,0.938,1.427
						C129.832,111.428,130.205,110.965,130.205,110.001z M134.626,107.623h1.529l-6.144,8.997h-1.53L134.626,107.623z
						 M133.148,114.243c0-1.516,0.925-2.481,2.223-2.481c1.311,0,2.236,0.964,2.236,2.481c0,1.516-0.925,2.48-2.236,2.48
						C134.073,116.723,133.148,115.759,133.148,114.243z M136.31,114.243c0-0.951-0.373-1.426-0.938-1.426
						c-0.553,0-0.938,0.463-0.938,1.426s0.386,1.426,0.938,1.426C135.937,115.669,136.31,115.194,136.31,114.243z"/>
				</g>
			</g>
			<g>
				<g>
					<g>
						<path style="fill:none;stroke:#FFFFFF;stroke-miterlimit:10;" d="M57.037,225.917c-0.473,1.43-0.851,2.883-1.14,4.351"/>
						<path style="fill:none;stroke:#FFFFFF;stroke-miterlimit:10;stroke-dasharray:9.0335,9.0335;" d="M55.224,239.258
							c0.35,8.754,3.516,17.481,8.694,24.609c7.847,10.802,19.868,18.119,32.664,21.93c12.796,3.811,26.371,4.328,39.691,3.409
							c18.735-1.293,37.155-5.356,55.742-8.043c18.587-2.687,37.71-3.977,56.011,0.235c15.354,3.534,30.176,11.38,40.16,23.382"/>
						<path style="fill:none;stroke:#FFFFFF;stroke-miterlimit:10;" d="M290.934,308.367c0.861,1.223,1.674,2.485,2.436,3.784"/>
					</g>
				</g>
				<g>
					<polygon style="opacity:0.5;fill:#80C8D4;" points="84.441,212.936 56.247,222.27 49.44,215.425 					"/>
					<polygon style="fill:#577BB5;" points="58.641,225.26 55.929,228.309 60.53,226.813 					"/>
					<path style="opacity:0.5;fill:#80C8D4;" d="M58.641,225.26l7.626,10.679c0,0,18.225-23.13,18.174-23.003
						C84.389,213.064,58.641,225.26,58.641,225.26z"/>
					<polygon style="fill:#4E6FA3;" points="55.929,228.309 56.247,222.27 84.441,212.936 58.641,225.26 					"/>
				</g>
			</g>
		</g>
		<g>
			<path style="fill:#D6EDF1;" d="M35.499,199.327c0,2.726-2.21,4.936-4.936,4.936s-4.936-2.21-4.936-4.936
				c0-2.726,2.21-4.936,4.936-4.936S35.499,196.6,35.499,199.327z"/>
			<circle style="fill:#D6EDF1;" cx="24.201" cy="214.957" r="3.468"/>
			<path style="fill:#FFFFFF;" d="M98.336,210.177c0,2.23-1.808,4.038-4.038,4.038c-2.23,0-4.038-1.808-4.038-4.038
				c0-2.23,1.808-4.038,4.038-4.038C96.528,206.139,98.336,207.947,98.336,210.177z"/>
			<path style="fill:#FFFFFF;" d="M107.904,227.574c0,1.732-1.404,3.136-3.136,3.136c-1.732,0-3.136-1.404-3.136-3.136
				c0-1.732,1.404-3.136,3.136-3.136C106.5,224.437,107.904,225.842,107.904,227.574z"/>
			<path style="fill:#FFFFFF;" d="M262.919,238.087c0,0.758-0.615,1.373-1.373,1.373c-0.758,0-1.373-0.615-1.373-1.373
				c0-0.758,0.615-1.373,1.373-1.373C262.305,236.714,262.919,237.329,262.919,238.087z"/>
			<path style="fill:#FFFFFF;" d="M57.735,275.807c0,1.252-1.015,2.267-2.267,2.267c-1.252,0-2.267-1.015-2.267-2.267
				c0-1.252,1.015-2.267,2.267-2.267C56.72,273.54,57.735,274.555,57.735,275.807z"/>
			<circle style="fill:#FFFFFF;" cx="218.949" cy="326.193" r="2.082"/>
			<path style="fill:#D6EDF1;" d="M454.917,155.751c0,1.133-0.918,2.051-2.051,2.051s-2.051-0.918-2.051-2.051
				c0-1.132,0.918-2.05,2.051-2.05S454.917,154.619,454.917,155.751z"/>
			<circle style="fill:#FFFFFF;" cx="459.202" cy="215.905" r="2.256"/>
			<path style="fill:#D6EDF1;" d="M472.223,180.246c0,1.399-1.134,2.532-2.532,2.532c-1.399,0-2.532-1.134-2.532-2.532
				c0-1.399,1.134-2.532,2.532-2.532C471.089,177.713,472.223,178.847,472.223,180.246z"/>
			<circle style="fill:#D6EDF1;" cx="271.275" cy="106.205" r="2.181"/>
			<path style="fill:#D6EDF1;" d="M109.672,109.954c0,0.866-0.702,1.567-1.567,1.567s-1.568-0.702-1.568-1.567
				c0-0.866,0.702-1.567,1.568-1.567S109.672,109.089,109.672,109.954z"/>
		</g>
	</g>
	<g>
		
			<radialGradient id="SVGID_00000139972413537765916700000002812655805129622709_" cx="311.1997" cy="407.2802" r="54.0295" gradientTransform="matrix(1 0 0 0.0877 0 371.5817)" gradientUnits="userSpaceOnUse">
			<stop  offset="0.4081" style="stop-color:#9C9C9C"/>
			<stop  offset="1" style="stop-color:#FFFFFF;stop-opacity:0"/>
		</radialGradient>
		
			<ellipse style="opacity:0.5;fill:url(#SVGID_00000139972413537765916700000002812655805129622709_);" cx="311.2" cy="407.28" rx="51.027" ry="4.309"/>
		<g>
			<g>
				<g>
					<g>
						<g>
							<path style="fill:#C7683C;" d="M301.343,323.875c0.751,10.409,0.788,19.868,0.39,28.274
								c-1.369,28.856-7.825,45.345-7.825,45.345l-9.702-0.221l-6.08-87.863l-0.685-9.893c2.01-0.177,4.012-0.375,5.977-0.552
								c7.81-0.685,15.591-1.722,23.342-2.893C304.531,311.854,301.343,323.875,301.343,323.875z"/>
						</g>
						<path style="opacity:0.5;fill:#C7683C;" d="M301.343,323.875c0.751,10.409,0.788,19.868,0.39,28.274l-2.166-23.206
							c-1.033-11.069-10.323-19.533-21.441-19.533l0,0l-0.685-9.893c2.01-0.177,4.012-0.375,5.977-0.552
							c7.81-0.685,15.591-1.722,23.342-2.893C304.531,311.854,301.343,323.875,301.343,323.875z"/>
					</g>
					<g>
						<path style="fill:#E6E6E6;" d="M295.109,397.052c0,0,1.877,5.727,0.692,8.907h-24.932c0,0-1.634-4.586,5.447-4.086l7.14-4.38
							l-0.876-14.597c0,0,4.012-2.76,7.015,1.126l8.708,0.751L295.109,397.052z"/>
						<path style="fill:#A9C0C4;" d="M289.595,384.023c0,0-1.752,11.962-2.282,13.471c-0.537,1.502-3.165,5.447-6.044,5.477
							c-2.886,0.03-4.954-1.097-4.954-1.097l7.14-4.38l-0.876-14.597C282.58,382.897,286.592,380.137,289.595,384.023z"/>
					</g>
				</g>
				<g>
					<g>
						<g>
							<path style="fill:#D4774C;" d="M321.776,293.489c-3.92,0.79-7.886,1.48-11.906,2.104c-4.681,0.727-9.372,1.415-14.072,2.018
								c10.449,30.33,24.468,67.115,36.933,92.021c3.915,1.251,6.182-2.463,9.457-3.144c-0.637-23.185-9.721-47.04-18.26-68.149
								C323.49,311.091,322.873,302.499,321.776,293.489z"/>
						</g>
					</g>
					<g>
						<path style="fill:#E6E6E6;" d="M344.013,385.757c0,0,4.128,4.391,4.403,7.773l-22.58,10.571c0,0-3.424-3.46,3.201-6.009
							l4.61-6.994l-6.982-12.849c0,0,2.463-4.201,6.831-1.954l8.205-3.012L344.013,385.757z"/>
						<path style="fill:#A9C0C4;" d="M333.496,376.294c0,0,3.485,11.576,3.645,13.168c0.15,1.588-0.557,6.275-3.151,7.522
							c-2.601,1.25-4.952,1.107-4.952,1.107l4.61-6.994l-6.982-12.849C326.665,378.248,329.128,374.047,333.496,376.294z"/>
					</g>
				</g>
			</g>
			<g>
				<g>
					<g>
						<g>
							<g>
								<g>
									<path style="fill:#D4774C;" d="M333.26,265.442c-2.51,0.788-4.895,1.862-7.435,2.496
										c-4.77-13.736-9.805-28.539-16.033-41.031c-1.421-2.849-2.805-5.514-4.166-8.061c-1.929-3.622-3.82-7.008-5.734-10.372
										c4.071-1.649,8.06-3.504,12.05-5.352c1.325-0.611,2.657-1.222,3.982-1.833c1.502,3.335,2.849,6.728,4.085,10.136
										c1.023,2.819,1.973,5.646,2.863,8.458C327.673,235.077,330.676,249.8,333.26,265.442z"/>
								</g>
								<path style="fill:#D4774C;" d="M328.782,261.348c0,0,1.777,0.687,3.667,2.535c1.889,1.848,2.121,5.559,3.217,7.173
									c1.095,1.614,2.131,2.952,1.76,3.401c-0.371,0.449-1.027-0.19-2.977-2.564c0,0-1.217-0.915-0.665,0.466
									c0.552,1.381,2.691,4.23,2.027,4.946c-0.539,0.58-3.305-3.885-3.632-3.954c-0.328-0.069,2.242,5.861,1.172,6.689
									c-1.07,0.828-2.164-6.293-2.95-6.379c-0.785-0.087,0.576,4.948-0.122,5.204c-1.528,0.561-2.026-7.699-2.708-7.527
									c-0.682,0.172-1.209,3.236-2.133,3.055c-0.924-0.182,0.277-3.314,0.225-3.944
									C325.612,269.819,324.302,262.538,328.782,261.348z"/>
							</g>
							<path style="fill:#BF6237;" d="M320.01,211.426l-14.384,7.42c-1.929-3.622-3.82-7.008-5.734-10.372
								c4.071-1.649,8.06-3.504,12.05-5.352c1.325-0.611,2.657-1.222,3.982-1.833C317.426,204.624,318.773,208.018,320.01,211.426z"
								/>
						</g>
						<path style="fill:#D99434;" d="M318.905,205.287c0,0-11.653,7.987-16.916,8.362l-14.634-26.684c0,0-0.096-1.48,0.118-3.519
							c0.736-6.956,8.966-10.372,14.362-5.933l0.155,0.132c1.104,0.928,2.51,2.724,4.034,4.969
							c4.049,5.955,8.951,15.09,11.373,19.735C318.339,204.161,318.905,205.287,318.905,205.287z"/>
					</g>
					<path style="opacity:0.5;fill:#D99434;" d="M318.905,205.287c0,0-11.653,7.987-16.916,8.362l-14.634-26.684
						c0,0-0.096-1.48,0.118-3.519c0.736-6.956,8.966-10.372,14.362-5.933l0.155,0.132c1.104,0.928,2.51,2.724,4.034,4.969
						c-0.486,5.653-0.972,11.314-1.457,16.967c-0.118,1.34-0.214,2.775,0.434,3.953c0.832,1.531,2.702,2.208,4.446,2.289
						c2.996,0.132,5.992-1.222,7.95-3.475C318.339,204.161,318.905,205.287,318.905,205.287z"/>
				</g>
				<g>
					<g>
						<path style="fill:#D4774C;" d="M293.439,173.12v-16.698h-11.1v17.528c-2.718,0.981-5.07,2.838-6.677,5.289
							c-0.9,1.372-1.732,2.527-2.477,3.6c1.034,0.506,2.118,0.938,3.224,1.317c0.403-0.047,0.786-0.092,1.115-0.126
							c3.221-0.336,6.487-0.998,9.422-2.406c2.303-1.105,4.468-2.442,6.093-4.402c0.029-0.158,0.054-0.315,0.109-0.478
							c0.434-1.281,0.965-2.409,1.608-3.494C294.308,173.2,293.868,173.157,293.439,173.12z"/>
						<path style="fill:#BF6237;" d="M293.274,160.546c-0.979,2.665-2.238,5.101-3.791,6.632c-1.619,1.612-3.224,2.51-4.645,3.003
							c-0.928,0.324-1.781,0.471-2.496,0.53v-2.915c0.847,0.066,2.179,0.022,3.747-0.53c1.421-0.486,3.025-1.391,4.652-2.996
							C291.699,163.321,292.545,162.025,293.274,160.546z"/>
					</g>
					<g>
						<path style="fill:#F5AD49;" d="M327.415,297.765c-0.773,0.199-2.142,0.515-3.953,0.92c-9.732,2.149-32.264,6.669-44.38,7.28
							c-1.45,0.074-2.761,0.096-3.872,0.044l-1.126-81.554c0,0-1.104-6.699-2.253-13.596c-1.111-6.618-2.267-13.419-2.54-14.686
							c-0.567-2.584-1.082-4.233,3.43-13.162c4.505-8.922,9.68-9.098,9.68-9.098c-3.916,0.795-8.164,7.81-8.164,7.81
							s9.054-2.503,12.411-6.007c3.364-3.511,7.42-2.768,7.42-2.768c3.43,0.611,5.631,2.576,7.037,4.741
							c1.884,2.908,2.473,6.478,1.848,9.886c-0.743,4.049-1.163,9.275-1.384,14.214c-0.383,8.127-0.258,15.473-0.258,15.473
							c13.515,13.294,10.924,34.193,10.924,34.193L327.415,297.765z"/>
						<g>
							<g>
								<path style="fill:#C2612D;" d="M292.582,202.603c-0.602,4.177-1.114,8.367-1.426,12.571c-0.164,2.1-0.272,4.205-0.275,6.306
									c-0.006,0.526-0.001,1.05,0.026,1.574c0.016,0.524,0.035,1.048,0.09,1.567l0.068,0.78c0.034,0.259,0.084,0.516,0.125,0.774
									c0.089,0.516,0.166,1.031,0.264,1.547c1.673,8.258,3.581,16.485,5.487,24.704l5.681,24.674l2.826,12.341l2.775,12.354
									c-2.124-8.17-4.151-16.364-6.152-24.565c-1.999-8.201-3.925-16.419-5.846-24.639l-2.766-12.357
									c-0.884-4.129-1.821-8.244-2.559-12.41c-0.091-0.522-0.162-1.051-0.244-1.577c-0.037-0.263-0.084-0.525-0.114-0.79
									l-0.057-0.797c-0.048-0.532-0.059-1.063-0.066-1.593c-0.018-0.531-0.015-1.061-0.001-1.591
									c0.038-2.119,0.176-4.23,0.381-6.334C291.232,210.939,291.817,206.754,292.582,202.603z"/>
							</g>
						</g>
						<path style="opacity:0.5;fill:#F5AD49;" d="M298.169,189.269l-8.635,26.471c0,0-0.001,0.001-0.002,0.003
							c-8.373,14.365-12.549,30.798-11.963,47.415l1.512,42.808c-1.45,0.074-2.761,0.096-3.872,0.044l-1.126-81.554
							c0,0-1.104-6.699-2.253-13.596l22.923-24.991L298.169,189.269z"/>
						<path style="opacity:0.5;fill:#F5AD49;" d="M327.415,297.765c-0.773,0.199-2.142,0.515-3.953,0.92l-15.238-47.642
							c3.32-14.759-10.055-31.447-10.055-31.447l3.401-17.807c-0.383,8.127-0.258,15.473-0.258,15.473
							c13.515,13.294,10.924,34.193,10.924,34.193L327.415,297.765z"/>
					</g>
				</g>
				<g>
					<g>
						<g>
							<g>
								<path style="fill:#67B38B;" d="M230.847,199.949c-2.288,0.417-3.267,0.91-5.282,2.075c-3.114-5.553-6.129-11.033-8.698-16.9
									c2.679-1.167,5.419-2.18,8.077-3.397C227.639,187.999,230.44,193.001,230.847,199.949z"/>
								<path style="fill:#80D4A9;" d="M225.481,200.018c-3.056-4.066-4.736-9.111-6.963-13.657c0.409-0.234,0.538-0.581,0.401-1.03
									c1.603-0.646,3.213-1.275,4.8-1.96c0.235,0.403,0.587,0.545,1.034,0.403c2.249,4.659,4.914,9.143,5.146,14.437
									c-0.449,0.123-0.614,0.454-0.643,0.897c-1.146,0.141-1.944,0.515-2.858,1.217
									C226.166,199.994,225.865,199.831,225.481,200.018z"/>
								<path style="fill:#67B38B;" d="M227.639,191.006c0.645,1.497-0.157,2.986-1.609,3.592c-1.452,0.607-3.025,0.125-3.653-1.347
									c-0.629-1.472-0.031-3.098,1.448-3.738C225.304,188.873,226.994,189.509,227.639,191.006z"/>
								<g>
									<g>
										<path style="fill:#80D4A9;" d="M226.518,191.165c0.181-0.068,0.341-0.141,0.514-0.211
											c0.064,0.148,0.129,0.295,0.191,0.443c-0.165,0.068-0.33,0.137-0.494,0.206c0.133,0.415,0.188,0.816,0.085,1.244
											c-0.216-0.006-0.431-0.012-0.647-0.01c0.077-0.338,0.062-0.647-0.031-0.981c-0.248,0.111-0.506,0.218-0.749,0.33
											c0.036,0.609,0.144,1.093-0.544,1.408c-0.51,0.233-1.08-0.073-1.365-0.578c-0.182,0.066-0.345,0.138-0.52,0.206
											c-0.061-0.148-0.124-0.295-0.186-0.443c0.169-0.067,0.339-0.133,0.508-0.199c-0.102-0.341-0.157-0.679-0.123-1.035
											c0.223-0.001,0.446-0.001,0.669,0c-0.018,0.27,0.002,0.53,0.068,0.793c0.257-0.105,0.523-0.208,0.764-0.335
											c-0.033-0.592-0.222-1.124,0.468-1.448C225.635,190.316,226.232,190.663,226.518,191.165z M224.736,192.489
											c-0.217,0.09-0.433,0.182-0.648,0.275c0.123,0.146,0.275,0.248,0.463,0.166
											C224.739,192.848,224.733,192.665,224.736,192.489z M225.483,191.249c-0.184,0.084-0.176,0.273-0.177,0.447
											c0.208-0.089,0.415-0.18,0.621-0.273C225.81,191.285,225.667,191.165,225.483,191.249z"/>
									</g>
								</g>
							</g>
							<g>
								<path style="fill:#67B38B;" d="M230.627,200.815c-2.316-0.214-3.391-0.004-5.646,0.576
									c-1.502-6.187-2.929-12.277-3.823-18.619c2.894-0.402,5.806-0.639,8.694-1.095
									C230.757,188.442,232.106,194.014,230.627,200.815z"/>
								<path style="fill:#80D4A9;" d="M225.44,199.436c-1.848-4.739-2.106-10.05-3.026-15.028c0.457-0.115,0.675-0.415,0.664-0.883
									c1.718-0.19,3.437-0.362,5.15-0.594c0.117,0.451,0.419,0.683,0.887,0.666c0.91,5.093,2.269,10.129,1.066,15.29
									c-0.466-0.002-0.714,0.272-0.861,0.69c-1.142-0.173-2.011-0.028-3.08,0.401C226.106,199.597,225.86,199.359,225.44,199.436z
									"/>
								<path style="fill:#67B38B;" d="M229.947,191.338c0.218,1.615-0.956,2.833-2.517,3.026c-1.561,0.193-2.947-0.695-3.155-2.282
									c-0.209-1.587,0.805-2.991,2.402-3.21C228.273,188.655,229.729,189.723,229.947,191.338z"/>
								<g>
									<g>
										<path style="fill:#80D4A9;" d="M228.824,191.19c0.193-0.016,0.366-0.044,0.552-0.064c0.021,0.159,0.045,0.319,0.065,0.479
											c-0.177,0.021-0.354,0.043-0.531,0.065c0.016,0.436-0.038,0.836-0.253,1.221c-0.206-0.064-0.412-0.128-0.62-0.184
											c0.165-0.305,0.234-0.606,0.234-0.953c-0.269,0.04-0.546,0.074-0.81,0.116c-0.129,0.596-0.156,1.092-0.903,1.209
											c-0.554,0.087-1.021-0.361-1.159-0.924c-0.194,0.015-0.369,0.04-0.556,0.058c-0.02-0.159-0.04-0.318-0.06-0.476
											c0.181-0.019,0.362-0.037,0.543-0.055c-0.006-0.355,0.032-0.696,0.161-1.029c0.215,0.059,0.43,0.12,0.645,0.18
											c-0.09,0.255-0.141,0.511-0.148,0.782c0.276-0.032,0.559-0.06,0.826-0.117c0.128-0.579,0.089-1.143,0.84-1.269
											C228.203,190.133,228.684,190.629,228.824,191.19z M226.752,191.984c-0.233,0.029-0.466,0.059-0.698,0.091
											c0.079,0.173,0.198,0.313,0.401,0.284S226.701,192.153,226.752,191.984z M227.804,190.991
											c-0.2,0.031-0.243,0.215-0.291,0.383c0.225-0.03,0.448-0.062,0.672-0.096C228.11,191.114,228.004,190.96,227.804,190.991z
											"/>
									</g>
								</g>
							</g>
							<g>
								<path style="fill:#67B38B;" d="M230.181,201.59c-2.173-0.83-3.265-0.918-5.592-0.967c0.22-6.363,0.487-12.612,1.335-18.96
									c2.895,0.393,5.764,0.949,8.667,1.288C233.64,189.709,233.438,195.439,230.181,201.59z"/>
								<path style="fill:#80D4A9;" d="M225.558,198.864c-0.502-5.062,0.679-10.246,1.135-15.288
									c0.471,0.012,0.762-0.217,0.877-0.672c1.706,0.28,3.408,0.578,5.12,0.816c-0.009,0.466,0.22,0.77,0.675,0.881
									c-0.495,5.15-0.544,10.366-3.094,15.012c-0.448-0.128-0.76,0.07-1.015,0.433c-1.053-0.474-1.929-0.569-3.074-0.443
									C226.156,199.198,225.983,198.903,225.558,198.864z"/>
								<path style="fill:#67B38B;" d="M232.079,192.28c-0.225,1.614-1.684,2.471-3.239,2.236c-1.556-0.235-2.65-1.463-2.424-3.047
									c0.227-1.585,1.581-2.664,3.178-2.444C231.191,189.245,232.305,190.666,232.079,192.28z"/>
								<g>
									<g>
										<path style="fill:#80D4A9;" d="M231.038,191.834c0.19,0.036,0.365,0.056,0.549,0.087
											c-0.022,0.159-0.043,0.319-0.067,0.478c-0.176-0.028-0.353-0.054-0.529-0.081c-0.102,0.424-0.262,0.795-0.572,1.108
											c-0.181-0.117-0.362-0.234-0.548-0.344c0.242-0.249,0.388-0.521,0.482-0.854c-0.27-0.034-0.546-0.076-0.811-0.107
											c-0.285,0.539-0.444,1.009-1.196,0.921c-0.557-0.066-0.886-0.623-0.867-1.202c-0.19-0.038-0.366-0.061-0.551-0.094
											c0.024-0.158,0.047-0.317,0.07-0.475c0.179,0.031,0.359,0.062,0.538,0.093c0.09-0.344,0.218-0.662,0.432-0.948
											c0.191,0.115,0.382,0.231,0.572,0.347c-0.155,0.222-0.273,0.454-0.354,0.713c0.274,0.044,0.555,0.093,0.827,0.11
											c0.279-0.523,0.393-1.076,1.151-0.995C230.725,190.65,231.055,191.257,231.038,191.834z M228.829,192.041
											c-0.232-0.035-0.465-0.069-0.697-0.101c0.03,0.188,0.107,0.355,0.31,0.382C228.645,192.35,228.735,192.19,228.829,192.041
											z M230.11,191.369c-0.201-0.024-0.292,0.141-0.383,0.291c0.224,0.032,0.449,0.062,0.673,0.089
											C230.371,191.569,230.311,191.393,230.11,191.369z"/>
									</g>
								</g>
							</g>
						</g>
						<g>
							<path style="fill:#D4774C;" d="M288.504,208.813c-1.509,2.098-3.099,4.152-4.748,6.154c-0.118,0.155-0.25,0.309-0.375,0.464
								c-1.59,1.929-4.336,4.954-6.75,7.56c-2.856,3.092-7.354,4.005-11.189,2.274c-2.54-1.148-5.285-2.407-7.103-3.29
								c-4.888-2.392-9.57-5.175-14.229-8.083c-4.66-2.9-9.283-5.926-14.045-8.789c-1.362-0.773-3.313-2.024-3.313-2.024
								c-1.421-0.258-1.443-1.774-1.443-1.774c-1.089-0.051-1.06-1.222-1.06-1.222c-1.531-0.538-0.839-1.929-0.839-1.929
								s1.877,0.743,1.936,0.523c0.051-0.221-4.829-3.283-3.659-3.703c1.17-0.427,6.397,2.68,8.377,2.841
								c1.98,0.162,2.319-1.649,2.319-1.649l0.427-1.612c0,0,0.817,0.633,1.097,1.362c0.28,0.721-0.206,3.393-0.206,3.393
								c10.512,4.1,21.583,8.443,32.301,11.697c1.354-2.039,2.635-4.026,3.887-5.985c1.678-2.628,3.29-5.219,4.925-7.847
								c1.413,1.347,2.871,2.657,4.343,3.946C282.195,203.778,285.309,206.347,288.504,208.813z"/>
							<path style="fill:#BF6237;" d="M288.504,208.813c-1.509,2.098-3.099,4.152-4.748,6.154
								c-6.426-1.428-11.226-6.478-13.868-9.945c1.678-2.628,3.29-5.219,4.925-7.847c1.413,1.347,2.871,2.657,4.343,3.946
								C282.195,203.778,285.309,206.347,288.504,208.813z"/>
						</g>
					</g>
					<g>
						<path style="fill:#F5AD49;" d="M271.731,199.978l14.566-21.286c0,0,11.539-5.262,14.368,7.8l-13.313,24.997
							C287.352,211.488,276.994,209.612,271.731,199.978z"/>
						<g>
							<g>
								<g>
									<path style="fill:#C2612D;" d="M272.428,200.997c-0.26-0.321-0.519-0.642-0.769-0.97l-0.033-0.044l0.034-0.056
										c0.921-1.504,1.91-2.959,2.876-4.431c0.989-1.455,1.994-2.9,3.018-4.33c1.028-1.428,2.058-2.854,3.135-4.247
										c1.065-1.401,2.145-2.792,3.281-4.142c-0.904,1.516-1.864,2.992-2.838,4.458c-0.963,1.474-1.973,2.914-2.984,4.354
										c-1.016,1.436-2.051,2.859-3.102,4.27c-1.074,1.395-2.125,2.806-3.243,4.169l0.001-0.1
										C272.018,200.281,272.223,200.639,272.428,200.997z"/>
								</g>
								<g>
									<path style="fill:#C2612D;" d="M286.519,211.488c0.444,0.203,0.889,0.404,1.328,0.617l-0.112,0.036
										c0.898-2.074,1.868-4.111,2.815-6.161c0.973-2.037,1.962-4.065,2.973-6.082c1.016-2.015,2.033-4.029,3.103-6.017
										c1.057-1.995,2.129-3.981,3.265-5.936c-0.878,2.083-1.82,4.135-2.777,6.18c-0.944,2.051-1.94,4.075-2.938,6.099
										c-1.003,2.022-2.027,4.032-3.068,6.035c-1.067,1.99-2.11,3.991-3.226,5.956l-0.043,0.076l-0.069-0.041
										C287.349,212.003,286.934,211.745,286.519,211.488z"/>
								</g>
							</g>
						</g>
					</g>
				</g>
			</g>
			<g>
				<g>
					<path style="fill:#D4774C;" d="M269.141,154.979c0.269-0.981,0.935-1.859,1.54-2.704c0.375-0.523,0.743-1.094,0.99-1.691
						c0.399-4.948,1.585-9.673,2.273-11.036c1.077-2.125,6.877-4.038,12.583-2.967c5.711,1.032,10.441,4.891,10.692,7.262
						c0.094,0.9,0.521,4.496-2.526,13.333c-1.005,2.842-2.314,5.466-3.955,7.091c-1.623,1.606-3.229,2.51-4.646,3.001
						c-2.727,0.954-4.735,0.385-4.735,0.385l-1.088-0.201c0,0-2.621-0.234-5.103-2.811c-0.876-0.909-1.735-2.114-2.454-3.698
						c-0.493-1.098-0.81-2.415-0.989-3.855c-0.78-0.01-1.571-0.278-2.171-0.766C269.159,156.002,269.007,155.468,269.141,154.979z"
						/>
					<g>
						<g>
							<g>
								<g>
									<path style="fill:#BF6237;" d="M290.559,154.667c0.137-0.36,0.18-0.729,0.189-1.106c0.019-0.368,0.001-0.741-0.121-1.04
										c-0.23-0.614-1.015-0.672-1.561-0.304c-0.567,0.365-1.097,0.932-1.388,1.557c-0.29,0.646-0.356,1.415-0.445,2.175
										c-0.123-0.75-0.22-1.543,0.039-2.331c0.273-0.789,0.809-1.413,1.506-1.878c0.36-0.218,0.829-0.352,1.281-0.257
										c0.456,0.077,0.876,0.462,0.977,0.897c0.122,0.428,0.063,0.839-0.02,1.219
										C290.918,153.971,290.809,154.366,290.559,154.667z"/>
								</g>
								<g>
									<path style="fill:#BF6237;" d="M288.656,156.167c0.17-0.32,0.243-0.636,0.291-0.95c0.039-0.314,0.053-0.639,0.026-0.948
										c-0.018-0.307-0.091-0.594-0.241-0.823c-0.164-0.218-0.415-0.435-0.781-0.432c0.303-0.229,0.796-0.146,1.098,0.134
										c0.323,0.285,0.448,0.702,0.48,1.078c0.02,0.379-0.023,0.752-0.164,1.105C289.236,155.683,288.981,156.003,288.656,156.167
										z"/>
								</g>
							</g>
							<g>
								<g>
									<path style="fill:#BF6237;" d="M276.338,158.941c-0.157,0.285-0.425,0.466-0.701,0.612c-0.289,0.117-0.6,0.207-0.919,0.143
										c0.275-0.165,0.544-0.258,0.801-0.396C275.79,159.191,276.035,159.046,276.338,158.941z"/>
								</g>
								<g>
									<path style="fill:#BF6237;" d="M277.064,156.55c-0.29,0.912-0.981,1.679-1.83,2.158c-0.427,0.236-0.896,0.406-1.381,0.46
										c-0.48,0.081-0.971,0.013-1.425-0.107c0.933-0.174,1.776-0.394,2.534-0.839
										C275.731,157.801,276.402,157.222,277.064,156.55z"/>
								</g>
							</g>
							<g>
								<g>
									<path style="fill:#BF6237;" d="M274.07,156.43c-0.047,0.262-0.136,0.368-0.248,0.45c-0.121,0.069-0.254,0.105-0.512,0.038
										c-0.031-0.267,0.078-0.412,0.212-0.507C273.663,156.33,273.841,156.292,274.07,156.43z"/>
								</g>
							</g>
							<g>
								<g>
									<path style="fill:#5E2B13;" d="M274.821,152.303c0,0.799,0.484,1.446,1.081,1.446c0.597,0,1.081-0.648,1.081-1.446
										c0-0.799-0.484-1.446-1.081-1.446C275.305,150.857,274.821,151.504,274.821,152.303z"/>
									<g>
										<path style="fill:#5E2B13;" d="M274.395,150.678c0.035,0.031,0.154,0.121,0.266,0.15c0.117,0.039,0.249,0.059,0.381,0.071
											c0.269,0.019,0.55-0.004,0.829-0.043c0.241-0.034,0.464,0.135,0.498,0.376c0.033,0.241-0.135,0.464-0.376,0.497
											c-0.046,0.006-0.096,0.004-0.139-0.003c-0.321-0.055-0.642-0.128-0.957-0.253c-0.157-0.066-0.313-0.143-0.458-0.25
											c-0.143-0.118-0.283-0.223-0.351-0.479c-0.02-0.074,0.025-0.15,0.099-0.17c0.047-0.012,0.094,0,0.128,0.03
											L274.395,150.678z"/>
									</g>
								</g>
							</g>
							<g>
								<g>
									<path style="fill:#5E2B13;" d="M274.382,148.094c0.358-0.03,0.801-0.059,1.205-0.042c0.413,0.004,0.826,0.043,1.238,0.104
										c0.413,0.059,0.817,0.169,1.22,0.298c0.406,0.125,0.792,0.307,1.193,0.487l0.018,0.008c0.142,0.063,0.308,0,0.371-0.141
										c0.051-0.113,0.02-0.242-0.066-0.322c-0.348-0.32-0.731-0.616-1.158-0.841c-0.417-0.249-0.879-0.408-1.345-0.546
										c-0.468-0.141-0.955-0.206-1.443-0.222c-0.497-0.003-0.961,0.024-1.486,0.177c-0.283,0.083-0.446,0.379-0.364,0.663
										c0.072,0.248,0.309,0.404,0.557,0.383L274.382,148.094z"/>
									<path style="fill:#5E2B13;" d="M273.428,147.159c-0.057,0.213,0.018,0.45,0.181,0.614c0.161,0.163,0.364,0.253,0.558,0.312
										l0.015,0.005c0.15,0.046,0.31-0.039,0.356-0.189c0.046-0.151-0.039-0.31-0.189-0.356c-0.034-0.011-0.071-0.014-0.105-0.012
										c-0.149,0.011-0.292,0.001-0.408-0.05c-0.058-0.025-0.111-0.061-0.151-0.113c-0.041-0.048-0.071-0.123-0.08-0.183
										l-0.003-0.019c-0.008-0.048-0.053-0.081-0.101-0.073C273.464,147.1,273.437,147.126,273.428,147.159z"/>
								</g>
							</g>
						</g>
						<circle style="fill:#D46C46;" cx="282.402" cy="160.725" r="4.95"/>
					</g>
				</g>
				<g>
					<path style="fill:#1A223B;" d="M280.267,167.45c0,0-2.621-0.235-5.101-2.812c-0.662-0.685-1.31-1.538-1.899-2.599
						c1.273,4.667,3.136,9.172,5.55,13.368c1.848-1.273,3.232-1.465,3.526-1.487v-6.124c-0.626-0.044-0.986-0.147-0.986-0.147
						L280.267,167.45z"/>
					<path style="fill:#1A223B;" d="M309.012,174.23c-2.849-3.254-6.264-6.22-7.847-10.247c-2.341-5.977-0.14-12.911-2.01-19.051
						c-1.369-4.505-5.013-8.252-9.474-9.754c-2.871-0.964-6.007-1.031-8.981-0.427c-2.819,0.567-5.646,1.818-7.361,4.13
						c-1.84,2.488-2.12,5.778-2.083,8.87c0.015,1.126,0.059,2.26,0.147,3.386c0.103-0.177,0.191-0.368,0.265-0.552
						c0.165-2.012,0.459-3.983,0.796-5.711c3.324,0.989,7.214,0.458,10.234-1.231c-0.742,1.668-0.871,3.602-0.356,5.354
						c0.515,1.752,1.668,3.309,3.195,4.312c0.848-0.828,1.579-1.949,2.681-2.385c1.102-0.436,2.496-0.358,3.309,0.505
						c0.794,0.843,0.809,2.207,0.316,3.255c-0.493,1.048-1.398,1.84-2.319,2.542c0.122,1.541,0.771,3.079,1.759,4.268
						c0.598,0.72,1.335,1.323,2.153,1.778v9.618c0.397,0.015,0.633,0.059,0.633,0.059c2.738,0.486,4.696,1.84,6.088,3.475
						c0.582,0.287,1.141,0.648,1.678,1.089l0.155,0.132c2.238,1.884,5.72,7.317,8.936,12.882c1.259-1.281,2.194-2.841,2.554-4.601
						C314.364,181.687,311.868,177.491,309.012,174.23z"/>
				</g>
			</g>
		</g>
	</g>
	<g>
		
			<radialGradient id="SVGID_00000163787629295425998390000013026519614130350777_" cx="169.632" cy="406.1989" r="51.9967" gradientTransform="matrix(1 0 0 0.0713 0 377.2195)" gradientUnits="userSpaceOnUse">
			<stop  offset="0.4081" style="stop-color:#9C9C9C"/>
			<stop  offset="1" style="stop-color:#FFFFFF;stop-opacity:0"/>
		</radialGradient>
		<path style="opacity:0.5;fill:url(#SVGID_00000163787629295425998390000013026519614130350777_);" d="M220.659,406.199
			c0,2.38-22.846,4.309-51.027,4.309c-28.181,0-51.027-1.929-51.027-4.309c0-2.38,22.845-4.309,51.027-4.309
			C197.813,401.89,220.659,403.819,220.659,406.199z"/>
		<g>
			<g>
				<g>
					<g>
						<polygon style="fill:#1C2540;" points="202.754,396.016 185.699,396.016 153.155,300.711 154.657,240.622 175.268,234.137 
							182.136,274.601 						"/>
						<path style="opacity:0.5;fill:#1C2540;" d="M190.145,396.016h-4.446l-32.544-95.305l1.502-60.089l20.611-6.485l6.868,40.464v0
							c-10.582,26.2-11.911,55.225-3.768,82.283L190.145,396.016z"/>
					</g>
					<g>
						<path style="fill:#E6E6E6;" d="M186.923,397.272c0,0-2.255,3.563,0,8.359h27.393c0,0,0.893-1.546,0-2.345
							c-0.893-0.799-9.956-1.047-13.999-7.266h-13.581L186.923,397.272z"/>
						<rect x="186.469" y="405.103" style="fill:#A9C0C4;" width="28.244" height="1.096"/>
					</g>
				</g>
				<g>
					<path style="fill:#28365D;" d="M137.963,235.827c0,0-2.882,11.325-0.783,20.04l0.689,68.34l-5.168,71.812h16.068
						l21.706-139.049l4.795-22.835L137.963,235.827z"/>
					<g>
						<path style="fill:#E6E6E6;" d="M134.204,397.272c0,0-2.255,3.563,0,8.359h27.393c0,0,0.893-1.546,0-2.345
							c-0.893-0.799-9.956-1.047-13.999-7.266h-13.582L134.204,397.272z"/>
						<rect x="133.75" y="405.103" style="fill:#A9C0C4;" width="28.244" height="1.096"/>
					</g>
				</g>
			</g>
			<g>
				<g>
					<g>
						<path style="fill:#EBAF7F;" d="M156.798,179.59c2.87,2.419,6.76,5.806,10.626,6.376c2.01,0.296,3.495-0.304,4.652-1.418
							c0.099-0.263,0.203-0.526,0.303-0.789c-0.535-0.805-1.098-1.661-1.69-2.615c-1.588-2.558-2.903-4.551-5.024-5.705v-17.889
							h-10.598v16.605c-0.999,0.058-2.064,0.157-3.181,0.292C153.325,176.276,154.893,177.984,156.798,179.59z"/>
						<path style="fill:#E48855;" d="M165.661,168.924v2.974c-0.375-0.081-0.773-0.191-1.185-0.339
							c-1.413-0.493-3.018-1.391-4.645-3.003c-0.692-0.685-1.332-1.553-1.914-2.547c1.406,1.229,2.768,1.965,3.997,2.385
							C163.483,168.946,164.815,168.99,165.661,168.924z"/>
					</g>
					<g>
						<path style="fill:#FF4846;" d="M176.666,224.368c-0.486,6.846-0.898,11.991-0.898,11.991s-3.784,0.78-9.496,1.347
							c-0.25,0.022-0.501,0.051-0.758,0.074c-7.692,0.714-18.535,0.986-28.333-1.421l5.072-21.237l1.671-15.208l2.716-24.763
							c0,0,4.387-1.516,8.428-1.075c0,0,8.208,6.691,10.563,6.124c0.007,0,0.022-0.007,0.029-0.007
							c0.302-0.081,0.523-0.221,0.677-0.405c0.714-0.802,0.191-2.429-0.243-3.452c-0.228-0.53-0.434-0.898-0.434-0.898
							s0.147,0.029,0.375,0.103c0.537,0.147,1.531,0.493,2.098,1.031c0.81,0.773,8.326,11.55,9.702,14.178
							C178.742,192.472,177.579,211.442,176.666,224.368z"/>
						<path style="fill:#FF814F;" d="M154.737,174.369c0,0-0.564-5.059,0.047-5.106c0.611-0.047,9.021,3.469,9.632,4.734
							c0.611,1.264,1.512,6.092,1.512,6.092S163.351,181.965,154.737,174.369z"/>
						<path style="fill:#FF814F;" d="M165.928,180.089l-0.327-6.331l0.06-1.861c0,0,2.467,0.827,3.078,1.626
							c0.611,0.799,0.408,4.333,0.408,4.333S168.794,179.948,165.928,180.089z"/>
						<g>
							<path style="fill:#FF814F;" d="M166.272,237.707c-0.25,0.022-0.501,0.051-0.758,0.074
								c2.628-14.185,0.905-45.624,0.118-57.579c0.007,0,0.022-0.007,0.029-0.007c0.302-0.081,0.523-0.221,0.677-0.405
								C167.112,191.42,168.886,223.176,166.272,237.707z"/>
						</g>
						<path style="opacity:0.5;fill:#871A1A;" d="M176.666,224.368c-0.486,6.846-0.898,11.991-0.898,11.991s-3.784,0.78-9.496,1.347
							c-0.25,0.022-0.501,0.051-0.758,0.074c-7.692,0.714-18.535,0.986-28.333-1.421l5.072-21.237l1.671-15.208
							c2.12-0.758,4.321-1.237,6.522-1.384c0.353,7.898,4.365,15.554,10.659,20.346C165.551,222.263,171.079,224.17,176.666,224.368
							z"/>
					</g>
				</g>
				<g>
					<g>
						<polygon style="fill:#C7762F;" points="219.154,213.222 219.154,216.866 164.718,216.866 173.547,213.889 175.522,213.222 
													"/>
						<g>
							<rect x="164.718" y="216.866" style="fill:#F5AD49;" width="47.271" height="45.073"/>
							<g>
								<g>
									<rect x="166.853" y="254.835" style="fill:#C7762F;" width="19.865" height="2.766"/>
									<rect x="166.853" y="251.629" style="fill:#C7762F;" width="13.327" height="2.012"/>
								</g>
							</g>
							<path style="fill:#C7762F;" d="M208.343,223.372c0,1.996-1.618,3.615-3.615,3.615c-1.996,0-3.615-1.618-3.615-3.615
								c0-1.996,1.618-3.615,3.615-3.615C206.725,219.757,208.343,221.376,208.343,223.372z"/>
							
								<rect x="164.718" y="216.866" transform="matrix(-1 -1.224647e-16 1.224647e-16 -1 331.5713 478.8044)" style="opacity:0.5;fill:#F5AD49;" width="2.135" height="45.073"/>
						</g>
						<g>
							<polygon style="fill:#E38C3B;" points="219.154,213.222 219.154,257.792 211.989,261.941 211.989,216.866 213.904,215.895 
															"/>
							<path style="opacity:0.5;fill:#E38C3B;" d="M219.154,249.434v8.358l-7.164,4.149v-45.075l1.914-0.971
								c-0.184,6.855,0.114,13.716,0.895,20.528c0.369,3.211,0.862,6.459,2.164,9.415
								C217.527,247.124,218.259,248.35,219.154,249.434z"/>
						</g>
						<path style="opacity:0.5;fill:#C7762F;" d="M219.154,213.222v0.504c-20.468,2.63-37.759,1.155-45.606,0.163l1.974-0.667
							H219.154z"/>
					</g>
					<g>
						<path style="fill:#EBAF7F;" d="M172.502,257.663c0,0,3.708,0.279,3.929-0.253c0.221-0.533-3.467-1.719-3.467-1.719
							l-3.202-2.113c-2.136-2.547-4.308-5.134-6.477-7.748c-0.146,0.097-0.29,0.196-0.436,0.292
							c-1.621,1.362-3.407,2.584-5.284,3.744c-0.674,0.622-1.367,1.241-2.076,1.845c2.766,2.453,5.581,4.887,8.454,7.324
							c0.98,1.404,3.337,4.207,3.337,4.207c1.157,0.257,2.481,0.056,2.481,0.056c1.101,0.094,2.585-0.233,2.585-0.233
							c1.18,0.143,1.939-0.645,1.939-0.645c2.931,0.658,4.524-0.564,4.524-0.564h-2.139L172.502,257.663z"/>
						<g>
							<path style="fill:#FF4846;" d="M169.629,250.957l-1.59,1.325l-5.624,4.667l-1.332,1.104c0,0-30.829-27.487-32.139-32.19
								c-0.552-1.951-0.199-5.764,0.39-9.548c0.898-5.705,2.341-11.307,4.188-16.776c2.415-7.14,6.456-18.322,9.238-21.826
								c0.125-0.162,0.25-0.309,0.368-0.434c0.155-0.155,0.309-0.302,0.464-0.442c5.815-5.226,14.987-0.221,14.281,7.56
								c-0.147,1.649-0.523,2.657-0.523,2.657l-0.729,2.282l-0.022,0.052l-1.656,5.167l-8.053,27.553L169.629,250.957z"/>
							<polygon style="opacity:0.5;fill:#871A1A;" points="169.629,250.957 168.039,252.282 142.003,221.196 144.012,219.819 
								141.002,215.042 146.015,216.867 156.6,189.388 154.944,194.556 146.891,222.109 							"/>
							<path style="opacity:0.5;fill:#FF7A46;" d="M162.415,256.949l-1.332,1.104c0,0-30.829-27.487-32.139-32.19
								c-0.552-1.951-0.199-5.764,0.39-9.548c0.898-5.705,2.341-11.307,4.188-16.776c2.415-7.14,6.456-18.322,9.238-21.826
								c-2.657,8.23-13.876,43.387-12.691,47.31C131.292,229.057,157.645,252.694,162.415,256.949z"/>
							<g>
								<g>
									<g>
										<path style="fill:#911B1A;" d="M159.641,238.282c-1.338-1.444-2.613-2.938-3.878-4.44
											c-1.272-1.497-2.498-3.029-3.725-4.562c-1.213-1.543-2.424-3.088-3.591-4.668l-1.748-2.372
											c-0.562-0.807-1.143-1.599-1.687-2.42c0.675,0.717,1.313,1.464,1.97,2.196l1.909,2.244
											c1.271,1.497,2.498,3.029,3.724,4.563c1.212,1.544,2.424,3.089,3.59,4.669
											C157.377,235.067,158.541,236.649,159.641,238.282z"/>
									</g>
									<g>
										<path style="fill:#911B1A;" d="M156.619,189.339c-0.649,2.771-1.376,5.518-2.115,8.263
											c-0.737,2.745-1.537,5.472-2.303,8.208c-0.823,2.72-1.615,5.449-2.466,8.161l-1.291,4.063
											c-0.456,1.347-0.888,2.701-1.366,4.042c0.317-1.387,0.681-2.761,1.02-4.143l1.094-4.121
											c0.739-2.744,1.537-5.472,2.304-8.208c0.825-2.72,1.614-5.449,2.468-8.16
											C154.815,194.733,155.679,192.025,156.619,189.339z"/>
									</g>
								</g>
							</g>
						</g>
					</g>
				</g>
			</g>
			<g>
				<g>
					<g>
						<path style="fill:#EBAF7F;" d="M178.863,156.107c-0.269-0.981-0.935-1.859-1.54-2.704c-0.375-0.524-0.743-1.094-0.99-1.691
							c-0.399-4.948-1.585-9.673-2.273-11.036c-1.077-2.125-6.877-4.038-12.583-2.967c-5.711,1.032-10.441,4.891-10.692,7.262
							c-0.094,0.9-0.52,4.496,2.526,13.333c1.005,2.842,2.314,5.466,3.955,7.091c1.623,1.606,3.229,2.51,4.646,3.001
							c2.727,0.954,4.735,0.385,4.735,0.385l1.087-0.201c0,0,2.621-0.234,5.103-2.811c0.876-0.909,1.735-2.114,2.454-3.698
							c0.493-1.098,0.81-2.415,0.989-3.855c0.78-0.01,1.571-0.278,2.171-0.766C178.845,157.13,178.997,156.596,178.863,156.107z"/>
						<g>
							<g>
								<g>
									<g>
										<path style="fill:#E48855;" d="M157.445,155.794c-0.249-0.301-0.358-0.695-0.458-1.067
											c-0.079-0.381-0.131-0.79-0.017-1.218c0.096-0.437,0.519-0.821,0.974-0.898c0.452-0.095,0.921,0.039,1.281,0.257
											c0.696,0.466,1.236,1.088,1.503,1.88c0.25,0.789,0.172,1.579,0.042,2.33c-0.097-0.759-0.144-1.531-0.442-2.176
											c-0.296-0.623-0.822-1.192-1.391-1.556c-0.547-0.368-1.329-0.308-1.564,0.303c-0.13,0.298-0.142,0.674-0.118,1.041
											C157.265,155.066,157.308,155.434,157.445,155.794z"/>
									</g>
									<g>
										<path style="fill:#E48855;" d="M159.348,157.295c-0.332-0.162-0.569-0.489-0.706-0.837
											c-0.147-0.352-0.185-0.726-0.167-1.104c0.033-0.375,0.155-0.795,0.482-1.076c0.305-0.271,0.788-0.371,1.096-0.136
											c-0.361,0.003-0.623,0.203-0.783,0.429c-0.146,0.233-0.222,0.517-0.239,0.825
											C158.994,156.03,159.025,156.657,159.348,157.295z"/>
									</g>
								</g>
								<g>
									<g>
										<path style="fill:#E48855;" d="M171.666,160.068c0.302,0.105,0.548,0.25,0.818,0.359c0.258,0.137,0.526,0.231,0.801,0.396
											c-0.319,0.063-0.63-0.026-0.919-0.143C172.091,160.534,171.823,160.352,171.666,160.068z"/>
									</g>
									<g>
										<path style="fill:#E48855;" d="M170.94,157.677c0.66,0.674,1.332,1.253,2.102,1.671c0.377,0.221,0.781,0.387,1.201,0.524
											c0.42,0.151,0.865,0.211,1.333,0.315c-0.455,0.128-0.944,0.177-1.425,0.104c-0.486-0.047-0.955-0.221-1.382-0.456
											c-0.423-0.243-0.813-0.546-1.121-0.92C171.339,158.547,171.076,158.137,170.94,157.677z"/>
									</g>
								</g>
								<g>
									<g>
										<path style="fill:#E48855;" d="M173.934,157.558c0.116-0.074,0.212-0.087,0.305-0.088c0.096-0.006,0.171,0.03,0.244,0.068
											c0.066,0.05,0.13,0.103,0.165,0.193c0.038,0.085,0.066,0.177,0.047,0.315c-0.133,0.037-0.222,0.035-0.305,0.028
											c-0.086-0.002-0.146-0.034-0.207-0.066c-0.054-0.043-0.109-0.084-0.146-0.162
											C173.995,157.773,173.956,157.694,173.934,157.558z"/>
									</g>
								</g>
								<g>
									<g>
										<path style="fill:#5E2B13;" d="M173.183,153.43c0,0.799-0.484,1.446-1.081,1.446c-0.597,0-1.081-0.648-1.081-1.446
											c0-0.799,0.484-1.446,1.081-1.446C172.699,151.984,173.183,152.632,173.183,153.43z"/>
									</g>
								</g>
								<g>
									<g>
										<path style="fill:#5E2B13;" d="M173.622,149.222c-0.358-0.03-0.801-0.059-1.205-0.042
											c-0.413,0.004-0.826,0.043-1.238,0.104c-0.413,0.059-0.817,0.169-1.22,0.297c-0.406,0.125-0.792,0.307-1.194,0.487
											l-0.018,0.008c-0.141,0.064-0.308,0-0.371-0.141c-0.051-0.113-0.02-0.242,0.066-0.322c0.348-0.32,0.731-0.616,1.158-0.841
											c0.417-0.249,0.879-0.408,1.345-0.546c0.467-0.141,0.955-0.206,1.443-0.222c0.497-0.003,0.961,0.024,1.486,0.177
											c0.283,0.083,0.446,0.379,0.364,0.663c-0.072,0.248-0.309,0.404-0.557,0.383L173.622,149.222z"/>
										<path style="fill:#5E2B13;" d="M174.575,148.287c0.057,0.213-0.018,0.45-0.18,0.614c-0.161,0.163-0.364,0.253-0.558,0.312
											l-0.015,0.005c-0.15,0.046-0.31-0.039-0.356-0.189c-0.046-0.151,0.039-0.31,0.189-0.356
											c0.035-0.011,0.071-0.014,0.105-0.012c0.149,0.011,0.292,0.001,0.408-0.05c0.058-0.025,0.11-0.061,0.151-0.113
											c0.041-0.048,0.071-0.123,0.08-0.183l0.003-0.019c0.008-0.048,0.053-0.081,0.101-0.073
											C174.54,148.228,174.567,148.254,174.575,148.287z"/>
									</g>
								</g>
							</g>
							<path style="fill:#E9A770;" d="M170.552,161.853c0,2.734-2.216,4.95-4.95,4.95c-2.734,0-4.95-2.216-4.95-4.95
								c0-2.734,2.216-4.95,4.95-4.95C168.335,156.903,170.552,159.119,170.552,161.853z"/>
						</g>
					</g>
					<path style="fill:#5E2B13;" d="M164.674,146.029c0.359,3.352-0.673,6.832-2.802,9.446c-0.201-1.564-1.398-2.953-2.899-3.437
						c-0.737-0.238-1.608-0.245-2.223,0.226c-0.747,0.572-0.887,1.659-0.709,2.583c0.309,1.596,1.42,3.016,2.895,3.699
						c-0.234,1.01-0.796,2.086-1.251,3.018c-0.455,0.932-1.153,1.781-2.092,2.221c-2.745-3.288-4.335-7.408-4.163-11.688
						c0.091-2.252-0.536-4.699,0.359-6.767c0.895-2.068,2.496-3.786,4.376-5.029c1.879-1.243,4.03-2.033,6.225-2.543
						c0.68-0.158,1.376-0.291,2.073-0.25c0.697,0.041,1.404,0.273,1.905,0.76c0.639,0.622,0.857,1.564,0.874,2.455
						C167.281,142.876,166.362,144.695,164.674,146.029z"/>
				</g>
				<g>
					<path style="fill:#FF814F;" d="M157.729,136.812c0,0-0.893-0.564-0.125-1.19c0.768-0.626,2.208-0.486,1.989,0.501
						L157.729,136.812z"/>
					<path style="fill:#FF4846;" d="M151.401,154.101c0,0-4.511-9.333,2.882-15.348s19.17-4.072,21.293,4.072l-8.325,4.573
						L151.401,154.101z"/>
					<path style="fill:#C42C2B;" d="M158.93,136.157c0,0,8.822,4.617,8.118,11.289l10.29-4.229
						C177.338,143.217,172.802,131.305,158.93,136.157z"/>
					<path style="fill:#5E2B13;" d="M150.16,149.609c0,0,0.637-0.597,1.518-0.166c0.489,0.24,0.82,0.717,0.957,1.245l0.27,1.035
						l-2.066,0.908C150.838,152.63,150.141,150.871,150.16,149.609z"/>
					<path style="fill:#FF814F;" d="M161.474,149.842c0,0,14.987-6.114,15.003-8.303c0,0,7.094-2.879,9.538,0.222
						c2.443,3.101-26.616,8.959-26.616,8.959L161.474,149.842z"/>
				</g>
			</g>
		</g>
	</g>
</g>
</svg>
