<svg width="20" height="21" viewBox="0 0 20 21" fill="none" xmlns="http://www.w3.org/2000/svg">
<path d="M17.1991 8.79662V7.01156C17.1988 6.69852 17.1155 6.39108 16.9575 6.12006C16.7995 5.84905 16.5725 5.624 16.2991 5.46748L9.9995 1.89736C9.72588 1.74068 9.4155 1.6582 9.09955 1.6582C8.7836 1.6582 8.47322 1.74068 8.1996 1.89736L1.89995 5.46748C1.6266 5.624 1.39956 5.84905 1.2416 6.12006C1.08364 6.39108 1.00032 6.69852 1 7.01156V14.1518C1.00032 14.4648 1.08364 14.7723 1.2416 15.0433C1.39956 15.3143 1.6266 15.5394 1.89995 15.6959L8.1996 19.266C8.47322 19.4227 8.7836 19.5052 9.09955 19.5052C9.4155 19.5052 9.72588 19.4227 9.9995 19.266L11.7994 18.2485M5.04977 3.68242L13.1493 8.27895" stroke="white" stroke-width="2" stroke-linecap="round" stroke-linejoin="round"/>
<path d="M1.26074 6.11914L9.09931 10.5818M9.09931 10.5818L16.9379 6.11914M9.09931 10.5818V19.5071M13.5991 11.4743L18.0988 15.937M13.5991 15.937L18.0988 11.4743" stroke="white" stroke-width="2" stroke-linecap="round" stroke-linejoin="round"/>
</svg>
