<svg width="27" height="26" viewBox="0 0 27 26" fill="none" xmlns="http://www.w3.org/2000/svg">
<path d="M16.9 22.1491H20.8C21.4896 22.1491 22.1509 21.8962 22.6385 21.4461C23.1261 20.996 23.4 20.3856 23.4 19.7491V16.1491C23.4 15.8308 23.537 15.5256 23.7808 15.3005C24.0246 15.0755 24.3552 14.9491 24.7 14.9491C25.0448 14.9491 25.3754 15.0755 25.6192 15.3005C25.863 15.5256 26 15.8308 26 16.1491V19.7491C26 21.0221 25.4521 22.243 24.477 23.1432C23.5018 24.0434 22.1791 24.5491 20.8 24.5491H5.2C3.82087 24.5491 2.49823 24.0434 1.52304 23.1432C0.547856 22.243 0 21.0221 0 19.7491V16.1491C0 15.8308 0.136964 15.5256 0.380761 15.3005C0.624558 15.0755 0.955218 14.9491 1.3 14.9491C1.64478 14.9491 1.97544 15.0755 2.21924 15.3005C2.46304 15.5256 2.6 15.8308 2.6 16.1491V19.7491C2.6 20.3856 2.87393 20.996 3.36152 21.4461C3.84912 21.8962 4.51044 22.1491 5.2 22.1491H9.1C9.44478 22.1491 9.77544 22.2755 10.0192 22.5005C10.263 22.7256 10.4 23.0308 10.4 23.3491C10.4 23.6673 10.263 23.9726 10.0192 24.1976C9.77544 24.4226 9.44478 24.5491 9.1 24.5491H16.9C16.5552 24.5491 16.2246 24.4226 15.9808 24.1976C15.737 23.9726 15.6 23.6673 15.6 23.3491C15.6 23.0308 15.737 22.7256 15.9808 22.5005C16.2246 22.2755 16.5552 22.1491 16.9 22.1491ZM2.6 8.94907C2.6 9.26733 2.46304 9.57256 2.21924 9.7976C1.97544 10.0226 1.64478 10.1491 1.3 10.1491C0.955218 10.1491 0.624558 10.0226 0.380761 9.7976C0.136964 9.57256 0 9.26733 0 8.94907V5.34907C0 4.07603 0.547856 2.85513 1.52304 1.95496C2.49823 1.05479 3.82087 0.549072 5.2 0.549072L9.1 0.549072C9.44478 0.549072 9.77544 0.6755 10.0192 0.900544C10.263 1.12559 10.4 1.43081 10.4 1.74907C10.4 2.06733 10.263 2.37256 10.0192 2.5976C9.77544 2.82264 9.44478 2.94907 9.1 2.94907H5.2C4.51044 2.94907 3.84912 3.20193 3.36152 3.65202C2.87393 4.1021 2.6 4.71255 2.6 5.34907V8.94907ZM23.4 8.94907V5.34907C23.4 4.71255 23.1261 4.1021 22.6385 3.65202C22.1509 3.20193 21.4896 2.94907 20.8 2.94907H16.9C16.5552 2.94907 16.2246 2.82264 15.9808 2.5976C15.737 2.37256 15.6 2.06733 15.6 1.74907C15.6 1.43081 15.737 1.12559 15.9808 0.900544C16.2246 0.6755 16.5552 0.549072 16.9 0.549072L20.8 0.549072C22.1791 0.549072 23.5018 1.05479 24.477 1.95496C25.4521 2.85513 26 4.07603 26 5.34907V8.94907C26 9.26733 25.863 9.57256 25.6192 9.7976C25.3754 10.0226 25.0448 10.1491 24.7 10.1491C24.3552 10.1491 24.0246 10.0226 23.7808 9.7976C23.537 9.57256 23.4 9.26733 23.4 8.94907Z" fill="#FF981A"/>
</svg>
