<svg width="18" height="18" viewBox="0 0 18 18" fill="none" xmlns="http://www.w3.org/2000/svg">
<path d="M16.0369 5.07399V6.73214C16.0369 7.81473 15.3517 8.49992 14.2691 8.49992H11.9258V3.71047C11.9258 2.94992 12.5493 2.33325 13.3099 2.33325C14.0567 2.3401 14.7419 2.64159 15.2352 3.13492C15.7286 3.6351 16.0369 4.32029 16.0369 5.07399Z" stroke="white" stroke-width="1.5" stroke-miterlimit="10" stroke-linecap="round" stroke-linejoin="round"/>
<path d="M2.3335 5.75918V15.3518C2.3335 15.9205 2.97755 16.2425 3.42978 15.8999L4.60146 15.0229C4.87553 14.8173 5.25924 14.8447 5.50591 15.0914L6.6433 16.2357C6.91052 16.5029 7.34907 16.5029 7.61629 16.2357L8.7674 15.0845C9.00721 14.8447 9.39091 14.8173 9.65813 15.0229L10.8298 15.8999C11.282 16.2357 11.9261 15.9136 11.9261 15.3518V3.70362C11.9261 2.94992 12.5428 2.33325 13.2965 2.33325H5.75942H5.07424C3.01868 2.33325 2.3335 3.55973 2.3335 5.07399V5.75918Z" stroke="white" stroke-width="1.5" stroke-miterlimit="10" stroke-linecap="round" stroke-linejoin="round"/>
<path d="M5.07422 7.12964H9.18533" stroke="white" stroke-width="1.5" stroke-linecap="round" stroke-linejoin="round"/>
<path d="M5.58789 9.87036H8.67122" stroke="white" stroke-width="1.5" stroke-linecap="round" stroke-linejoin="round"/>
</svg>
