<svg width="31" height="33" viewBox="0 0 31 33" fill="none" xmlns="http://www.w3.org/2000/svg">
<path fill-rule="evenodd" clip-rule="evenodd" d="M15.6571 0.285278C14.8168 0.285278 14.0433 0.507498 13.1974 0.880827C12.3794 1.2423 11.4295 1.77415 10.2476 2.43637L7.37543 4.04375C5.92409 4.8556 4.76441 5.50596 3.86583 6.14447C2.93808 6.80669 2.22144 7.50297 1.70063 8.44667C1.1812 9.3874 0.947876 10.4066 0.83538 11.62C0.727051 12.7977 0.727051 14.2451 0.727051 16.0673V16.3547C0.727051 18.1769 0.727051 19.6243 0.83538 20.8021C0.947876 22.0169 1.18259 23.0347 1.70063 23.9754C2.22144 24.9191 2.9367 25.6154 3.86722 26.2776C4.76302 26.9161 5.92409 27.5665 7.37543 28.3783L10.2476 29.9857C11.4295 30.6479 12.3794 31.1797 13.1974 31.5412C14.0446 31.9146 14.8168 32.1368 15.6571 32.1368C16.4973 32.1368 17.2709 31.9146 18.1167 31.5412C18.9347 31.1797 19.8847 30.6479 21.0666 29.9857L23.9387 28.3798C25.3901 27.5665 26.5498 26.9161 27.447 26.2776C28.3775 25.6154 29.0927 24.9191 29.6135 23.9754C30.133 23.0347 30.3663 22.0154 30.4788 20.8021C30.5871 19.6243 30.5871 18.1769 30.5871 16.3562V16.0658C30.5871 14.2451 30.5871 12.7977 30.4788 11.62C30.3663 10.4052 30.1316 9.3874 29.6135 8.44667C29.0927 7.50297 28.3775 6.80669 27.447 6.14447C26.5511 5.50596 25.3901 4.8556 23.9387 4.04375L21.0666 2.43637C19.8847 1.77415 18.9347 1.2423 18.1167 0.880827C17.2695 0.507498 16.4973 0.285278 15.6571 0.285278ZM11.1711 4.42745C12.4072 3.73561 13.2738 3.25265 13.9933 2.93562C14.6932 2.62599 15.1863 2.50748 15.6571 2.50748C16.1293 2.50748 16.6209 2.62599 17.3209 2.93562C18.0403 3.25265 18.9056 3.73561 20.1416 4.42745L22.9193 5.98299C24.4332 6.82891 25.4956 7.42594 26.2914 7.99186C26.6831 8.27186 26.99 8.53111 27.24 8.79185L22.6138 11.2585L10.8086 4.63041L11.1711 4.42745ZM8.6365 5.8467L8.39484 5.98299C6.881 6.82891 5.81854 7.42594 5.02412 7.99186C4.68515 8.22626 4.36756 8.4941 4.07554 8.79185L15.6571 14.9696L20.3194 12.4807L8.9226 6.08373C8.81497 6.02318 8.71813 5.94295 8.6365 5.8467ZM3.07141 10.74C3.00197 11.057 2.94781 11.417 2.90892 11.8363C2.8117 12.894 2.81031 14.2318 2.81031 16.1236V16.2969C2.81031 18.1903 2.81031 19.528 2.90892 20.5843C3.00475 21.6169 3.18669 22.285 3.4964 22.848C3.80472 23.4065 4.25054 23.8791 5.02412 24.4302C5.81854 24.9961 6.881 25.5931 8.39484 26.4391L11.1725 27.9946C12.4086 28.6864 13.2738 29.1694 13.9933 29.4864C14.221 29.5872 14.4252 29.6672 14.6155 29.7309V16.8969L3.07141 10.74ZM16.6987 29.7294C16.889 29.6672 17.0931 29.5872 17.3209 29.4864C18.0403 29.1694 18.9056 28.6864 20.1416 27.9946L22.9193 26.4391C24.4332 25.5917 25.4956 24.9961 26.2914 24.4302C27.0636 23.8791 27.5094 23.4065 27.8192 22.848C28.1289 22.285 28.3094 21.6184 28.4053 20.5843C28.5025 19.528 28.5039 18.1903 28.5039 16.2984V16.1251C28.5039 14.2318 28.5039 12.894 28.4053 11.8377C28.374 11.4689 28.3197 11.1026 28.2428 10.7415L23.6429 13.1933V17.6925C23.6429 17.9872 23.5332 18.2698 23.3378 18.4782C23.1425 18.6865 22.8775 18.8036 22.6013 18.8036C22.325 18.8036 22.0601 18.6865 21.8647 18.4782C21.6694 18.2698 21.5597 17.9872 21.5597 17.6925V14.3059L16.6987 16.8984V29.7294Z" fill="#FF981A"/>
</svg>
