<svg width="19" height="19" viewBox="0 0 19 19" fill="none" xmlns="http://www.w3.org/2000/svg">
<g id="Vector">
<path id="Vector_2" d="M17.9968 2.9913L18.6691 2.35485C18.8475 2.18365 18.9477 1.95144 18.9477 1.70932C18.9477 1.46719 18.8475 1.23498 18.6691 1.06378C18.4908 0.89257 18.2489 0.796387 17.9968 0.796387C17.7446 0.796387 17.5027 0.89257 17.3244 1.06378L15.9985 2.34576L13.3185 4.91882L7.34275 10.6468C6.36357 10.0266 5.17944 9.77742 4.01981 9.94756C2.86018 10.1177 1.80761 10.695 1.06606 11.5677C0.324514 12.4404 -0.0532201 13.5463 0.00605252 14.6711C0.0653251 15.7959 0.557385 16.8596 1.38689 17.656C2.21639 18.4524 3.32427 18.9248 4.49587 18.9817C5.66746 19.0386 6.81935 18.6759 7.72833 17.964C8.63732 17.252 9.23868 16.2415 9.41589 15.1282C9.5931 14.0148 9.33355 12.878 8.68752 11.9379L13.9814 6.84635L15.9891 8.78296C16.0774 8.86714 16.1821 8.93379 16.2972 8.97912C16.4123 9.02445 16.5356 9.04756 16.6601 9.04714C16.7845 9.04671 16.9076 9.02277 17.0224 8.97666C17.1372 8.93055 17.2414 8.86319 17.3291 8.77841C17.4168 8.69364 17.4862 8.59312 17.5334 8.48259C17.5806 8.37205 17.6047 8.25367 17.6043 8.13421C17.6038 8.01474 17.5789 7.89653 17.5309 7.78632C17.4828 7.67611 17.4127 7.57606 17.3244 7.49188L15.3167 5.56436L16.6615 4.28238L17.3244 4.91882C17.412 5.0036 17.5163 5.07096 17.6311 5.11707C17.7458 5.16318 17.869 5.18712 17.9934 5.18755C18.1178 5.18797 18.2411 5.16486 18.3563 5.11953C18.4714 5.0742 18.5761 5.00755 18.6644 4.92337C18.7527 4.83919 18.8229 4.73914 18.8709 4.62893C18.9189 4.51872 18.9439 4.40051 18.9443 4.28105C18.9447 4.16158 18.9207 4.0432 18.8735 3.93267C18.8262 3.82214 18.7568 3.72161 18.6691 3.63684L17.9968 2.9913ZM4.73844 17.1659C4.17653 17.1659 3.62724 17.0059 3.16003 16.7062C2.69282 16.4065 2.32867 15.9805 2.11364 15.4821C1.8986 14.9837 1.84234 14.4352 1.95196 13.9061C2.06159 13.377 2.33217 12.891 2.7295 12.5095C3.12683 12.1281 3.63306 11.8683 4.18418 11.763C4.73529 11.6578 5.30653 11.7118 5.82567 11.9182C6.34481 12.1247 6.78852 12.4743 7.1007 12.9229C7.41288 13.3714 7.57951 13.8988 7.57951 14.4382C7.57951 15.1617 7.28018 15.8554 6.74738 16.367C6.21458 16.8785 5.49194 17.1659 4.73844 17.1659Z" fill="#FF981A"/>
</g>
</svg>
