<svg width="19" height="19" viewBox="0 0 19 19" fill="none" xmlns="http://www.w3.org/2000/svg">
<path d="M18.0853 12.9077L13.6098 10.955L13.5975 10.9495C13.3651 10.8527 13.1117 10.8139 12.86 10.8365C12.6084 10.8591 12.3665 10.9424 12.1563 11.079C12.1315 11.0949 12.1078 11.1122 12.085 11.1308L9.77273 13.0501C8.30782 12.3573 6.79541 10.8958 6.08385 9.48794L8.05797 7.20224C8.07697 7.17912 8.09502 7.15599 8.11212 7.13102C8.24932 6.92687 8.33257 6.69286 8.35445 6.44982C8.37633 6.20677 8.33616 5.96223 8.23752 5.73795V5.72685L6.22635 1.36174C6.09595 1.06875 5.87174 0.82469 5.58718 0.66598C5.30261 0.50727 4.97296 0.442426 4.64744 0.481128C3.36015 0.646063 2.17854 1.26162 1.3233 2.21283C0.468065 3.16404 -0.0023189 4.38586 8.59627e-06 5.65008C8.59627e-06 12.9946 6.13705 18.9702 13.6801 18.9702C14.9785 18.9725 16.2333 18.5145 17.2102 17.6817C18.1872 16.849 18.8194 15.6985 18.9887 14.4451C19.0286 14.1282 18.9621 13.8073 18.7993 13.5303C18.6365 13.2532 18.386 13.0348 18.0853 12.9077ZM13.6801 17.4902C10.4561 17.4868 7.36521 16.2382 5.08551 14.0185C2.80582 11.7988 1.52354 8.78922 1.52002 5.65008C1.51645 4.7468 1.85067 3.87313 2.46028 3.19224C3.06988 2.51135 3.91318 2.0698 4.83269 1.95004C4.83232 1.95373 4.83232 1.95745 4.83269 1.96114L6.82771 6.30868L4.86404 8.59716C4.84411 8.61949 4.82601 8.6433 4.80989 8.66838C4.66693 8.88198 4.58306 9.12792 4.56642 9.38236C4.54978 9.6368 4.60092 9.89111 4.71489 10.1206C5.5756 11.8347 7.34926 13.5487 9.12862 14.3859C9.36609 14.4958 9.62879 14.5439 9.89105 14.5254C10.1533 14.5069 10.4062 14.4225 10.6249 14.2804C10.6493 14.2644 10.6727 14.2471 10.6952 14.2286L13.0047 12.3101L17.4697 14.2573H17.4801C17.3586 15.1539 16.9058 15.9766 16.2064 16.5717C15.507 17.1667 14.6089 17.4932 13.6801 17.4902Z" fill="#FF981A"/>
</svg>
