<svg width="20" height="19" viewBox="0 0 20 19" fill="none" xmlns="http://www.w3.org/2000/svg">
<path d="M16 10.2706H11V15.2706C11 15.5358 10.8946 15.7902 10.7071 15.9777C10.5196 16.1653 10.2652 16.2706 10 16.2706C9.73478 16.2706 9.48043 16.1653 9.29289 15.9777C9.10536 15.7902 9 15.5358 9 15.2706V10.2706H4C3.73478 10.2706 3.48043 10.1653 3.29289 9.97774C3.10536 9.7902 3 9.53585 3 9.27063C3 9.00541 3.10536 8.75106 3.29289 8.56352C3.48043 8.37599 3.73478 8.27063 4 8.27063H9V3.27063C9 3.00541 9.10536 2.75106 9.29289 2.56352C9.48043 2.37599 9.73478 2.27063 10 2.27063C10.2652 2.27063 10.5196 2.37599 10.7071 2.56352C10.8946 2.75106 11 3.00541 11 3.27063V8.27063H16C16.2652 8.27063 16.5196 8.37599 16.7071 8.56352C16.8946 8.75106 17 9.00541 17 9.27063C17 9.53585 16.8946 9.7902 16.7071 9.97774C16.5196 10.1653 16.2652 10.2706 16 10.2706Z" fill="white"/>
</svg>
