<svg width="20" height="19" viewBox="0 0 20 19" fill="none" xmlns="http://www.w3.org/2000/svg">
<path d="M10 8.87832C9.4 8.87832 9 9.27832 9 9.87832C9 10.2783 9.3 10.5783 9.6 10.6783L9.3 12.0783H10.6L10.3 10.6783C10.7 10.5783 10.9 10.2783 10.9 9.87832C11 9.27832 10.6 8.87832 10 8.87832ZM10.1 4.57832C9.4 4.57832 8.7 5.07832 8.7 5.77832V7.27832H11.4V5.77832C11.3 5.07832 10.8 4.57832 10.1 4.57832ZM10 1.27832L3 4.27832V7.27832C3.1 11.6783 5.9 15.5783 10 17.1783C14.1 15.5783 16.9 11.6783 17 7.27832V4.27832L10 1.27832ZM14 12.2783C14 12.8783 13.6 13.2783 13 13.2783H7C6.4 13.2783 6 12.8783 6 12.2783V8.27832C6 7.67832 6.4 7.27832 7 7.27832H7.3V5.77832C7.4 4.37832 8.6 3.27832 10 3.27832C11.4 3.27832 12.6 4.37832 12.7 5.77832V7.27832H13C13.6 7.27832 14 7.67832 14 8.27832V12.2783Z" fill="#FF981A"/>
</svg>
