<svg width="15" height="15" viewBox="0 0 15 15" fill="none" xmlns="http://www.w3.org/2000/svg">
<path d="M1.3335 12.1249C1.3335 11.3072 1.65835 10.5229 2.23658 9.94467C2.81482 9.36643 3.59908 9.04158 4.41683 9.04158H10.5835C11.4012 9.04158 12.1855 9.36643 12.7637 9.94467C13.342 10.5229 13.6668 11.3072 13.6668 12.1249C13.6668 12.5338 13.5044 12.9259 13.2153 13.215C12.9262 13.5042 12.534 13.6666 12.1252 13.6666H2.87516C2.46629 13.6666 2.07416 13.5042 1.78504 13.215C1.49592 12.9259 1.3335 12.5338 1.3335 12.1249Z" stroke="white" stroke-width="2" stroke-linejoin="round"/>
<path d="M7.5 5.95825C8.77716 5.95825 9.8125 4.92291 9.8125 3.64575C9.8125 2.36859 8.77716 1.33325 7.5 1.33325C6.22284 1.33325 5.1875 2.36859 5.1875 3.64575C5.1875 4.92291 6.22284 5.95825 7.5 5.95825Z" stroke="white" stroke-width="2"/>
</svg>
