<svg width="19" height="18" viewBox="0 0 19 18" fill="none" xmlns="http://www.w3.org/2000/svg">
<path d="M9 10.022L10.67 11.038C10.8147 11.1287 10.9593 11.1214 11.104 11.016C11.2487 10.9094 11.3023 10.7674 11.265 10.59L10.823 8.70304L12.293 7.44004C12.433 7.31537 12.4763 7.17137 12.423 7.00804C12.3697 6.84471 12.2517 6.75471 12.069 6.73804L10.133 6.56304L9.373 4.78204C9.30233 4.62071 9.178 4.54004 9 4.54004C8.822 4.54004 8.69767 4.62071 8.627 4.78204L7.867 6.56204L5.931 6.73804C5.749 6.75471 5.631 6.84471 5.577 7.00804C5.52367 7.17137 5.567 7.31537 5.707 7.44004L7.177 8.70304L6.735 10.59C6.69767 10.768 6.75133 10.91 6.896 11.016C7.04067 11.122 7.18567 11.1294 7.331 11.038L9 10.022ZM3.077 14.855L1.373 16.559C1.12033 16.8117 0.828333 16.8697 0.497 16.733C0.165667 16.5964 0 16.348 0 15.988V2.47004C0 2.01004 0.154333 1.62604 0.463 1.31804C0.771 1.00937 1.155 0.855042 1.615 0.855042H16.385C16.845 0.855042 17.229 1.00937 17.537 1.31804C17.8457 1.62604 18 2.01004 18 2.47004V13.24C18 13.7 17.846 14.0844 17.538 14.393C17.2293 14.701 16.845 14.855 16.385 14.855H3.077ZM2.65 13.855H16.385C16.5383 13.855 16.6793 13.791 16.808 13.663C16.936 13.5344 17 13.3934 17 13.24V2.47004C17 2.31671 16.936 2.17571 16.808 2.04704C16.6793 1.91904 16.5383 1.85504 16.385 1.85504H1.615C1.46167 1.85504 1.32067 1.91904 1.192 2.04704C1.064 2.17571 1 2.31671 1 2.47004V15.5L2.65 13.855Z" fill="#FF981A"/>
</svg>
