<svg width="26" height="23" viewBox="0 0 26 23" fill="none" xmlns="http://www.w3.org/2000/svg">
<path d="M12.6713 12.6961L14.8978 14.0789C15.0907 14.2024 15.2836 14.1924 15.4764 14.049C15.6693 13.9038 15.7409 13.7106 15.6911 13.4692L15.1018 10.9009L17.0617 9.18182C17.2484 9.01214 17.3061 8.81615 17.235 8.59384C17.1639 8.37153 17.0066 8.24903 16.763 8.22635L14.1818 7.98816L13.1686 5.5641C13.0743 5.34451 12.9086 5.23472 12.6713 5.23472C12.4339 5.23472 12.2682 5.34451 12.1739 5.5641L11.1607 7.9868L8.57947 8.22635C8.33681 8.24903 8.17949 8.37153 8.10749 8.59384C8.03638 8.81615 8.09416 9.01214 8.28082 9.18182L10.2407 10.9009L9.65141 13.4692C9.60164 13.7115 9.67319 13.9047 9.86607 14.049C10.0589 14.1933 10.2523 14.2033 10.446 14.0789L12.6713 12.6961ZM4.77433 19.2742L2.50245 21.5934C2.16558 21.9373 1.77626 22.0163 1.33451 21.8302C0.892752 21.6442 0.671875 21.3062 0.671875 20.8162V2.4173C0.671875 1.79121 0.877642 1.26856 1.28918 0.849353C1.69982 0.429236 2.2118 0.219177 2.8251 0.219177H22.5174C23.1307 0.219177 23.6427 0.429236 24.0533 0.849353C24.4649 1.26856 24.6706 1.79121 24.6706 2.4173V17.076C24.6706 17.7021 24.4653 18.2252 24.0547 18.6453C23.6431 19.0645 23.1307 19.2742 22.5174 19.2742H4.77433ZM4.20503 17.9131H22.5174C22.7218 17.9131 22.9098 17.826 23.0814 17.6518C23.252 17.4766 23.3374 17.2847 23.3374 17.076V2.4173C23.3374 2.20861 23.252 2.0167 23.0814 1.84157C22.9098 1.66736 22.7218 1.58025 22.5174 1.58025H2.8251C2.62066 1.58025 2.43267 1.66736 2.26113 1.84157C2.09047 2.0167 2.00514 2.20861 2.00514 2.4173V20.152L4.20503 17.9131Z" fill="#FF981A"/>
</svg>
