<svg width="16" height="17" viewBox="0 0 16 17" fill="none" xmlns="http://www.w3.org/2000/svg">
<path d="M14.667 15.3517L10.9474 11.4363M7.2278 13.394C6.49511 13.394 5.76959 13.2421 5.09267 12.9469C4.41575 12.6518 3.80069 12.2192 3.2826 11.6738C2.7645 11.1285 2.35353 10.481 2.07314 9.76847C1.79275 9.05592 1.64844 8.29222 1.64844 7.52097C1.64844 6.74971 1.79275 5.98601 2.07314 5.27346C2.35353 4.56091 2.7645 3.91348 3.2826 3.36812C3.80069 2.82276 4.41575 2.39015 5.09267 2.09501C5.76959 1.79986 6.49511 1.64795 7.2278 1.64795C8.70754 1.64795 10.1267 2.26671 11.173 3.36812C12.2193 4.46952 12.8072 5.96334 12.8072 7.52097C12.8072 9.07859 12.2193 10.5724 11.173 11.6738C10.1267 12.7752 8.70754 13.394 7.2278 13.394Z" stroke="white" stroke-width="2"/>
</svg>
