<svg width="25" height="24" viewBox="0 0 25 24" fill="none" xmlns="http://www.w3.org/2000/svg">
<g id="vuesax/bold/send">
<g id="send">
<path id="Vector" d="M18.855 8.51013L9.98471 4.23013C4.02625 1.35013 1.5807 3.71013 4.56511 9.46013L5.46665 11.2001C5.72571 11.7101 5.72571 12.3001 5.46665 12.8101L4.56511 14.5401C1.5807 20.2901 4.01589 22.6501 9.98471 19.7701L18.855 15.4901C22.8343 13.5701 22.8343 10.4301 18.855 8.51013ZM15.5079 12.7501H9.91217C9.48731 12.7501 9.13498 12.4101 9.13498 12.0001C9.13498 11.5901 9.48731 11.2501 9.91217 11.2501H15.5079C15.9328 11.2501 16.2851 11.5901 16.2851 12.0001C16.2851 12.4101 15.9328 12.7501 15.5079 12.7501Z" fill="#191D31"/>
</g>
</g>
</svg>
