<svg width="18" height="17" viewBox="0 0 18 17" fill="none" xmlns="http://www.w3.org/2000/svg">
<path d="M8.04894 0.92656C8.3483 0.00524974 9.6517 0.00525188 9.95106 0.926563L11.2451 4.90934C11.379 5.32136 11.763 5.60032 12.1962 5.60032H16.3839C17.3527 5.60032 17.7554 6.83994 16.9717 7.40934L13.5838 9.87084C13.2333 10.1255 13.0866 10.5768 13.2205 10.9889L14.5146 14.9717C14.8139 15.893 13.7595 16.6591 12.9757 16.0897L9.58778 13.6282C9.2373 13.3735 8.7627 13.3735 8.41221 13.6282L5.02426 16.0897C4.24054 16.6591 3.18607 15.893 3.48542 14.9716L4.7795 10.9889C4.91338 10.5768 4.76672 10.1255 4.41623 9.87084L1.02827 7.40934C0.244561 6.83994 0.647338 5.60032 1.61606 5.60032H5.8038C6.23703 5.60032 6.62099 5.32136 6.75486 4.90934L8.04894 0.92656Z" fill="#FF981A"/>
</svg>
