<svg width="20" height="19" viewBox="0 0 20 19" fill="none" xmlns="http://www.w3.org/2000/svg">
<path d="M10 13.998C9.49719 13.9981 9.01279 13.8089 8.64327 13.4679C8.27375 13.1269 8.04622 12.6592 8.006 12.158C6.67219 11.6859 5.54805 10.7578 4.83202 9.53741C4.116 8.31705 3.85412 6.88297 4.09263 5.48831C4.33113 4.09365 5.05467 2.82809 6.13554 1.91503C7.21641 1.00196 8.5851 0.500107 10 0.498047C11.5049 0.497829 12.9549 1.06313 14.0626 2.08187C15.1702 3.10061 15.8546 4.49839 15.98 5.99805C15.9842 6.0631 15.9748 6.1283 15.9524 6.18952C15.93 6.25075 15.8952 6.30664 15.85 6.35366C15.8049 6.40069 15.7504 6.43781 15.6902 6.46266C15.6299 6.48752 15.5652 6.49957 15.5 6.49805C15.3661 6.49447 15.2383 6.44136 15.1414 6.349C15.0444 6.25664 14.9851 6.13159 14.975 5.99805C14.8859 5.11388 14.5628 4.26943 14.039 3.55162C13.5151 2.83381 12.8094 2.26859 11.9945 1.91413C11.1796 1.55968 10.285 1.42881 9.40274 1.53499C8.52046 1.64117 7.68243 1.98057 6.97491 2.51825C6.26739 3.05592 5.71594 3.77244 5.37735 4.59405C5.03876 5.41565 4.92525 6.31265 5.04851 7.1927C5.17177 8.07275 5.52734 8.90405 6.07863 9.60102C6.62991 10.298 7.35699 10.8354 8.185 11.158C8.33566 10.8325 8.57111 10.5535 8.86667 10.3502C9.16224 10.1469 9.50703 10.0269 9.86493 10.0026C10.2228 9.97838 10.5807 10.0509 10.9009 10.2124C11.2212 10.374 11.4921 10.6188 11.6853 10.921C11.8785 11.2233 11.9868 11.572 11.9989 11.9305C12.011 12.289 11.9265 12.6442 11.7542 12.9588C11.5819 13.2734 11.3281 13.5359 11.0195 13.7187C10.7108 13.9016 10.3587 13.9981 10 13.998ZM5.009 11.498H5.1C5.49 11.879 5.923 12.215 6.392 12.498H5.009C4.448 12.498 4 12.945 4 13.498C4 14.807 4.622 15.782 5.673 16.451C6.743 17.134 8.265 17.498 10 17.498C11.735 17.498 13.257 17.134 14.327 16.451C15.377 15.781 16 14.808 16 13.498C16 13.2328 15.8946 12.9785 15.7071 12.7909C15.5196 12.6034 15.2652 12.498 15 12.498H12.959C13.0146 12.167 13.0146 11.8291 12.959 11.498H15C15.5304 11.498 16.0391 11.7088 16.4142 12.0838C16.7893 12.4589 17 12.9676 17 13.498C17 15.189 16.167 16.464 14.865 17.295C13.583 18.112 11.855 18.498 10 18.498C8.145 18.498 6.417 18.112 5.135 17.295C3.833 16.465 3 15.188 3 13.498C3 12.385 3.903 11.498 5.009 11.498ZM14 6.49805C14.0005 7.17474 13.8292 7.84048 13.5021 8.43288C13.175 9.02528 12.7029 9.52495 12.13 9.88505C11.8629 9.61599 11.5474 9.39986 11.2 9.24805C11.8317 8.97236 12.3492 8.48757 12.6655 7.87521C12.9817 7.26285 13.0775 6.56026 12.9367 5.88557C12.7959 5.21089 12.4271 4.60527 11.8922 4.17054C11.3574 3.73582 10.6892 3.4985 10 3.4985C9.31078 3.4985 8.64258 3.73582 8.10775 4.17054C7.57293 4.60527 7.2041 5.21089 7.06328 5.88557C6.92247 6.56026 7.01826 7.26285 7.33454 7.87521C7.65083 8.48757 8.16832 8.97236 8.8 9.24805C8.45 9.40105 8.135 9.61805 7.87 9.88505C7.11105 9.40666 6.53433 8.68771 6.232 7.84305C6.07785 7.4114 5.99937 6.95639 6 6.49805C6 5.43718 6.42143 4.41976 7.17157 3.66962C7.92172 2.91947 8.93913 2.49805 10 2.49805C11.0609 2.49805 12.0783 2.91947 12.8284 3.66962C13.5786 4.41976 14 5.43718 14 6.49805Z" fill="#FF981A"/>
</svg>
