<svg width="21" height="22" viewBox="0 0 21 22" fill="none" xmlns="http://www.w3.org/2000/svg">
<path d="M4.5 6.56895L2.37 4.44895L3.78 3.03895L5.9 5.16895L4.5 6.56895ZM11.5 0.668945V3.66895H9.5V0.668945H11.5ZM18.63 4.44895L16.5 6.56895L15.1 5.16895L17.22 3.03895L18.63 4.44895ZM3 10.1689V12.1689H0V10.1689H3ZM18 10.1689H21V12.1689H18V10.1689ZM4.5 19.6689H16.5C17.0304 19.6689 17.5391 19.8797 17.9142 20.2547C18.2893 20.6298 18.5 21.1385 18.5 21.6689H2.5C2.5 21.1385 2.71071 20.6298 3.08579 20.2547C3.46086 19.8797 3.96957 19.6689 4.5 19.6689ZM10.5 4.66895C12.0913 4.66895 13.6174 5.30109 14.7426 6.4263C15.8679 7.55152 16.5 9.07765 16.5 10.6689V18.6689H4.5V10.6689C4.5 9.07765 5.13214 7.55152 6.25736 6.4263C7.38258 5.30109 8.9087 4.66895 10.5 4.66895ZM10.5 6.66895C9.43913 6.66895 8.42172 7.09037 7.67157 7.84052C6.92143 8.59066 6.5 9.60808 6.5 10.6689V16.6689H14.5V10.6689C14.5 9.60808 14.0786 8.59066 13.3284 7.84052C12.5783 7.09037 11.5609 6.66895 10.5 6.66895Z" fill="#FF981A"/>
</svg>
