<svg width="20" height="19" viewBox="0 0 20 19" fill="none" xmlns="http://www.w3.org/2000/svg">

<path d="M16 10.2705H11V15.2705C11 15.5357 10.8946 15.7901 10.7071 15.9776C10.5196 16.1652 10.2652 16.2705 10 16.2705C9.73478 16.2705 9.48043 16.1652 9.29289 15.9776C9.10536 15.7901 9 15.5357 9 15.2705V10.2705H4C3.73478 10.2705 3.48043 10.1652 3.29289 9.97761C3.10536 9.79008 3 9.53572 3 9.27051C3 9.00529 3.10536 8.75094 3.29289 8.5634C3.48043 8.37586 3.73478 8.27051 4 8.27051H9V3.27051C9 3.00529 9.10536 2.75094 9.29289 2.5634C9.48043 2.37586 9.73478 2.27051 10 2.27051C10.2652 2.27051 10.5196 2.37586 10.7071 2.5634C10.8946 2.75094 11 3.00529 11 3.27051V8.27051H16C16.2652 8.27051 16.5196 8.37586 16.7071 8.5634C16.8946 8.75094 17 9.00529 17 9.27051C17 9.53572 16.8946 9.79008 16.7071 9.97761C16.5196 10.1652 16.2652 10.2705 16 10.2705Z" fill="white"/>
</svg>
