<svg width="18" height="18" viewBox="0 0 18 18" fill="none" xmlns="http://www.w3.org/2000/svg">
<g id="Vector">
<path id="Vector_2" d="M17.8914 16.2952C16.5752 14.1105 14.5468 12.544 12.1797 11.8014C13.3506 11.1322 14.2603 10.1125 14.7691 8.89886C15.2779 7.68523 15.3578 6.3448 14.9963 5.08341C14.6348 3.82202 13.8521 2.70943 12.7682 1.91648C11.6844 1.12354 10.3594 0.694092 8.99671 0.694092C7.63405 0.694092 6.30906 1.12354 5.22522 1.91648C4.14138 2.70943 3.35862 3.82202 2.99715 5.08341C2.63568 6.3448 2.71548 7.68523 3.22431 8.89886C3.73313 10.1125 4.64284 11.1322 5.81374 11.8014C3.4466 12.5432 1.41824 14.1097 0.102011 16.2952C0.0537427 16.3708 0.0217265 16.4549 0.00785173 16.5425C-0.00602307 16.6301 -0.00147548 16.7195 0.0212262 16.8055C0.0439278 16.8914 0.0843237 16.9721 0.14003 17.0427C0.195737 17.1134 0.265626 17.1727 0.345574 17.217C0.425522 17.2614 0.513909 17.2899 0.605521 17.3009C0.697133 17.3119 0.790113 17.3052 0.878977 17.2811C0.96784 17.2571 1.05079 17.2162 1.12292 17.1609C1.19506 17.1055 1.25492 17.0369 1.29898 16.959C2.92719 14.2574 5.8051 12.6444 8.99671 12.6444C12.1883 12.6444 15.0662 14.2574 16.6945 16.959C16.7385 17.0369 16.7984 17.1055 16.8705 17.1609C16.9426 17.2162 17.0256 17.2571 17.1145 17.2811C17.2033 17.3052 17.2963 17.3119 17.3879 17.3009C17.4795 17.2899 17.5679 17.2614 17.6479 17.217C17.7278 17.1727 17.7977 17.1134 17.8534 17.0427C17.9091 16.9721 17.9495 16.8914 17.9722 16.8055C17.9949 16.7195 17.9995 16.6301 17.9856 16.5425C17.9717 16.4549 17.9397 16.3708 17.8914 16.2952ZM4.157 6.67038C4.157 5.7514 4.44084 4.85305 4.97264 4.08894C5.50443 3.32484 6.26029 2.72928 7.14464 2.3776C8.02898 2.02592 9.00208 1.93391 9.9409 2.11319C10.8797 2.29248 11.7421 2.73501 12.4189 3.38483C13.0958 4.03465 13.5567 4.86258 13.7434 5.7639C13.9302 6.66523 13.8343 7.59948 13.468 8.44851C13.1017 9.29755 12.4814 10.0232 11.6855 10.5338C10.8896 11.0443 9.95392 11.3169 8.99671 11.3169C7.71356 11.3155 6.48336 10.8256 5.57604 9.95448C4.66871 9.08339 4.15837 7.9023 4.157 6.67038Z" fill="#FF981A"/>
</g>
</svg>
