<svg width="24" height="25" viewBox="0 0 24 25" fill="none" xmlns="http://www.w3.org/2000/svg">
<g id="Vector">
<path id="Vector_2" d="M12 0.609375C8.8174 0.609375 5.76515 1.87366 3.51472 4.12409C1.26428 6.37453 0 9.42678 0 12.6094C0 15.792 1.26428 18.8442 3.51472 21.0947C5.76515 23.3451 8.8174 24.6094 12 24.6094C15.1826 24.6094 18.2348 23.3451 20.4853 21.0947C22.7357 18.8442 24 15.792 24 12.6094C24 9.42678 22.7357 6.37453 20.4853 4.12409C18.2348 1.87366 15.1826 0.609375 12 0.609375ZM16.25 1.72938C16.57 1.72938 16.9 1.75937 17.11 1.82938C14.94 2.27938 13.21 4.29938 13.22 6.60938C13.22 6.65938 13.22 6.71938 13.23 6.77938C16.87 7.66937 18.5 9.85938 18.5 12.8894C18.54 15.9194 16.14 19.2494 12.09 19.2594C8.82 19.2694 5.41 16.4694 5.39 11.9794C5.38 9.00937 7 6.14937 9.04 4.45937C11.04 2.79938 13.77 1.73937 16.25 1.72938Z" fill="#FF981A"/>
</g>
</svg>
