<svg width="15" height="16" viewBox="0 0 15 16" fill="none" xmlns="http://www.w3.org/2000/svg">
<path fill-rule="evenodd" clip-rule="evenodd" d="M6.53256 1.31947C7.03262 0.708616 7.96681 0.708614 8.46694 1.31947L9.08681 2.07662L10.0022 1.73085C10.7408 1.4519 11.5498 1.91897 11.6774 2.69805L11.8358 3.66372L12.8014 3.82199C13.5805 3.94967 14.0476 4.75867 13.7686 5.49721L13.4228 6.41264L14.18 7.03254C14.7908 7.53266 14.7908 8.46679 14.18 8.96691L13.4228 9.58685L13.7686 10.5022C14.0476 11.2408 13.5805 12.0498 12.8014 12.1775L11.8358 12.3357L11.6775 13.3014C11.5498 14.0805 10.7408 14.5475 10.0022 14.2686L9.08681 13.9228L8.46694 14.68C7.96681 15.2908 7.03262 15.2908 6.53256 14.68L5.91264 13.9228L4.99721 14.2686C4.25866 14.5475 3.44967 14.0805 3.32199 13.3014L3.16371 12.3357L2.19804 12.1775C1.41897 12.0498 0.951906 11.2408 1.23086 10.5022L1.57662 9.58685L0.819468 8.96691C0.208616 8.46679 0.208613 7.53266 0.819468 7.03254L1.57662 6.41264L1.23086 5.49721C0.9519 4.75867 1.41897 3.94967 2.19805 3.82199L3.16371 3.66372L3.32199 2.69805C3.44967 1.91897 4.25867 1.4519 4.99721 1.73085L5.91264 2.07662L6.53256 1.31947ZM7.00444 10.6292L11.3794 6.25417L10.4956 5.37029L6.5625 9.30335L4.50444 7.24529L3.62056 8.12916L6.12056 10.6292C6.23777 10.7464 6.39675 10.8122 6.5625 10.8122C6.72825 10.8122 6.88725 10.7464 7.00444 10.6292Z" fill="#3498F5"/>
</svg>
