<svg width="26" height="26" viewBox="0 0 26 26" fill="none" xmlns="http://www.w3.org/2000/svg">
<path d="M21.2032 6.61755C21.2856 6.61755 21.3646 6.57853 21.4229 6.50907C21.4811 6.43962 21.5139 6.34542 21.5139 6.2472V5.01392C21.5135 4.69227 21.4062 4.38389 21.2154 4.15645C21.0246 3.929 20.7659 3.80105 20.4961 3.80065H18.8266L18.4458 2.46072C18.4199 2.3696 18.3653 2.29406 18.2935 2.2501C18.2217 2.20613 18.1384 2.1972 18.0612 2.22518L9.01905 5.50205C8.94421 5.5346 8.88268 5.60012 8.84714 5.68512C8.8116 5.77012 8.80475 5.86812 8.828 5.95896C8.85125 6.0498 8.90283 6.12655 8.97212 6.17342C9.04141 6.22029 9.12314 6.2337 9.20047 6.2109L17.9543 3.03773L18.7887 5.97462C18.8152 6.06763 18.8715 6.14432 18.9454 6.18779C19.0193 6.23127 19.1046 6.23799 19.1827 6.20646C19.2607 6.17493 19.325 6.10774 19.3615 6.01967C19.3979 5.9316 19.4036 5.82987 19.3771 5.73685L19.0373 4.54062H20.4968C20.7155 4.54062 20.8932 4.75246 20.8932 5.01318V6.2472C20.8925 6.45163 21.0317 6.61755 21.2032 6.61755Z" fill="#FF981A" stroke="#FF981A"/>
<path d="M23.6832 12.1728C23.6008 12.1728 23.5218 12.2118 23.4635 12.2813C23.4053 12.3508 23.3725 12.445 23.3725 12.5432C23.3725 12.6414 23.4053 12.7356 23.4635 12.8051C23.5218 12.8745 23.6008 12.9135 23.6832 12.9135C23.9013 12.9135 23.9938 13.0239 23.9938 13.2839V17.7281C23.9938 17.9881 23.9013 18.0985 23.6832 18.0985H18.7126C18.4945 18.0985 18.4019 17.9881 18.4019 17.7281V14.0246C18.4019 13.7646 18.4945 13.6542 18.7126 13.6542H22.4405C22.5229 13.6542 22.6019 13.6152 22.6602 13.5458C22.7185 13.4763 22.7512 13.3821 22.7512 13.2839V8.83966C22.7512 8.16488 22.3852 7.72861 21.8192 7.72861H2.86885C2.10276 7.72861 1.62621 7.16049 1.62621 6.2472C1.62621 5.33392 2.10276 4.7658 2.86885 4.7658H6.02269L4.14257 5.50502C4.10242 5.51882 4.06501 5.54214 4.0326 5.57358C4.00019 5.60501 3.97342 5.64392 3.95392 5.68797C3.93441 5.73202 3.92256 5.78032 3.91907 5.82996C3.91558 5.8796 3.92053 5.92957 3.93362 5.97687C3.94671 6.02418 3.96766 6.06785 3.99524 6.10528C4.02282 6.14271 4.05644 6.17312 4.09411 6.19469C4.13177 6.21626 4.1727 6.22856 4.21444 6.23083C4.25618 6.23311 4.29788 6.22533 4.33704 6.20795L15.5948 1.78373C15.6336 1.76846 15.6694 1.74423 15.7003 1.71244C15.7312 1.68065 15.7566 1.64192 15.7749 1.59845C15.7933 1.55498 15.8042 1.50763 15.8072 1.4591C15.8102 1.41057 15.8052 1.36181 15.7924 1.3156C15.7796 1.2694 15.7592 1.22666 15.7326 1.18982C15.7059 1.15297 15.6734 1.12275 15.637 1.10088C15.6005 1.07901 15.5608 1.06591 15.5201 1.06234C15.4794 1.05877 15.4385 1.06479 15.3997 1.08006L7.88169 4.03547C7.8674 4.0325 7.85435 4.0251 7.83944 4.0251H2.86885C1.7542 4.0251 1.00488 4.91838 1.00488 6.2472V22.5427C1.00488 23.8715 1.7542 24.7648 2.86885 24.7648H21.8192C22.3852 24.7648 22.7512 24.3285 22.7512 23.6537V19.9502C22.7512 19.852 22.7185 19.7578 22.6602 19.6883C22.6019 19.6189 22.5229 19.5799 22.4405 19.5799C22.3581 19.5799 22.2791 19.6189 22.2209 19.6883C22.1626 19.7578 22.1299 19.852 22.1299 19.9502V23.6537C22.1299 23.9137 22.0373 24.0241 21.8192 24.0241H2.86885C2.10276 24.0241 1.62621 23.456 1.62621 22.5427V7.95971C1.94494 8.28043 2.36682 8.46931 2.86885 8.46931H21.8192C22.0373 8.46931 22.1299 8.57968 22.1299 8.83966V12.9135H18.7126C18.1466 12.9135 17.7806 13.3498 17.7806 14.0246V17.7281C17.7806 18.4029 18.1466 18.8392 18.7126 18.8392H23.6832C24.2492 18.8392 24.6152 18.4029 24.6152 17.7281V13.2839C24.6152 12.6091 24.2492 12.1728 23.6832 12.1728Z" fill="#FF981A" stroke="#FF981A"/>
<path d="M20.8869 16.617C21.2301 16.617 21.5083 16.2854 21.5083 15.8763C21.5083 15.4672 21.2301 15.1356 20.8869 15.1356C20.5438 15.1356 20.2656 15.4672 20.2656 15.8763C20.2656 16.2854 20.5438 16.617 20.8869 16.617Z" fill="#FF981A"/>
</svg>
