<svg width="27" height="27" viewBox="0 0 27 27" fill="none" xmlns="http://www.w3.org/2000/svg">
<path d="M5.54217 2.96489C4.93762 3.08893 4.29089 3.61982 4.01439 4.22017C3.92535 4.41367 3.82694 4.69152 3.80351 4.84037C3.74258 5.1976 3.74258 10.1542 3.80351 10.5065C3.88317 10.9481 4.09875 11.3698 4.4268 11.7121C4.92356 12.2381 5.42032 12.4365 6.27793 12.4365H6.75595V10.4618V8.48712L6.54975 8.42758C5.88896 8.244 5.82804 7.22688 6.4607 6.94903C6.68565 6.84484 20.3231 6.84484 20.5481 6.94903C21.1807 7.22688 21.1198 8.244 20.459 8.42758L20.2528 8.48712V10.4618V12.4365H20.7168C21.3167 12.4365 21.6072 12.377 22.0149 12.1636C22.6007 11.861 23.0834 11.1912 23.2053 10.5065C23.2662 10.1492 23.2662 5.1976 23.2053 4.84037C23.0834 4.15567 22.6007 3.48586 22.0149 3.1832C21.8322 3.08893 21.5697 2.98474 21.4291 2.95993C21.1151 2.90039 5.8421 2.90039 5.54217 2.96489Z" fill="white"/>
<path d="M8.25684 14.9098C8.25684 19.0824 8.27558 21.4441 8.3037 21.6178C8.42086 22.2678 8.91762 22.9773 9.46593 23.27C9.97675 23.5429 10.0236 23.5479 13.4869 23.5479C15.4177 23.5479 16.7814 23.528 16.9314 23.4982C17.7843 23.3295 18.5435 22.5258 18.7075 21.6178C18.7357 21.4441 18.7544 19.0824 18.7544 14.9098V8.46469H13.5056H8.25684V14.9098ZM13.918 11.7741C13.9836 11.8237 14.082 11.9328 14.1336 12.0072C14.2273 12.1362 14.232 12.2107 14.2461 14.106L14.2601 16.0708L14.8366 15.4704C15.3568 14.9296 15.4317 14.8701 15.6239 14.8403C16.0363 14.7758 16.4065 15.0586 16.4862 15.5002C16.5518 15.8525 16.4393 16.0013 15.1131 17.4054C13.7587 18.8344 13.7446 18.8393 13.3275 18.7599C13.1776 18.7351 12.9761 18.5416 11.856 17.3558C10.4548 15.8723 10.4501 15.8624 10.5297 15.4258C10.5719 15.1827 10.8531 14.885 11.0827 14.8403C11.453 14.7659 11.5654 14.8304 12.1841 15.4754L12.7558 16.0757V14.1854C12.7558 12.9648 12.7745 12.2404 12.8073 12.1511C12.873 11.9676 13.0276 11.7939 13.201 11.7096C13.3885 11.6153 13.7587 11.65 13.918 11.7741Z" fill="white"/>
</svg>
