<svg width="7" height="8" viewBox="0 0 7 8" fill="none" xmlns="http://www.w3.org/2000/svg">
<g id="Layer 2">
<path id="Vector" d="M1.0194 3.71796C1.14563 3.83527 1.3168 3.90117 1.49529 3.90117C1.67377 3.90117 1.84494 3.83527 1.97117 3.71796L3.17804 2.59594L3.17804 6.7173C3.17804 6.88327 3.24896 7.04244 3.37519 7.15979C3.50142 7.27715 3.67262 7.34308 3.85114 7.34308C4.02966 7.34308 4.20086 7.27715 4.3271 7.15979C4.45333 7.04244 4.52424 6.88327 4.52424 6.7173L4.52424 2.59594L5.73111 3.71796C5.85806 3.83195 6.02809 3.89502 6.20457 3.8936C6.38106 3.89217 6.54988 3.82636 6.67468 3.71033C6.79948 3.59431 6.87027 3.43736 6.8718 3.27328C6.87333 3.1092 6.80549 2.95113 6.68288 2.83311L4.32702 0.642891C4.2008 0.525575 4.02962 0.459672 3.85114 0.459672C3.67266 0.459672 3.50148 0.525575 3.37526 0.642891L1.0194 2.83311C0.893218 2.95046 0.82233 3.1096 0.82233 3.27553C0.82233 3.44146 0.893218 3.6006 1.0194 3.71796Z" fill="white"/>
</g>
</svg>
