<svg width="20" height="20" viewBox="0 0 20 20" fill="none" xmlns="http://www.w3.org/2000/svg">
<g id="Group">
<path id="Vector" d="M12.2013 18.8144H7.20085C5.68518 18.8144 4.23159 18.2253 3.15986 17.1766C2.08812 16.128 1.48602 14.7057 1.48602 13.2227V7.16507C1.48602 5.68206 2.08812 4.2598 3.15986 3.21116C4.23159 2.16252 5.68518 1.57339 7.20085 1.57339H13.3919C14.9076 1.57339 16.3612 2.16252 17.4329 3.21116C18.5046 4.2598 19.1067 5.68206 19.1067 7.16507V12.0578" stroke="#9E9E9E" stroke-width="1.5" stroke-linecap="round"/>
<path id="Vector_2" d="M6.01025 12.9431L8.11045 10.2088C8.23906 10.0404 8.4276 9.92542 8.63875 9.88658C8.84989 9.84775 9.06824 9.88791 9.25056 9.9991L11.2993 11.2656C11.4887 11.3836 11.7177 11.4242 11.9373 11.3787C12.1569 11.3332 12.3495 11.2053 12.4737 11.0224L14.5825 7.91061M16.8999 17.5842L17.9314 18.1145C17.9749 18.1369 18.0241 18.1468 18.0731 18.1433C18.1222 18.1397 18.1692 18.1227 18.2089 18.0943C18.2486 18.0658 18.2794 18.027 18.2977 17.9823C18.3159 17.9376 18.321 17.8888 18.3124 17.8414L18.1152 16.7184C18.108 16.6772 18.1112 16.6348 18.1245 16.5951C18.1378 16.5553 18.1607 16.5193 18.1914 16.4901L19.0258 15.6942C19.0615 15.6609 19.0869 15.6183 19.0991 15.5715C19.1113 15.5247 19.1097 15.4754 19.0946 15.4294C19.0795 15.3834 19.0514 15.3425 19.0136 15.3114C18.9759 15.2802 18.9299 15.2602 18.881 15.2534L17.7285 15.0913C17.6864 15.085 17.6465 15.0688 17.6121 15.0441C17.5778 15.0195 17.5501 14.987 17.5313 14.9496L17.0046 13.9198C16.9831 13.8763 16.9495 13.8395 16.9076 13.8138C16.8658 13.7881 16.8174 13.7745 16.7679 13.7745C16.7185 13.7745 16.6701 13.7881 16.6282 13.8138C16.5864 13.8395 16.5528 13.8763 16.5312 13.9198L16.0045 14.9496C15.9859 14.9871 15.9582 15.0196 15.9239 15.0443C15.8895 15.069 15.8495 15.0851 15.8074 15.0913L14.6701 15.2534C14.6335 15.2582 14.5984 15.2705 14.567 15.2896C14.5356 15.3086 14.5087 15.3339 14.488 15.3638C14.4673 15.3937 14.4534 15.4276 14.447 15.4632C14.4406 15.4988 14.442 15.5353 14.451 15.5703C14.4624 15.6176 14.4876 15.6606 14.5234 15.6942L15.3578 16.4901C15.3885 16.5193 15.4114 16.5553 15.4247 16.5951C15.438 16.6348 15.4412 16.6772 15.434 16.7184L15.2368 17.8414C15.2282 17.8888 15.2333 17.9376 15.2515 17.9823C15.2698 18.027 15.3006 18.0658 15.3403 18.0943C15.38 18.1227 15.427 18.1397 15.4761 18.1433C15.5252 18.1468 15.5743 18.1369 15.6178 18.1145L16.6494 17.5833C16.6878 17.563 16.7309 17.5523 16.7746 17.5523C16.8183 17.5523 16.8614 17.5639 16.8999 17.5842Z" stroke="#9E9E9E" stroke-width="1.5" stroke-linecap="round" stroke-linejoin="round"/>
</g>
</svg>
