<svg width="23" height="24" viewBox="0 0 23 24" fill="none" xmlns="http://www.w3.org/2000/svg">
<g id="assets">
<path id="Vector" d="M11.43 15.3C13.2629 15.3 14.7488 13.8225 14.7488 12C14.7488 10.1775 13.2629 8.7 11.43 8.7C9.59707 8.7 8.11121 10.1775 8.11121 12C8.11121 13.8225 9.59707 15.3 11.43 15.3Z" stroke="#9E9E9E" stroke-width="1.5"/>
<path id="Vector_2" d="M13.3825 1.1672C12.9765 1 12.461 1 11.43 1C10.399 1 9.88345 1 9.47746 1.1672C9.20884 1.27776 8.96476 1.43989 8.75919 1.6443C8.55362 1.84871 8.39057 2.0914 8.27938 2.3585C8.1776 2.6038 8.13667 2.8909 8.12118 3.3078C8.11429 3.60919 8.03047 3.90389 7.8776 4.16423C7.72473 4.42456 7.50782 4.642 7.24724 4.7961C6.98273 4.94355 6.68487 5.02171 6.38163 5.02325C6.0784 5.02479 5.77975 4.94965 5.51374 4.8049C5.14203 4.6091 4.87321 4.5013 4.6066 4.4661C4.02507 4.39006 3.43696 4.54674 2.97156 4.9017C2.62419 5.169 2.36533 5.6123 1.84981 6.5C1.33429 7.3877 1.07543 7.831 1.01901 8.2655C0.980995 8.552 1.00012 8.84314 1.07528 9.12228C1.15045 9.40143 1.28019 9.66312 1.45709 9.8924C1.62081 10.1036 1.84981 10.2807 2.20492 10.5029C2.72818 10.8296 3.06448 11.3862 3.06448 12C3.06448 12.6138 2.72818 13.1704 2.20492 13.496C1.84981 13.7193 1.61971 13.8964 1.45709 14.1076C1.28019 14.3369 1.15045 14.5986 1.07528 14.8777C1.00012 15.1569 0.980995 15.448 1.01901 15.7345C1.07654 16.1679 1.33429 16.6123 1.8487 17.5C2.36533 18.3877 2.62308 18.831 2.97156 19.0983C3.20214 19.2742 3.46532 19.4032 3.74605 19.4779C4.02679 19.5527 4.31958 19.5717 4.60771 19.5339C4.87321 19.4987 5.14203 19.3909 5.51374 19.1951C5.77975 19.0503 6.0784 18.9752 6.38163 18.9767C6.68487 18.9783 6.98273 19.0565 7.24724 19.2039C7.78156 19.5119 8.09906 20.0784 8.12118 20.6922C8.13667 21.1102 8.1765 21.3962 8.27938 21.6415C8.39057 21.9086 8.55362 22.1513 8.75919 22.3557C8.96476 22.5601 9.20884 22.7222 9.47746 22.8328C9.88345 23 10.399 23 11.43 23C12.461 23 12.9765 23 13.3825 22.8328C13.6512 22.7222 13.8952 22.5601 14.1008 22.3557C14.3064 22.1513 14.4694 21.9086 14.5806 21.6415C14.6824 21.3962 14.7233 21.1102 14.7388 20.6922C14.7609 20.0784 15.0784 19.5108 15.6128 19.2039C15.8773 19.0565 16.1751 18.9783 16.4784 18.9767C16.7816 18.9752 17.0803 19.0503 17.3463 19.1951C17.718 19.3909 17.9868 19.4987 18.2523 19.5339C18.5404 19.5717 18.8332 19.5527 19.1139 19.4779C19.3947 19.4032 19.6579 19.2742 19.8884 19.0983C20.2369 18.8321 20.4947 18.3877 21.0102 17.5C21.5257 16.6123 21.7846 16.169 21.841 15.7345C21.879 15.448 21.8599 15.1569 21.7847 14.8777C21.7096 14.5986 21.5798 14.3369 21.4029 14.1076C21.2392 13.8964 21.0102 13.7193 20.6551 13.4971C20.3959 13.3405 20.1811 13.1209 20.0307 12.859C19.8803 12.5971 19.7994 12.3015 19.7955 12C19.7955 11.3862 20.1318 10.8296 20.6551 10.504C21.0102 10.2807 21.2403 10.1036 21.4029 9.8924C21.5798 9.66312 21.7096 9.40143 21.7847 9.12228C21.8599 8.84314 21.879 8.552 21.841 8.2655C21.7835 7.8321 21.5257 7.3877 21.0113 6.5C20.4947 5.6123 20.2369 5.169 19.8884 4.9017C19.6579 4.7258 19.3947 4.59679 19.1139 4.52205C18.8332 4.44731 18.5404 4.4283 18.2523 4.4661C17.9868 4.5013 17.718 4.6091 17.3452 4.8049C17.0793 4.94946 16.7808 5.02449 16.4778 5.02295C16.1748 5.02141 15.8771 4.94335 15.6128 4.7961C15.3522 4.642 15.1353 4.42456 14.9824 4.16423C14.8295 3.90389 14.7457 3.60919 14.7388 3.3078C14.7233 2.8898 14.6835 2.6038 14.5806 2.3585C14.4694 2.0914 14.3064 1.84871 14.1008 1.6443C13.8952 1.43989 13.6512 1.27776 13.3825 1.1672Z" stroke="#9E9E9E" stroke-width="1.5"/>
</g>
</svg>
