<svg width="370" height="392" viewBox="0 0 370 392" fill="none" xmlns="http://www.w3.org/2000/svg">
<path d="M325.667 333.929C318.116 342.202 310.965 347.535 305.319 351.756C238.92 401.297 160.363 386.861 143.676 383.33C119.026 378.124 71.3648 368.049 36.9136 325.923C-15.2093 262.17 -7.09927 161.736 33.3313 95.4367C40.7223 83.3081 79.7945 15.9957 159.204 5.20371C207.265 -1.32492 263.277 11.8449 303.841 47.1896C388.976 121.354 382.917 271.245 325.667 333.929Z" fill="url(#paint0_linear_299_777)"/>
<path d="M70.7788 111.519C70.8188 109.648 72.3103 108.142 74.1347 108.142H184.973C186.824 108.142 188.795 109.704 188.795 111.604V377.012C188.795 378.433 188.009 379.784 187.037 380.797C186.051 381.796 184.613 382.359 183.228 382.359L71.1784 382.049C69.7801 382.049 68.4217 381.472 67.4496 380.445C66.4774 379.418 65.9314 378.039 65.9448 376.604L70.7788 111.519Z" fill="#BDD0FB"/>
<g opacity="0.52">
<path d="M134.421 126.94L170.683 126.814L170.67 122.156L134.448 122.269L134.421 126.94Z" fill="white"/>
<path d="M134.328 144.092L170.723 143.909L170.71 139.224L134.354 139.378L134.328 144.092Z" fill="white"/>
<path d="M134.221 161.37L170.777 161.159L170.763 156.432L134.248 156.629L134.221 161.37Z" fill="white"/>
<path d="M134.128 178.803L170.83 178.55L170.817 173.78L134.155 174.019L134.128 178.803Z" fill="white"/>
<path d="M134.021 196.377L170.883 196.082L170.87 191.27L134.048 191.551L134.021 196.377Z" fill="white"/>
<path d="M133.808 231.975L170.976 231.581L170.963 226.685L133.835 227.065L133.808 231.975Z" fill="white"/>
<path d="M133.502 286.498L171.136 285.963L171.123 280.954L133.529 281.475L133.502 286.498Z" fill="white"/>
<path d="M133.915 214.106L170.936 213.754L170.91 208.9L133.942 209.237L133.915 214.106Z" fill="white"/>
<path d="M133.715 249.999L171.03 249.563L171.016 244.624L133.742 245.046L133.715 249.999Z" fill="white"/>
<path d="M133.609 268.164L171.083 267.686L171.07 262.705L133.635 263.183L133.609 268.164Z" fill="white"/>
<path d="M133.396 304.986L171.189 304.409L171.176 299.344L133.422 299.907L133.396 304.986Z" fill="white"/>
<path d="M133.276 323.629L171.243 322.996L171.229 317.903L133.316 318.508L133.276 323.629Z" fill="white"/>
<path d="M133.169 342.441L171.296 341.752L171.283 336.616L133.209 337.277L133.169 342.441Z" fill="white"/>
<path d="M133.063 361.408L171.363 360.676L171.336 355.484L133.089 356.202L133.063 361.408Z" fill="white"/>
<path d="M86.8925 127.109L123.368 126.982L123.408 122.311L86.9724 122.424L86.8925 127.109Z" fill="white"/>
<path d="M86.5862 144.303L123.221 144.134L123.261 139.435L86.6794 139.589L86.5862 144.303Z" fill="white"/>
<path d="M86.2932 161.652L123.075 161.441L123.115 156.685L86.3731 156.896L86.2932 161.652Z" fill="white"/>
<path d="M85.9869 179.141L122.928 178.874L122.968 174.09L86.0801 174.343L85.9869 179.141Z" fill="white"/>
<path d="M85.6939 196.771L122.782 196.476L122.822 191.635L85.7739 191.931L85.6939 196.771Z" fill="white"/>
<path d="M85.0814 232.482L122.489 232.088L122.529 227.177L85.1613 227.557L85.0814 232.482Z" fill="white"/>
<path d="M84.1359 287.187L122.023 286.666L122.063 281.629L84.2158 282.15L84.1359 287.187Z" fill="white"/>
<path d="M85.3877 214.556L122.635 214.204L122.675 209.336L85.4676 209.674L85.3877 214.556Z" fill="white"/>
<path d="M84.7617 250.562L122.329 250.126L122.369 245.173L84.8549 245.609L84.7617 250.562Z" fill="white"/>
<path d="M84.4554 268.797L122.183 268.319L122.223 263.324L84.5353 263.802L84.4554 268.797Z" fill="white"/>
<path d="M83.8162 305.746L121.863 305.155L121.903 300.09L83.8961 300.652L83.8162 305.746Z" fill="white"/>
<path d="M83.4966 324.445L121.703 323.826L121.756 318.705L83.5765 319.324L83.4966 324.445Z" fill="white"/>
<path d="M83.1637 343.328L121.543 342.638L121.597 337.474L83.2569 338.15L83.1637 343.328Z" fill="white"/>
<path d="M82.8441 362.365L121.384 361.619L121.437 356.413L82.924 357.131L82.8441 362.365Z" fill="white"/>
</g>
<path d="M164.93 242.837C156.967 216.413 141.546 195.35 123.288 182.968C106.961 171.895 95.2023 154.659 90.8476 134.749C90.3948 132.653 89.8488 130.556 89.2096 128.46C79.6347 96.6749 53.3468 77.1453 30.5081 84.8277C7.66934 92.5101 -3.07752 124.506 6.51076 156.291C8.46836 162.791 11.1318 168.771 14.3146 174.118C24.4888 191.185 28.4706 211.644 24.7285 231.426C21.3859 249.113 22.2915 269.022 28.2708 288.833C37.1799 318.381 55.3976 341.231 76.4918 352.727C84.4688 357.074 91.6733 362.928 97.626 369.991C107.534 381.74 121.477 387.255 134.301 382.95C148.138 378.292 156.767 363.505 157.393 346.226C157.739 336.461 159.923 326.879 163.465 317.832C171.829 296.459 172.987 269.557 164.93 242.837Z" fill="#91DBFA"/>
<path opacity="0.57" d="M48.7258 115.951C58.0477 135.959 66.7437 156.263 75.2267 176.651C77.3574 181.744 79.3949 186.88 81.4591 192.015L84.5486 199.712L87.5849 207.437C89.5825 212.586 91.6599 217.722 93.6042 222.9L99.4504 238.433C103.219 248.845 107.068 259.215 110.663 269.698C112.461 274.932 114.365 280.138 116.057 285.414L121.224 301.215C127.909 322.363 134.088 343.694 139.228 365.32L138.35 365.559L133.915 349.533L132.81 345.523L131.611 341.541L129.214 333.591L126.83 325.641C126.045 322.982 125.152 320.365 124.313 317.734C122.609 312.471 120.944 307.195 119.213 301.933C112.142 280.968 104.817 260.102 97.08 239.404C93.1381 229.091 89.2762 218.735 85.2677 208.435L82.2847 200.711L79.2351 193.014C77.2109 187.879 75.1734 182.743 73.096 177.636C69.0209 167.378 64.866 157.135 60.6445 146.934C56.463 136.719 52.2015 126.532 47.9001 116.373L48.7258 115.951Z" fill="white"/>
<path d="M231.582 190.313C227.853 161.455 215.548 136.719 198.849 120.412C183.907 105.835 174.718 85.7563 173.613 64.3272C173.493 62.076 173.293 59.7966 173 57.5031C168.526 22.7916 144.768 -2.45053 119.932 1.12333C95.0957 4.69719 78.5959 35.7363 83.0838 70.4478C84.0026 77.5393 85.7205 84.2508 88.091 90.3855C95.6684 109.971 96.2943 131.893 89.0764 151.648C82.631 169.306 80.194 190.074 82.9772 211.714C87.1455 243.991 102.034 271.105 121.823 287.032C129.307 293.054 135.726 300.484 140.667 308.94C148.87 322.982 162.32 331.368 176.25 329.356C191.285 327.189 202.697 313.541 206.266 295.798C208.291 285.766 212.153 276.269 217.333 267.587C229.585 247.087 235.351 219.495 231.582 190.313Z" fill="#7D97F4"/>
<path opacity="0.57" d="M133.382 36.8057C139.588 59.276 145.101 81.9433 150.388 104.667C151.707 110.351 152.945 116.05 154.21 121.748L156.088 130.303L157.899 138.872C159.084 144.584 160.349 150.283 161.481 156.009L164.864 173.203C166.981 184.685 169.192 196.166 171.109 207.69C172.068 213.459 173.147 219.199 173.999 224.982L176.636 242.317C179.939 265.462 182.682 288.721 184.307 312.063L183.361 312.148L181.51 294.729L181.057 290.367L180.498 286.019L179.366 277.338L178.261 268.656C177.901 265.758 177.422 262.874 177.022 259.989C176.157 254.22 175.344 248.437 174.452 242.669C170.737 219.635 166.715 196.645 162.267 173.752C159.95 162.327 157.739 150.874 155.342 139.463L153.571 130.894L151.733 122.339C150.508 116.641 149.296 110.942 148.018 105.258C145.554 93.8608 143.024 82.4779 140.4 71.1232C137.83 59.7544 135.167 48.3996 132.463 37.073L133.382 36.8057Z" fill="white"/>
<path d="M345.709 388.69H128.961C127.27 388.69 125.898 387.241 125.898 385.454V75.9634C125.898 74.1764 127.27 72.7272 128.961 72.7272H345.723C347.414 72.7272 348.785 74.1764 348.785 75.9634V385.44C348.785 387.241 347.401 388.69 345.709 388.69Z" fill="url(#paint1_linear_299_777)"/>
<path d="M310.832 347.07H163.359C157.766 347.07 153.238 342.286 153.238 336.377V130.894C153.238 124.984 157.766 120.201 163.359 120.201H310.832C316.425 120.201 320.953 124.984 320.953 130.894V336.377C320.953 342.272 316.425 347.07 310.832 347.07Z" fill="#DCF47D"/>
<path d="M305.252 331.283H169.072C167.394 331.283 166.036 329.848 166.036 328.075V142.066C166.036 140.293 167.394 138.858 169.072 138.858H305.252C306.93 138.858 308.288 140.293 308.288 142.066V328.075C308.288 329.848 306.93 331.283 305.252 331.283Z" fill="url(#paint2_linear_299_777)"/>
<path d="M241.639 101.946C244.245 99.1927 244.245 94.7294 241.639 91.9766C239.034 89.2237 234.81 89.2237 232.204 91.9765C229.599 94.7294 229.599 99.1927 232.204 101.946C234.81 104.698 239.034 104.698 241.639 101.946Z" fill="white"/>
<path d="M280.003 210.687L194.215 212.192C187.689 212.305 182.376 217.666 182.376 224.18V281.263C182.376 287.764 187.689 292.815 194.215 292.534L280.003 288.89C286.169 288.622 291.149 283.318 291.149 277.042V221.873C291.149 215.583 286.169 210.574 280.003 210.687Z" fill="#E2E2E2"/>
<path d="M284.344 200.359C281.747 200.401 279.63 198.277 279.63 195.632V183.137C279.63 170.6 269.602 160.442 257.178 160.47L229.225 160.554C216.481 160.596 206.04 171.065 206.04 183.883V196.673C206.04 199.388 203.829 201.625 201.099 201.668C198.356 201.71 196.146 199.543 196.146 196.813V183.995C196.146 165.69 211.074 150.803 229.225 150.803H257.178C274.823 150.803 289.032 165.268 289.032 183.053V195.505C289.045 198.15 286.941 200.317 284.344 200.359Z" fill="#E2E2E2"/>
<path d="M250.998 242.317C250.998 235.971 245.752 230.99 239.386 231.455C233.753 231.863 229.092 236.632 228.786 242.317C228.546 246.735 230.85 250.548 234.339 252.49C235.83 253.306 236.563 255.036 236.27 256.753L233.819 271.274C233.513 273.117 234.911 274.749 236.763 274.679L243.061 274.439C244.899 274.369 246.297 272.638 245.991 270.823L243.541 256.429C243.248 254.713 244.087 253.01 245.578 252.068C248.828 250.027 250.998 246.397 250.998 242.317Z" fill="#A5A5A5"/>
<path d="M78.7025 389.239C78.7025 389.113 78.7025 388.986 78.6625 388.859C76.878 381.402 68.0488 376.773 68.0488 376.773L64.5598 377.054C62.5489 383.625 62.8019 387.649 63.1349 389.45C63.1482 389.506 63.1615 389.549 63.1748 389.591C66.0513 389.872 71.9907 390.041 78.7025 389.239Z" fill="url(#paint3_linear_299_777)"/>
<path d="M63.1615 389.591C63.3213 390.196 63.7341 390.66 64.2668 390.773C68.3685 391.687 74.8938 390.956 77.6371 390.576C78.2364 390.491 78.6892 389.9 78.6892 389.239C71.9907 390.041 66.0513 389.872 63.1615 389.591Z" fill="#91B3FA"/>
<path d="M63.1482 371.553L64.6264 379.094C64.7329 379.643 65.1324 380.065 65.6251 380.107C66.2244 380.164 67.0634 380.206 67.9157 380.065C68.6747 379.953 69.2074 379.123 69.0742 378.25L68.0488 371.553H63.1482Z" fill="url(#paint4_linear_299_777)"/>
<path d="M93.8573 389.492C89.9953 389.38 87.9978 388.901 86.959 388.451C86.959 388.859 86.9591 389.267 86.9724 389.703C86.9857 390.154 87.3053 390.52 87.7048 390.52L108.919 390.379C109.598 390.379 109.998 389.549 109.705 388.887C106.908 389.127 99.8233 389.675 93.8573 389.492Z" fill="#91B3FA"/>
<path d="M109.691 388.887C109.665 388.831 109.638 388.775 109.611 388.719C107.734 385.947 102.966 380.445 93.5377 378.053L89.0099 377.898C89.0099 377.898 86.999 381.599 86.959 388.451C87.9978 388.901 89.9953 389.38 93.8573 389.492C99.8233 389.675 106.908 389.127 109.691 388.887Z" fill="url(#paint5_linear_299_777)"/>
<path d="M87.9712 370.891C88.0377 371.243 88.9832 376.604 89.3428 378.686C89.436 379.179 89.7956 379.545 90.2217 379.573C90.9941 379.615 92.2459 379.629 93.3246 379.32C93.9106 379.151 94.2968 378.532 94.2568 377.842L93.7507 369.358L87.9712 370.891Z" fill="url(#paint6_linear_299_777)"/>
<path d="M84.5354 271.864C84.5354 271.864 90.7544 317.044 95.2556 370.807C95.3355 371.806 94.5897 372.678 93.6575 372.889C92.2859 373.199 90.275 373.551 88.5971 373.509C87.7048 373.48 86.9591 372.777 86.8126 371.848C85.2811 362.365 74.3611 311.501 71.498 300.301C71.498 300.301 68.2087 347.858 69.2607 372.538C69.2873 373.157 68.8612 373.677 68.2886 373.748C67.4096 373.86 66.0113 373.931 64.2269 373.734C63.5477 373.663 63.0017 373.115 62.9085 372.411C61.8165 364.391 55.5441 316.636 55.8105 282.234C55.8238 280.293 57.9678 264.351 57.9678 264.351L84.5354 271.864Z" fill="url(#paint7_linear_299_777)"/>
<path d="M86.9457 195.885L87.7847 219.523C90.1551 220.381 92.4057 221.057 94.5497 221.549C95.8948 216.99 98.8511 211.376 101.262 207.211C92.3791 203.905 86.9457 195.885 86.9457 195.885Z" fill="url(#paint8_linear_299_777)"/>
<path d="M57.0223 274.468C56.3831 274.228 55.9303 273.609 55.8637 272.906C55.038 264.421 51.0296 211.826 76.3187 190.186C76.3187 190.186 77.7702 186.176 89.689 196.04C101.608 205.903 95.2289 216.23 92.379 230.484C88.9299 247.734 82.8574 261.818 85.5474 272.441C85.7338 273.173 85.3743 273.947 84.6951 274.2C75.4398 277.802 66.2111 277.915 57.0223 274.468Z" fill="url(#paint9_linear_299_777)"/>
<path d="M86.2 174.428C86.1866 175.173 76.0923 190.341 76.0923 190.341C76.0923 190.341 77.9034 194.112 86.5595 197.179L94.0304 180.942L86.2 174.428Z" fill="url(#paint10_linear_299_777)"/>
<path d="M81.1928 226.305C81.1262 226.305 81.0596 226.291 81.0063 226.248C72.9362 220.494 69.1408 211.193 69.1009 211.095C69.0343 210.912 69.1142 210.715 69.274 210.645C69.4471 210.574 69.6336 210.645 69.7001 210.827C69.7401 210.912 73.4556 220.029 81.3659 225.672C81.5124 225.784 81.5523 225.995 81.4591 226.15C81.4058 226.248 81.2993 226.305 81.1928 226.305Z" fill="url(#paint11_linear_299_777)"/>
<path d="M93.218 213.416C93.1115 213.416 93.005 213.36 92.9384 213.262C92.9117 213.219 90.4481 209.167 85.7472 200.289C84.3089 197.559 82.4046 195.828 80.1007 195.153C76.2921 194.027 72.6299 196.18 72.5899 196.208C72.4301 196.307 72.2304 196.251 72.1371 196.082C72.0439 195.913 72.0972 195.702 72.257 195.603C72.4168 195.505 76.1855 193.282 80.2605 194.478C82.7375 195.209 84.775 197.053 86.3065 199.951C90.9941 208.815 93.4444 212.854 93.4711 212.896C93.5643 213.051 93.5243 213.276 93.3778 213.374C93.3379 213.388 93.2713 213.416 93.218 213.416Z" fill="url(#paint12_linear_299_777)"/>
<path d="M94.1502 165.746C94.1502 165.746 97.7458 174.47 97.9856 179.043C98.2253 183.615 99.1574 186.598 94.1502 187.513C89.143 188.442 84.9215 185.796 82.631 181.238C82.631 181.238 79.0487 174.216 79.8477 171.332C80.6601 168.462 94.1502 165.746 94.1502 165.746Z" fill="url(#paint13_linear_299_777)"/>
<path d="M84.3489 177.959L84.6285 177.833C84.9881 177.664 85.1479 177.213 84.9615 176.834C84.2557 175.384 82.884 172.092 84.6552 171.318C86.9457 170.319 96.0279 168.363 97.9856 164.958C99.8633 161.68 98.1986 157.459 95.695 156.263C95.5219 156.178 95.3355 156.249 95.2422 156.418L95.0292 156.84C94.8827 157.121 94.4832 157.079 94.4033 156.769C94.3234 156.474 93.9505 156.417 93.7907 156.671C93.1914 157.684 91.5667 159.344 87.2121 160.188C81.0329 161.398 76.9446 164.044 76.8381 168.546C76.8381 168.828 76.5451 168.996 76.3054 168.842C75.8526 168.546 75.1202 168.405 74.148 169.278C72.4568 170.783 73.1493 174.695 76.8647 177.917C77.0378 178.072 77.0378 178.367 76.8514 178.494C76.1722 178.958 75.1735 180.056 77.7836 181.533C80.4736 183.053 82.4978 182.926 83.2702 182.799C83.4567 182.771 83.5898 182.574 83.5499 182.363L82.7242 178.395C82.6709 178.17 82.8441 177.959 83.0571 177.959H84.3489Z" fill="url(#paint14_linear_299_777)"/>
<path d="M84.4953 178.803C84.4953 178.803 83.1237 173.232 80.7533 174.793C78.3828 176.355 81.9784 181.041 83.8828 181.252L84.4953 178.803Z" fill="url(#paint15_linear_299_777)"/>
<path d="M131.038 194.112C131.038 194.112 129.241 190.735 129.347 189.103C129.467 187.457 128.495 185.051 129.52 185.234C130.546 185.416 130.759 185.262 131.038 187.232C131.331 189.201 134.581 197.784 131.038 194.112Z" fill="url(#paint16_linear_299_777)"/>
<path d="M131.371 188.751L131.331 195.491C119.133 209.406 109.265 210.222 101.262 207.225C98.8378 211.39 95.8814 216.99 94.5497 221.563C127.11 229.147 134.781 197.517 134.781 197.517C139.189 195.589 140.081 194.464 139.894 193.197L131.371 188.751Z" fill="url(#paint17_linear_299_777)"/>
<path d="M140.76 182.054C139.721 181.603 137.684 177.509 137.297 178.86C136.911 180.21 137.457 182.054 137.297 182.631C137.138 183.207 134.594 189.806 135.1 191.27C135.46 192.325 137.484 192.17 137.79 193.901C137.897 194.478 138.323 194.886 138.829 194.886C139.335 194.886 139.774 194.478 139.868 193.901C139.908 193.676 141.799 182.504 140.76 182.054Z" fill="url(#paint18_linear_299_777)"/>
<path d="M107.521 168.011C99.3039 185.191 105.816 206.17 122.076 214.852C135.3 221.915 150.881 218.679 160.669 207.999L217.173 238.18C218.105 238.687 219.224 238.644 220.13 238.068L225.656 234.592C225.749 234.536 225.843 234.466 225.922 234.395C225.949 234.381 225.976 234.353 225.989 234.339C226.056 234.283 226.109 234.226 226.175 234.17C226.202 234.156 226.215 234.128 226.242 234.114C226.322 234.043 226.389 233.959 226.455 233.875C227.148 232.988 227.361 231.736 226.935 230.61L222.447 218.721C222.167 217.989 221.648 217.384 220.982 217.032L215.322 214.007L213.831 217.131L208.97 214.528L210.461 211.404L205.907 208.97L204.535 211.855L198.622 208.703L199.994 205.818L197.797 204.636L197.091 206.114L192.137 203.469L192.843 201.991L188.994 199.937L187.503 203.061L184.746 201.597L186.238 198.474L183.854 197.193L182.362 200.317L177.595 197.77L179.086 194.647L172.375 191.059L169.498 189.525C171.842 174.864 165.064 159.682 151.84 152.619C135.593 143.951 115.737 150.832 107.521 168.011ZM126.764 170.389C130.053 172.148 131.371 176.397 129.707 179.873C128.042 183.348 124.02 184.741 120.731 182.982C117.442 181.223 116.123 176.974 117.788 173.499C119.453 170.024 123.474 168.631 126.764 170.389Z" fill="#878787"/>
<path d="M214.843 215.344L216.334 212.22L221.994 215.246C222.66 215.597 223.179 216.202 223.459 216.934L227.947 228.823C228.506 230.301 227.96 232.003 226.668 232.819L221.142 236.295C220.236 236.858 219.117 236.9 218.185 236.407L149.975 199.965L153.318 178.55L180.112 192.86L178.62 195.983L183.388 198.53L184.879 195.406L187.263 196.687L185.771 199.81L188.528 201.274L190.02 198.15L193.868 200.204L193.162 201.682L198.116 204.327L198.822 202.85L201.02 204.031L199.648 206.916L205.561 210.068L206.932 207.183L211.487 209.617" fill="#CECECE"/>
<path d="M123.088 213.065C139.348 221.746 159.204 214.866 167.421 197.686C175.637 180.506 169.125 159.527 152.865 150.846C136.605 142.164 116.749 149.045 108.533 166.224C100.316 183.404 106.828 204.383 123.088 213.065ZM121.756 181.195C118.467 179.437 117.149 175.187 118.813 171.712C120.478 168.237 124.5 166.844 127.789 168.602C131.078 170.361 132.397 174.61 130.732 178.086C129.068 181.561 125.046 182.954 121.756 181.195Z" fill="url(#paint19_linear_299_777)"/>
<path d="M218.199 236.407C219.131 236.914 220.249 236.872 221.155 236.295L226.681 232.819C227.52 232.299 228.027 231.412 228.146 230.456C222.993 224.56 174.039 201.977 172.215 197.32C171.562 195.66 171.456 193.155 173.4 189.272L170.524 187.738C172.867 173.077 166.089 157.895 152.865 150.832C136.605 142.15 116.749 149.031 108.533 166.21C100.316 183.39 106.828 204.369 123.088 213.051C136.312 220.114 151.893 216.878 161.681 206.198M127.789 168.602C131.078 170.361 132.397 174.61 130.732 178.086C129.068 181.561 125.046 182.954 121.756 181.195C118.467 179.437 117.149 175.187 118.813 171.712C120.478 168.237 124.486 166.844 127.789 168.602Z" fill="#BCBCBC"/>
<path d="M126.018 206.958C139.095 213.937 155.049 208.407 161.654 194.59C168.26 180.773 163.026 163.917 149.949 156.938C136.871 149.959 120.917 155.489 114.312 169.306C107.707 183.123 112.941 199.979 126.018 206.958ZM121.756 181.195C118.467 179.437 117.149 175.187 118.813 171.712C120.478 168.237 124.5 166.844 127.789 168.602C131.078 170.361 132.397 174.61 130.732 178.086C129.068 181.561 125.046 182.954 121.756 181.195Z" fill="#E2E2E2"/>
<path d="M81.1927 226.305C81.1927 226.305 112.261 237.294 129.653 223.308C130.732 222.435 132.09 222.056 133.436 222.295L140.081 223.434C142.864 223.913 145.527 221.999 146.127 219.087C146.473 217.426 146.633 215.611 146.286 214.035L133.755 213.233L134.115 211.517C134.115 211.517 128.575 212.952 128.468 217.525C128.468 217.525 115.471 226.516 91.7665 212.558C91.7399 212.572 82.5111 220.212 81.1927 226.305Z" fill="url(#paint20_linear_299_777)"/>
<g opacity="0.3">
<path d="M321.206 61.6961C320.487 61.6679 319.914 61.0207 319.954 60.2609C320.007 58.7695 320.007 57.2639 319.941 55.7725C319.914 55.0127 320.46 54.3795 321.166 54.3232C321.179 54.3232 321.179 54.3232 321.193 54.3232C321.912 54.2951 322.524 54.886 322.564 55.6458C322.631 57.2217 322.631 58.8117 322.578 60.3735C322.551 61.0911 322.018 61.6539 321.352 61.6961C321.299 61.6961 321.259 61.6961 321.206 61.6961ZM319.168 48.5122C318.915 47.0489 318.596 45.5715 318.223 44.1363C318.036 43.4047 318.449 42.6308 319.142 42.4338C319.848 42.2368 320.567 42.673 320.753 43.4047C321.139 44.9102 321.472 46.4579 321.739 48.0057C321.872 48.7514 321.392 49.483 320.687 49.6237C320.633 49.6378 320.58 49.6378 320.527 49.6378C319.888 49.6941 319.288 49.2157 319.168 48.5122ZM315.959 37.27C315.4 35.9052 314.787 34.5404 314.121 33.2318C313.775 32.5564 314.015 31.7122 314.654 31.3605C315.293 30.9946 316.092 31.2479 316.425 31.9233C317.131 33.3022 317.783 34.7373 318.369 36.1866C318.649 36.8901 318.343 37.7062 317.677 38.0017C317.53 38.072 317.384 38.1001 317.237 38.1142C316.705 38.1424 316.185 37.8187 315.959 37.27ZM310.446 27.0549C309.607 25.8449 308.728 24.6771 307.796 23.5514C307.316 22.9745 307.383 22.1022 307.929 21.5957C308.475 21.0891 309.3 21.1595 309.78 21.7364C310.752 22.9183 311.698 24.1565 312.576 25.4228C313.003 26.0419 312.869 26.9142 312.297 27.3645C312.084 27.5193 311.844 27.6178 311.604 27.6318C311.152 27.6459 310.712 27.4489 310.446 27.0549ZM302.908 18.3876C301.843 17.4168 300.724 16.4741 299.592 15.5876C299.006 15.1374 298.887 14.265 299.313 13.6459C299.739 13.0268 300.565 12.9002 301.15 13.3504C302.349 14.2791 303.521 15.264 304.64 16.2911C305.186 16.7977 305.239 17.67 304.773 18.2469C304.533 18.5424 304.2 18.6972 303.867 18.7253C303.521 18.7534 303.188 18.6409 302.908 18.3876ZM293.76 11.7042C292.521 11.0007 291.229 10.3394 289.937 9.74844C289.272 9.4389 288.965 8.62282 289.258 7.93337C289.551 7.22986 290.31 6.90624 290.976 7.21579C292.335 7.83488 293.693 8.52432 294.998 9.27005C295.637 9.63588 295.877 10.466 295.531 11.1414C295.304 11.5776 294.891 11.8449 294.452 11.8731C294.226 11.8871 293.986 11.8309 293.76 11.7042ZM245.072 11.057C244.726 10.3816 244.979 9.53739 245.618 9.18563C246.923 8.45397 248.282 7.76453 249.653 7.14543C250.319 6.84996 251.092 7.17358 251.371 7.87709C251.651 8.58061 251.345 9.39668 250.679 9.69216C249.374 10.2831 248.095 10.9304 246.844 11.6339C246.67 11.7324 246.497 11.7886 246.311 11.7886C245.818 11.8309 245.325 11.5635 245.072 11.057ZM283.425 7.34242C282.067 6.94845 280.669 6.61076 279.284 6.34342C278.578 6.20272 278.099 5.48513 278.232 4.72534C278.365 3.97961 279.044 3.47308 279.763 3.61378C281.228 3.89519 282.693 4.26102 284.118 4.66906C284.81 4.86604 285.223 5.63991 285.037 6.37157C284.89 6.96252 284.398 7.35649 283.852 7.38463C283.718 7.3987 283.572 7.38463 283.425 7.34242ZM255.58 6.32936C255.393 5.5977 255.806 4.82383 256.498 4.62685C257.937 4.21881 259.402 3.86705 260.866 3.58564C261.586 3.44494 262.265 3.95147 262.385 4.6972C262.518 5.44293 262.038 6.17458 261.332 6.30122C259.948 6.56855 258.549 6.89217 257.191 7.28614C257.098 7.31428 257.018 7.32835 256.925 7.32835C256.325 7.3987 255.753 6.97659 255.58 6.32936ZM272.439 5.51328C271.027 5.44292 269.602 5.44292 268.191 5.51328C267.472 5.54142 266.859 4.95046 266.819 4.19067C266.792 3.43087 267.338 2.7977 268.044 2.75549C268.058 2.75549 268.058 2.75549 268.071 2.75549C269.549 2.68514 271.054 2.68514 272.545 2.75549C273.265 2.78363 273.824 3.43087 273.797 4.20474C273.771 4.92232 273.238 5.48514 272.572 5.52735C272.532 5.51328 272.492 5.51328 272.439 5.51328Z" fill="#91DAFA"/>
<path d="M238.614 17.1354C238.867 17.1213 239.133 17.0228 239.346 16.8399C239.879 16.3896 240.425 15.9535 240.971 15.5313C241.557 15.0811 241.69 14.2087 241.25 13.5896C240.824 12.9705 239.999 12.8298 239.413 13.2942C238.84 13.7444 238.254 14.2087 237.708 14.6731C237.135 15.1514 237.042 16.0238 237.495 16.6148C237.775 16.9806 238.201 17.1635 238.614 17.1354Z" fill="#91DAFA"/>
</g>
<g opacity="0.3">
<path d="M219.504 54.2247C220.13 54.1825 220.662 53.6619 220.729 52.9725C220.795 52.2549 220.875 51.5373 220.968 50.8338C221.062 50.074 220.569 49.3705 219.85 49.272C219.131 49.1735 218.465 49.6941 218.372 50.4539C218.278 51.1996 218.185 51.9594 218.119 52.7051C218.052 53.4649 218.571 54.1403 219.304 54.2107C219.357 54.2247 219.437 54.2247 219.504 54.2247Z" fill="#91DAFA"/>
<path d="M270.934 113.362C270.215 113.376 269.616 112.757 269.602 111.997C269.589 111.238 270.175 110.605 270.894 110.59C272.279 110.576 273.677 110.492 275.062 110.337C275.781 110.267 276.421 110.816 276.501 111.575C276.58 112.335 276.048 113.011 275.329 113.095C274.729 113.151 274.117 113.208 273.518 113.25C272.652 113.306 271.786 113.348 270.934 113.362ZM280.789 110.83C280.616 110.084 281.055 109.338 281.761 109.169C283.119 108.832 284.464 108.424 285.783 107.973C286.475 107.734 287.207 108.128 287.434 108.86C287.66 109.591 287.287 110.365 286.595 110.605C285.21 111.083 283.785 111.505 282.36 111.871C282.28 111.885 282.214 111.899 282.134 111.899C281.521 111.941 280.948 111.505 280.789 110.83ZM263.796 112.954C262.345 112.771 260.893 112.504 259.455 112.194C258.749 112.04 258.296 111.308 258.443 110.548C258.589 109.803 259.282 109.324 260.001 109.479C261.359 109.774 262.744 110.028 264.116 110.211C264.835 110.309 265.341 110.998 265.261 111.758C265.181 112.434 264.662 112.926 264.049 112.968C263.956 112.968 263.876 112.968 263.796 112.954ZM291.482 107.129C291.163 106.44 291.429 105.61 292.082 105.272C293.333 104.625 294.559 103.921 295.757 103.175C296.383 102.781 297.182 102.992 297.555 103.654C297.928 104.315 297.728 105.159 297.102 105.553C295.85 106.341 294.545 107.087 293.227 107.762C293.067 107.847 292.907 107.889 292.734 107.903C292.228 107.931 291.722 107.65 291.482 107.129ZM252.583 110.126C251.211 109.606 249.84 109.015 248.508 108.367C247.856 108.044 247.563 107.228 247.856 106.538C248.162 105.849 248.934 105.539 249.587 105.849C250.852 106.454 252.157 107.017 253.449 107.509C254.128 107.762 254.488 108.564 254.234 109.282C254.048 109.817 253.595 110.168 253.089 110.196C252.943 110.225 252.756 110.196 252.583 110.126ZM242.236 104.779C240.997 103.949 239.785 103.063 238.627 102.134C238.054 101.67 237.934 100.798 238.374 100.192C238.813 99.5875 239.639 99.4608 240.212 99.9252C241.317 100.812 242.476 101.656 243.647 102.444C244.26 102.852 244.446 103.71 244.047 104.357C243.807 104.751 243.421 104.976 243.022 105.005C242.755 105.019 242.476 104.948 242.236 104.779ZM233.234 97.1814C232.195 96.084 231.196 94.9442 230.25 93.7623C229.784 93.1714 229.851 92.299 230.397 91.8066C230.956 91.3141 231.782 91.3845 232.248 91.9614C233.14 93.0729 234.099 94.1704 235.085 95.2116C235.591 95.7463 235.604 96.6327 235.085 97.1674C234.845 97.4206 234.552 97.5473 234.246 97.5754C233.886 97.6035 233.513 97.4769 233.234 97.1814ZM226.016 87.684C225.23 86.3754 224.497 85.0247 223.818 83.6599C223.485 82.9845 223.725 82.1403 224.378 81.7885C225.017 81.4367 225.816 81.7041 226.149 82.3794C226.788 83.6739 227.494 84.9684 228.24 86.2066C228.626 86.8538 228.453 87.7121 227.84 88.1201C227.64 88.2468 227.441 88.3171 227.227 88.3312C226.748 88.3453 226.282 88.1201 226.016 87.684ZM220.955 76.7373C220.462 75.288 220.023 73.7966 219.65 72.3051C219.464 71.5594 219.877 70.8136 220.582 70.6167C221.275 70.4197 221.994 70.8559 222.18 71.6016C222.54 73.0227 222.953 74.4438 223.419 75.8227C223.659 76.5403 223.312 77.3423 222.62 77.5955C222.5 77.6378 222.38 77.6659 222.26 77.68C221.701 77.68 221.155 77.3282 220.955 76.7373ZM218.278 64.89C218.145 63.7644 218.039 62.6247 217.972 61.485C217.946 61.077 217.932 60.6689 217.906 60.2609C217.879 59.5011 218.425 58.8398 219.157 58.8257C219.876 58.7976 220.489 59.3885 220.516 60.1483C220.529 60.5423 220.556 60.9222 220.569 61.3162C220.636 62.3855 220.729 63.483 220.862 64.5524C220.955 65.3122 220.436 66.0016 219.73 66.1001C219.703 66.1001 219.677 66.1001 219.65 66.1142C218.984 66.1423 218.372 65.6217 218.278 64.89Z" fill="#91DAFA"/>
<path d="M302.256 101.515C302.522 101.501 302.775 101.403 302.988 101.22C303.547 100.755 304.094 100.263 304.64 99.7563C305.186 99.2498 305.239 98.3774 304.759 97.8006C304.28 97.2237 303.454 97.1674 302.908 97.6739C302.389 98.1523 301.87 98.6166 301.337 99.0528C300.778 99.5312 300.684 100.404 301.137 100.995C301.43 101.374 301.843 101.543 302.256 101.515Z" fill="#91DAFA"/>
</g>
<path d="M304.733 77.9192C304.879 77.694 304.879 77.3986 304.733 77.1734L300.418 70.7433C301.75 67.3383 302.575 63.6941 302.802 59.9091L309.354 56.1524C309.58 56.0257 309.713 55.7443 309.66 55.477L308.195 46.1484C308.155 45.881 307.955 45.6559 307.689 45.6137L300.338 44.3051C298.966 40.8157 297.062 37.6358 294.772 34.864L296.902 27.3082C296.982 27.0409 296.889 26.7595 296.676 26.5906L289.405 21.0891C289.192 20.9343 288.912 20.9343 288.699 21.0891L282.613 25.6479C279.39 24.2409 275.941 23.3685 272.359 23.1293L268.803 16.2067C268.683 15.9675 268.417 15.8268 268.164 15.8831L259.335 17.4308C259.082 17.473 258.869 17.6841 258.829 17.9655L257.59 25.7323C254.288 27.1816 251.278 29.1936 248.655 31.6137L241.503 29.3625C241.25 29.278 240.984 29.3765 240.824 29.6017L235.617 37.2841C235.471 37.5092 235.471 37.8047 235.617 38.0298L239.932 44.4599C238.6 47.8649 237.775 51.5092 237.548 55.2941L231.023 59.0649C230.796 59.1916 230.663 59.473 230.717 59.7403L232.181 69.0689C232.221 69.3363 232.421 69.5614 232.687 69.6036L240.038 70.9121C241.41 74.4016 243.314 77.5815 245.605 80.3533L243.474 87.9091C243.394 88.1764 243.488 88.4578 243.701 88.6267L250.972 94.1282C251.185 94.2829 251.465 94.2829 251.678 94.1282L257.764 89.5694C260.986 90.9764 264.435 91.8488 268.018 92.088L271.573 99.0106C271.693 99.2498 271.959 99.3905 272.212 99.3342L281.042 97.7865C281.295 97.7442 281.508 97.5332 281.548 97.2518L282.786 89.485C286.089 88.0357 289.099 86.0237 291.722 83.6036L298.873 85.8548C299.126 85.9392 299.393 85.8407 299.552 85.6156L304.733 77.9192Z" fill="#91DAFA"/>
<path d="M269.443 67.0709C264.502 66.6348 260.813 62.0338 261.226 56.8137C261.426 54.281 262.544 51.9875 264.382 50.3554C266.22 48.7092 268.537 47.9212 270.934 48.1323C275.875 48.5685 279.563 53.1695 279.151 58.3895C278.778 63.1453 275.142 66.7895 270.761 67.085C270.321 67.1131 269.882 67.1131 269.443 67.0709ZM265.727 52.0438C264.315 53.2961 263.463 55.0549 263.317 56.9966C262.997 60.9925 265.834 64.5242 269.616 64.8619C273.411 65.1996 276.74 62.2026 277.06 58.2066C277.379 54.2107 274.543 50.679 270.761 50.3413C270.415 50.3132 270.082 50.3132 269.736 50.3272C268.271 50.4398 266.872 51.0308 265.727 52.0438Z" fill="#BDD0FB"/>
<path d="M271.4 80.8036C272.146 80.7473 272.905 80.6629 273.664 80.5362C273.904 80.494 274.143 80.4518 274.37 80.3955C275.528 80.1563 276.674 79.8046 277.779 79.3825C277.792 79.3825 277.806 79.3684 277.819 79.3684C277.859 79.3543 277.899 79.3402 277.952 79.3121C278.032 79.284 278.112 79.2418 278.205 79.2136C278.418 79.1292 278.551 78.9041 278.538 78.6649C278.538 78.6086 278.525 78.5523 278.498 78.496C278.392 78.2146 278.085 78.0739 277.819 78.1865C276.434 78.7634 274.982 79.1855 273.491 79.4528C266.127 80.7473 259.015 77.8066 254.354 72.3332C251.771 69.294 249.946 65.4669 249.267 61.1332C249.147 60.3734 249.067 59.6136 249.014 58.8539C248.708 53.7604 250.066 48.7514 252.916 44.5443C256.192 39.7041 261.053 36.5102 266.593 35.5393C278.059 33.5273 288.912 41.7443 290.816 53.8589C290.936 54.6046 291.016 55.3503 291.056 56.1101C291.256 59.3604 290.776 62.6247 289.644 65.6498C289.618 65.7342 289.605 65.8046 289.605 65.889C289.618 66.1001 289.738 66.283 289.937 66.3674C290.204 66.48 290.51 66.3393 290.617 66.0579C291.802 62.878 292.308 59.4448 292.108 56.0398C292.055 55.2519 291.975 54.4639 291.855 53.676C289.858 40.9705 278.445 32.3454 266.42 34.4559C260.587 35.483 255.486 38.8318 252.05 43.9112C249.054 48.3292 247.643 53.5915 247.962 58.9383C248.015 59.7262 248.095 60.5282 248.215 61.3302C249.187 67.493 252.357 72.882 257.164 76.5121C261.359 79.6357 266.34 81.1412 271.4 80.8036Z" fill="#BDD0FB"/>
<g opacity="0.3">
<path d="M368.188 95.1272C368.535 95.099 368.841 94.8458 368.921 94.4659C369.067 93.7624 369.201 93.0307 369.32 92.3131C369.387 91.8488 369.094 91.4126 368.655 91.3282C368.215 91.2438 367.802 91.5674 367.722 92.0317C367.616 92.7212 367.496 93.4106 367.349 94.086C367.256 94.5503 367.523 95.0005 367.962 95.1131C368.042 95.1272 368.122 95.1272 368.188 95.1272Z" fill="#91DAFA"/>
<path d="M368.921 88.5986C368.468 88.5845 368.122 88.1764 368.148 87.7121C368.188 86.5161 368.175 85.3061 368.109 84.1242C368.095 83.8709 368.082 83.6176 368.055 83.3644C368.015 82.9001 368.348 82.478 368.788 82.4357C369.214 82.4217 369.627 82.7453 369.667 83.2237C369.693 83.491 369.707 83.7443 369.72 84.0116C369.8 85.2639 369.813 86.5302 369.76 87.7684C369.747 88.2046 369.414 88.5563 369.001 88.5845C368.974 88.5986 368.948 88.5986 368.921 88.5986ZM367.443 79.0729C367.163 77.6518 366.79 76.2448 366.351 74.88C366.204 74.4297 366.431 73.9513 366.857 73.7966C367.283 73.6418 367.736 73.881 367.882 74.3312C368.348 75.7664 368.734 77.2438 369.027 78.7212C369.121 79.1855 368.841 79.6358 368.402 79.7343C368.362 79.7483 368.322 79.7483 368.282 79.7483C367.895 79.7765 367.536 79.4951 367.443 79.0729ZM364.793 70.8699C364.193 69.5755 363.514 68.2951 362.768 67.085C362.529 66.6911 362.635 66.1564 363.008 65.9031C363.381 65.6498 363.887 65.7624 364.127 66.1564C364.912 67.4227 365.632 68.7594 366.257 70.1242C366.457 70.5463 366.284 71.0669 365.885 71.2639C365.791 71.3202 365.685 71.3483 365.578 71.3483C365.245 71.3624 364.939 71.1795 364.793 70.8699ZM360.305 63.5956C359.426 62.4981 358.467 61.4288 357.468 60.4579C357.135 60.1343 357.122 59.5996 357.428 59.2479C357.735 58.8961 358.241 58.882 358.574 59.2056C359.626 60.2328 360.624 61.3443 361.557 62.4981C361.85 62.8639 361.796 63.3986 361.463 63.7081C361.33 63.8348 361.157 63.8911 360.997 63.9051C360.731 63.9192 360.478 63.8207 360.305 63.5956ZM354.272 57.7142C353.167 56.87 351.995 56.0961 350.796 55.3926C350.41 55.1675 350.264 54.6469 350.477 54.2247C350.69 53.8167 351.183 53.6619 351.582 53.8871C352.834 54.6187 354.059 55.4348 355.231 56.3072C355.591 56.5886 355.67 57.1232 355.417 57.5031C355.271 57.7142 355.045 57.8408 354.805 57.8549C354.618 57.883 354.432 57.8268 354.272 57.7142ZM347.081 53.5494C345.816 53.0147 344.497 52.5645 343.179 52.1986C342.753 52.0861 342.487 51.6077 342.593 51.1574C342.7 50.7072 343.152 50.4258 343.579 50.5383C344.964 50.9182 346.335 51.3966 347.68 51.9594C348.093 52.1283 348.293 52.6348 348.133 53.071C348.013 53.3946 347.733 53.5916 347.427 53.6057C347.321 53.6197 347.201 53.5916 347.081 53.5494ZM339.144 51.3685C337.799 51.1856 336.414 51.0871 335.042 51.073C334.59 51.073 334.23 50.679 334.243 50.2147C334.243 49.7363 334.616 49.3705 335.056 49.3705C336.494 49.3846 337.945 49.483 339.357 49.68C339.797 49.7363 340.116 50.1725 340.05 50.6368C339.996 51.0449 339.677 51.3544 339.304 51.3825C339.251 51.3825 339.197 51.3825 339.144 51.3685ZM325.907 51.4529C325.8 50.9886 326.067 50.5243 326.506 50.4258C327.705 50.1162 328.943 49.877 330.182 49.6941C330.368 49.666 330.554 49.6378 330.741 49.6238C331.18 49.5534 331.593 49.9052 331.633 50.3695C331.686 50.8338 331.367 51.27 330.927 51.3122C330.754 51.3263 330.581 51.3544 330.395 51.3825C329.209 51.5514 328.024 51.7765 326.879 52.072C326.826 52.0861 326.786 52.0861 326.732 52.1001C326.36 52.1283 326 51.8609 325.907 51.4529Z" fill="#91DAFA"/>
</g>
<g opacity="0.3">
<path d="M336.534 123.226C335.122 123.296 333.697 123.282 332.299 123.183C331.86 123.155 331.513 122.747 331.553 122.269C331.58 121.79 331.979 121.453 332.419 121.481C333.751 121.579 335.122 121.593 336.467 121.523C336.92 121.495 337.293 121.861 337.32 122.339C337.32 122.804 336.987 123.197 336.534 123.226ZM339.81 122.044C339.73 121.579 340.036 121.129 340.476 121.059C341.807 120.82 343.126 120.496 344.418 120.088C344.844 119.961 345.296 120.215 345.43 120.665C345.563 121.115 345.31 121.593 344.884 121.734C343.539 122.156 342.14 122.508 340.755 122.761C340.729 122.761 340.702 122.775 340.662 122.775C340.249 122.775 339.89 122.48 339.81 122.044ZM328.091 122.592C326.706 122.311 325.321 121.931 323.989 121.467C323.563 121.326 323.337 120.834 323.47 120.383C323.603 119.933 324.069 119.694 324.495 119.835C325.774 120.271 327.092 120.637 328.41 120.904C328.85 120.988 329.13 121.439 329.05 121.903C328.983 122.297 328.663 122.564 328.304 122.592C328.224 122.621 328.157 122.607 328.091 122.592ZM347.8 119.736C347.627 119.3 347.813 118.793 348.213 118.611C349.451 118.034 350.65 117.386 351.808 116.655C352.195 116.416 352.687 116.542 352.914 116.95C353.14 117.358 353.02 117.879 352.634 118.118C351.422 118.878 350.157 119.567 348.865 120.172C348.772 120.215 348.679 120.243 348.586 120.243C348.253 120.257 347.933 120.074 347.8 119.736ZM320.047 119.821C318.769 119.187 317.517 118.47 316.319 117.682C315.946 117.429 315.826 116.908 316.066 116.5C316.305 116.092 316.798 115.979 317.184 116.233C318.329 116.978 319.515 117.668 320.74 118.273C321.139 118.47 321.326 118.976 321.126 119.413C320.993 119.708 320.726 119.891 320.447 119.905C320.3 119.919 320.167 119.891 320.047 119.821ZM312.856 115.093C311.751 114.15 310.699 113.137 309.727 112.082C309.42 111.744 309.42 111.195 309.74 110.872C310.06 110.548 310.579 110.548 310.885 110.886C311.817 111.899 312.829 112.87 313.882 113.756C314.228 114.052 314.281 114.586 314.001 114.966C313.855 115.163 313.642 115.262 313.415 115.29C313.229 115.304 313.029 115.234 312.856 115.093ZM306.957 108.691C306.104 107.509 305.305 106.257 304.6 104.962C304.373 104.554 304.506 104.034 304.893 103.795C305.279 103.555 305.771 103.696 305.998 104.104C306.677 105.328 307.436 106.524 308.248 107.65C308.515 108.03 308.448 108.564 308.089 108.846C307.955 108.958 307.809 109.015 307.649 109.015C307.396 109.043 307.13 108.916 306.957 108.691Z" fill="#91DAFA"/>
<path d="M355.737 115.754C355.897 115.74 356.043 115.684 356.176 115.571C356.722 115.121 357.268 114.657 357.775 114.178C358.107 113.869 358.147 113.32 357.854 112.968C357.561 112.617 357.055 112.574 356.709 112.884C356.216 113.334 355.71 113.784 355.178 114.207C354.818 114.502 354.765 115.037 355.031 115.403C355.218 115.656 355.471 115.768 355.737 115.754Z" fill="#91DAFA"/>
</g>
<path d="M357.881 99.6297C357.988 99.4749 357.988 99.2779 357.881 99.1231L354.991 94.8176C355.883 92.5382 356.429 90.1041 356.589 87.5714L360.971 85.0669C361.13 84.9825 361.21 84.7995 361.184 84.6166L360.198 78.3835C360.172 78.2006 360.038 78.0599 359.865 78.0317L354.951 77.1453C354.032 74.8096 352.767 72.685 351.223 70.8277L352.647 65.7765C352.701 65.5936 352.634 65.4106 352.488 65.2981L347.614 61.6117C347.467 61.4991 347.281 61.4991 347.134 61.6117L343.059 64.6649C340.902 63.7222 338.598 63.1453 336.201 62.9765L333.83 58.3473C333.751 58.1785 333.577 58.0941 333.404 58.1222L327.505 59.1634C327.332 59.1916 327.199 59.3323 327.172 59.5152L326.333 64.7071C324.122 65.678 322.111 67.0147 320.354 68.6468L315.573 67.1413C315.4 67.085 315.227 67.1554 315.12 67.3101L311.631 72.4599C311.524 72.6147 311.524 72.8116 311.631 72.9664L314.521 77.2719C313.629 79.5513 313.083 81.9855 312.923 84.5182L308.541 87.0227C308.382 87.1071 308.302 87.29 308.328 87.4729L309.314 93.7061C309.34 93.889 309.474 94.0297 309.647 94.0578L314.561 94.9443C315.48 97.2799 316.745 99.4046 318.289 101.262L316.865 106.313C316.811 106.496 316.878 106.679 317.024 106.791L321.898 110.478C322.045 110.59 322.231 110.59 322.378 110.478L326.453 107.425C328.61 108.367 330.914 108.944 333.311 109.113L335.682 113.742C335.761 113.911 335.935 113.995 336.108 113.967L342.007 112.926C342.18 112.898 342.313 112.757 342.34 112.574L343.179 107.382C345.39 106.412 347.401 105.075 349.158 103.443L353.939 104.948C354.112 105.005 354.285 104.934 354.392 104.779L357.881 99.6297Z" fill="#91DAFA"/>
<path d="M334.257 92.496C332.632 92.3553 331.14 91.5533 330.088 90.2307C329.036 88.9081 328.53 87.2337 328.663 85.5171C328.943 81.9573 331.899 79.3121 335.282 79.6076C338.651 79.9031 341.155 83.0407 340.875 86.5865C340.742 88.303 339.983 89.8789 338.731 90.9905C337.719 91.905 336.481 92.4256 335.176 92.5101C334.869 92.5241 334.563 92.5101 334.257 92.496ZM330.275 85.6438C330.182 86.9101 330.554 88.1483 331.327 89.1191C332.099 90.09 333.191 90.6809 334.39 90.7935C335.588 90.892 336.76 90.498 337.679 89.6819C338.598 88.8659 339.157 87.7121 339.264 86.4458C339.464 83.8287 337.626 81.5211 335.149 81.3101C334.922 81.296 334.709 81.2819 334.483 81.3101C332.286 81.4367 330.461 83.2659 330.275 85.6438Z" fill="#BDD0FB"/>
<path d="M335.628 102.036C336.134 102.008 336.654 101.937 337.173 101.853C338.198 101.67 339.211 101.388 340.169 100.994C340.209 100.98 340.263 100.952 340.303 100.938C340.635 100.798 340.835 100.446 340.809 100.094C340.809 100.01 340.782 99.9251 340.755 99.8267C340.596 99.3905 340.116 99.1794 339.703 99.3483C338.798 99.7282 337.866 99.9955 336.907 100.164C336.853 100.178 336.8 100.178 336.747 100.192C334.483 100.572 332.206 100.333 330.102 99.5312C328.956 99.095 327.864 98.5041 326.839 97.7443C326.826 97.7443 326.826 97.7302 326.812 97.7302C326.786 97.7161 326.759 97.688 326.732 97.6739C323.776 95.4367 321.805 92.1161 321.219 88.3171C321.139 87.8247 321.086 87.3322 321.059 86.8398C320.86 83.5473 321.739 80.297 323.576 77.5674C325.694 74.4438 328.837 72.3614 332.432 71.7423C336.028 71.1091 339.637 71.9956 342.593 74.2327C345.549 76.4699 347.52 79.7905 348.106 83.5895C348.186 84.0679 348.239 84.5604 348.266 85.0387C348.386 87.1493 348.08 89.2598 347.347 91.2156C347.307 91.3423 347.281 91.4548 347.294 91.5814C347.307 91.9051 347.507 92.2005 347.8 92.3272C348.213 92.496 348.692 92.285 348.852 91.8488C349.678 89.6538 350.024 87.29 349.877 84.9403C349.851 84.3915 349.784 83.8568 349.704 83.3081C349.039 79.0589 346.841 75.3443 343.525 72.8398C340.209 70.3353 336.174 69.3363 332.152 70.0538C328.131 70.7574 324.615 73.079 322.245 76.5825C320.18 79.6357 319.195 83.2659 319.421 86.9523C319.448 87.501 319.515 88.0498 319.595 88.5985C320.913 96.8156 327.918 102.556 335.628 102.036Z" fill="#BDD0FB"/>
<defs>
<linearGradient id="paint0_linear_299_777" x1="413.988" y1="503.481" x2="66.1953" y2="94.6681" gradientUnits="userSpaceOnUse">
<stop stop-color="#DAE3FE"/>
<stop offset="1" stop-color="#E9EFFD"/>
</linearGradient>
<linearGradient id="paint1_linear_299_777" x1="303.107" y1="-174.669" x2="213.596" y2="319.522" gradientUnits="userSpaceOnUse">
<stop stop-color="#E2D240"/>
<stop offset="1" stop-color="#FFAE4F"/>
</linearGradient>
<linearGradient id="paint2_linear_299_777" x1="166.035" y1="235.07" x2="308.291" y2="235.07" gradientUnits="userSpaceOnUse">
<stop stop-color="#E2A140"/>
<stop offset="1" stop-color="#FFA34F"/>
</linearGradient>
<linearGradient id="paint3_linear_299_777" x1="62.9063" y1="383.305" x2="78.7029" y2="383.305" gradientUnits="userSpaceOnUse">
<stop stop-color="#005D52"/>
<stop offset="1" stop-color="#0F8991"/>
</linearGradient>
<linearGradient id="paint4_linear_299_777" x1="67.2982" y1="364.297" x2="63.9354" y2="392.075" gradientUnits="userSpaceOnUse">
<stop stop-color="#FEBBBA"/>
<stop offset="1" stop-color="#FF928E"/>
</linearGradient>
<linearGradient id="paint5_linear_299_777" x1="86.9563" y1="383.72" x2="109.692" y2="383.72" gradientUnits="userSpaceOnUse">
<stop stop-color="#005D52"/>
<stop offset="1" stop-color="#0F8991"/>
</linearGradient>
<linearGradient id="paint6_linear_299_777" x1="91.462" y1="367.236" x2="89.95" y2="395.192" gradientUnits="userSpaceOnUse">
<stop stop-color="#FEBBBA"/>
<stop offset="1" stop-color="#FF928E"/>
</linearGradient>
<linearGradient id="paint7_linear_299_777" x1="87.2958" y1="390.542" x2="52.6053" y2="233.983" gradientUnits="userSpaceOnUse">
<stop stop-color="#003C5D"/>
<stop offset="1" stop-color="#0F917A"/>
</linearGradient>
<linearGradient id="paint8_linear_299_777" x1="119.189" y1="175.576" x2="46.0021" y2="251.995" gradientUnits="userSpaceOnUse">
<stop stop-color="#4042E2"/>
<stop offset="1" stop-color="#4F52FF"/>
</linearGradient>
<linearGradient id="paint9_linear_299_777" x1="105.774" y1="180.042" x2="-3.59461" y2="370.036" gradientUnits="userSpaceOnUse">
<stop stop-color="#E2C840"/>
<stop offset="1" stop-color="#FFCE4F"/>
</linearGradient>
<linearGradient id="paint10_linear_299_777" x1="79.334" y1="202.154" x2="87.0499" y2="182.212" gradientUnits="userSpaceOnUse">
<stop stop-color="#FEBBBA"/>
<stop offset="1" stop-color="#FF928E"/>
</linearGradient>
<linearGradient id="paint11_linear_299_777" x1="85.3977" y1="136.991" x2="81.7707" y2="163.205" gradientUnits="userSpaceOnUse">
<stop stop-color="#4042E2"/>
<stop offset="1" stop-color="#4F52FF"/>
</linearGradient>
<linearGradient id="paint12_linear_299_777" x1="91.0916" y1="137.779" x2="87.4646" y2="163.993" gradientUnits="userSpaceOnUse">
<stop stop-color="#4042E2"/>
<stop offset="1" stop-color="#4F52FF"/>
</linearGradient>
<linearGradient id="paint13_linear_299_777" x1="96.5563" y1="171.829" x2="53.0478" y2="204.626" gradientUnits="userSpaceOnUse">
<stop stop-color="#FEBBBA"/>
<stop offset="1" stop-color="#FF928E"/>
</linearGradient>
<linearGradient id="paint14_linear_299_777" x1="80.4392" y1="160.271" x2="100.905" y2="185.21" gradientUnits="userSpaceOnUse">
<stop stop-color="#09005D"/>
<stop offset="1" stop-color="#1A0F91"/>
</linearGradient>
<linearGradient id="paint15_linear_299_777" x1="92.354" y1="169.904" x2="70.9859" y2="185.378" gradientUnits="userSpaceOnUse">
<stop stop-color="#FEBBBA"/>
<stop offset="1" stop-color="#FF928E"/>
</linearGradient>
<linearGradient id="paint16_linear_299_777" x1="140.982" y1="180.878" x2="95.4528" y2="218.1" gradientUnits="userSpaceOnUse">
<stop stop-color="#FEBBBA"/>
<stop offset="1" stop-color="#FF928E"/>
</linearGradient>
<linearGradient id="paint17_linear_299_777" x1="141.889" y1="184.579" x2="97.5705" y2="220.812" gradientUnits="userSpaceOnUse">
<stop stop-color="#FEBBBA"/>
<stop offset="1" stop-color="#FF928E"/>
</linearGradient>
<linearGradient id="paint18_linear_299_777" x1="142.592" y1="182.847" x2="97.0634" y2="220.07" gradientUnits="userSpaceOnUse">
<stop stop-color="#FEBBBA"/>
<stop offset="1" stop-color="#FF928E"/>
</linearGradient>
<linearGradient id="paint19_linear_299_777" x1="99.6602" y1="178.926" x2="272.272" y2="191.141" gradientUnits="userSpaceOnUse">
<stop stop-color="#FF9085"/>
<stop offset="1" stop-color="#FB6FBB"/>
</linearGradient>
<linearGradient id="paint20_linear_299_777" x1="115.032" y1="215.422" x2="92.0408" y2="323.972" gradientUnits="userSpaceOnUse">
<stop stop-color="#FEBBBA"/>
<stop offset="1" stop-color="#FF928E"/>
</linearGradient>
</defs>
</svg>
