<svg width="17" height="17" viewBox="0 0 17 18" fill="none" xmlns="http://www.w3.org/2000/svg">
<g id="padlock 1" clip-path="url(#clip0_299_889)">
<g id="Group">
<g id="Group_2">
<path id="Vector" d="M13.0032 7.7296V5.03742C13.0104 3.81927 12.5239 2.64798 11.6553 1.79383C10.8156 0.957706 9.71635 0.5 8.55226 0.5C8.53424 0.5 8.51262 0.5 8.4946 0.5C6.01145 0.503604 3.99322 2.53625 3.99322 5.03742V7.7296C3.05619 7.84132 2.37143 8.62699 2.37143 9.57844V15.6259C2.37143 16.6531 3.19314 17.5 4.22027 17.5H12.7797C13.8069 17.5 14.6286 16.6531 14.6286 15.6259V9.57844C14.625 8.63059 13.9402 7.84132 13.0032 7.7296ZM4.71042 5.03742H4.71402C4.71402 2.93269 6.4115 1.20999 8.4982 1.20999H8.50181C9.4929 1.20638 10.4444 1.59922 11.1471 2.29839C11.8787 3.02279 12.286 4.01028 12.2788 5.03742V7.7332H11.4859V5.03742C11.4931 4.21931 11.1688 3.43364 10.5885 2.85701C10.0407 2.3092 9.29829 1.99926 8.52343 1.99926H8.50181C6.84398 1.99926 5.50329 3.36156 5.50329 5.03381V7.7332H4.71042V5.03742ZM10.7687 5.03742V7.7332H6.22769V5.03742C6.22769 3.76161 7.24402 2.72366 8.50541 2.72366H8.52704C9.11088 2.72366 9.6731 2.95792 10.0876 3.37238C10.5272 3.81206 10.7759 4.41393 10.7687 5.03742ZM13.9402 15.6367C13.9402 16.2674 13.4285 16.7792 12.7978 16.7792H4.23469C3.60399 16.7792 3.09223 16.2674 3.09223 15.6367V9.59646C3.09223 8.96576 3.60399 8.454 4.23469 8.454H12.7978C13.4285 8.454 13.9402 8.96576 13.9402 9.59646V15.6367Z" fill="#2C2C2C"/>
</g>
</g>
<g id="Group_3">
<g id="Group_4">
<path id="Vector_2" d="M9.74518 12.3932C9.5866 11.8345 9.07844 11.4525 8.4982 11.4525C7.781 11.4525 7.19716 12.0328 7.19716 12.7536C7.19716 13.3338 7.57918 13.842 8.1378 14.0005V15.0096C8.1378 15.2079 8.29998 15.37 8.4982 15.37C8.69642 15.37 8.8586 15.2079 8.8586 15.0096V14.0005C9.54696 13.8023 9.947 13.0815 9.74518 12.3932ZM8.4982 13.3302C8.17744 13.3302 7.91796 13.0707 7.91796 12.7499C7.91796 12.4292 8.17744 12.1697 8.4982 12.1697C8.81895 12.1697 9.07844 12.4292 9.07844 12.7499C9.07844 13.0707 8.81895 13.3302 8.4982 13.3302Z" fill="#2C2C2C"/>
</g>
</g>
</g>
<defs>
<clipPath id="clip0_299_889">
<rect width="17" height="17" fill="white" transform="translate(0 0.5)"/>
</clipPath>
</defs>
</svg>
