<svg width="24" height="24" viewBox="0 0 24 24" fill="none" xmlns="http://www.w3.org/2000/svg">
<g id="circum:logout">
<path id="Vector" d="M3.03201 5.55199C3.04171 5.20683 3.12067 4.86714 3.26421 4.5531C3.40776 4.23906 3.61294 3.95706 3.86759 3.72387C4.12224 3.49067 4.42116 3.31103 4.74659 3.19561C5.07203 3.08019 5.41733 3.03135 5.76201 3.05199C7.91501 3.03999 10.068 3.05199 12.221 3.05199C12.3536 3.05199 12.4808 3.10466 12.5746 3.19843C12.6683 3.2922 12.721 3.41938 12.721 3.55199C12.721 3.6846 12.6683 3.81177 12.5746 3.90554C12.4808 3.99931 12.3536 4.05199 12.221 4.05199C10.021 4.05199 7.82101 4.01999 5.62101 4.05199C4.51401 4.06799 4.03201 4.89998 4.03201 5.88999L4.03201 18.353C4.02429 18.6677 4.11284 18.9773 4.28582 19.2404C4.4588 19.5034 4.70797 19.7074 5.00001 19.825C5.34526 19.9192 5.70451 19.9514 6.06101 19.92H12.221C12.3536 19.92 12.4808 19.9727 12.5746 20.0664C12.6683 20.1602 12.721 20.2874 12.721 20.42C12.721 20.5526 12.6683 20.6798 12.5746 20.7735C12.4808 20.8673 12.3536 20.92 12.221 20.92C9.99701 20.92 7.75601 21.005 5.53401 20.92C5.19374 20.9114 4.85857 20.8352 4.54802 20.6958C4.23747 20.5565 3.95774 20.3568 3.72509 20.1083C3.49245 19.8599 3.31154 19.5676 3.19289 19.2486C3.07425 18.9295 3.02024 18.5901 3.03401 18.25L3.03201 5.55199Z" fill="white"/>
<path id="Vector_2" d="M20.824 12.337C20.9085 12.2551 20.9579 12.1436 20.962 12.026C20.962 12.011 20.962 11.998 20.968 11.983C20.974 11.968 20.968 11.956 20.962 11.942C20.958 11.8241 20.9085 11.7123 20.824 11.63L17.155 7.96098C17.0607 7.8699 16.9344 7.81951 16.8033 7.82065C16.6722 7.82179 16.5468 7.87437 16.4541 7.96707C16.3614 8.05978 16.3088 8.18518 16.3076 8.31628C16.3065 8.44738 16.3569 8.57368 16.448 8.66798L19.263 11.484L8.52097 11.484C8.38837 11.484 8.26119 11.5367 8.16742 11.6304C8.07365 11.7242 8.02097 11.8514 8.02097 11.984C8.02097 12.1166 8.07365 12.2438 8.16742 12.3375C8.26119 12.4313 8.38837 12.484 8.52097 12.484L19.263 12.484L16.448 15.3C16.3569 15.3943 16.3065 15.5206 16.3076 15.6517C16.3088 15.7828 16.3614 15.9082 16.4541 16.0009C16.5468 16.0936 16.6722 16.1462 16.8033 16.1473C16.9344 16.1485 17.0607 16.0981 17.155 16.007L20.824 12.337Z" fill="white"/>
</g>
</svg>
