<svg width="17" height="18" viewBox="0 0 17 18" fill="none" xmlns="http://www.w3.org/2000/svg">
<g id="message 1">
<g id="Group">
<g id="Group_2">
<path id="Vector" d="M1.49414 3.17648H15.5059C16.3297 3.17648 17 3.84675 17 4.67062V13.3294C17 14.1533 16.3297 14.8235 15.5059 14.8235H1.49414C0.670271 14.8235 0 14.1533 0 13.3294V4.67062C0 3.84675 0.670271 3.17648 1.49414 3.17648ZM1.68914 4.17258L1.88856 4.33863L7.90719 9.35034C8.25071 9.63635 8.74936 9.63635 9.09281 9.35034L15.1114 4.33863L15.3109 4.17258H1.68914ZM16.0039 4.89169L11.1001 8.97511L16.0039 12.2387V4.89169ZM1.49414 13.8274H15.5059C15.7465 13.8274 15.9478 13.6559 15.9939 13.4286L10.3014 9.64014L9.73018 10.1158C9.37377 10.4126 8.93685 10.561 8.49997 10.561C8.06308 10.561 7.62619 10.4126 7.26976 10.1158L6.69853 9.64014L1.00605 13.4286C1.05221 13.6559 1.25348 13.8274 1.49414 13.8274ZM0.996094 12.2387L5.89993 8.97514L0.996094 4.89169V12.2387Z" fill="#2C2C2C"/>
</g>
</g>
</g>
</svg>
