<svg width="21" height="26" viewBox="0 0 21 26" fill="none" xmlns="http://www.w3.org/2000/svg">
<g id="tdesign:money" clip-path="url(#clip0_7_106)">
<g id="Group">
<path id="Vector" d="M19.7692 8.23231C19.7689 7.90545 19.6763 7.58443 19.5008 7.30145C19.3252 7.01846 19.073 6.78347 18.7692 6.62004L11.7692 2.89226C11.4652 2.72867 11.1203 2.64255 10.7692 2.64255C10.4182 2.64255 10.0733 2.72867 9.76923 2.89226L2.76923 6.62004C2.46549 6.78347 2.21321 7.01846 2.03769 7.30145C1.86217 7.58443 1.76959 7.90545 1.76923 8.23231V15.6879C1.76959 16.0147 1.86217 16.3357 2.03769 16.6187C2.21321 16.9017 2.46549 17.1367 2.76923 17.3001L9.76923 21.0279C10.0733 21.1915 10.4182 21.2776 10.7692 21.2776C11.1203 21.2776 11.4652 21.1915 11.7692 21.0279L18.7692 17.3001C19.073 17.1367 19.3252 16.9017 19.5008 16.6187C19.6763 16.3357 19.7689 16.0147 19.7692 15.6879V8.23231Z" stroke="#9E9E9E" stroke-width="2" stroke-linecap="round" stroke-linejoin="round"/>
<path id="Vector_2" d="M2.06921 7.30035L10.7692 11.9601M10.7692 11.9601L19.4692 7.30035M10.7692 11.9601V21.2795" stroke="#9E9E9E" stroke-width="2" stroke-linecap="round" stroke-linejoin="round"/>
</g>
</g>
<defs>
<clipPath id="clip0_7_106">
<rect width="20" height="24.9931" fill="white" transform="translate(0.820007 0.5)"/>
</clipPath>
</defs>
</svg>
