<svg width="30" height="30" viewBox="0 0 30 30" fill="none" xmlns="http://www.w3.org/2000/svg">
<g id="Icon">
<g id="icon">
<path id="Combined Shape" fill-rule="evenodd" clip-rule="evenodd" d="M0.324951 10.3109L12.9459 16.8075C13.0818 16.8775 13.2243 16.928 13.3694 16.9601V29.56L1.22508 23.1522C0.667156 22.8579 0.324951 22.3228 0.324951 21.7448V10.3109ZM29.6751 10.1381V21.7447C29.6751 22.3227 29.3329 22.8578 28.775 23.1522L16.6307 29.56V16.8497C16.6602 16.8365 16.6896 16.8224 16.7186 16.8075L29.6751 10.1381Z" fill="#FF981A"/>
<path id="Path" opacity="0.499209" fill-rule="evenodd" clip-rule="evenodd" d="M0.721436 7.15761C0.875596 6.98405 1.07018 6.83736 1.29703 6.72963L14.1377 0.631986C14.6767 0.376008 15.3233 0.376008 15.8623 0.631986L28.703 6.72963C28.8778 6.81267 29.0335 6.91887 29.1663 7.04268L15.0879 14.2895C14.9954 14.3372 14.91 14.3917 14.8322 14.4519C14.7544 14.3917 14.6691 14.3372 14.5765 14.2895L0.721436 7.15761Z" fill="#FF981A"/>
</g>
</g>
</svg>
