<svg width="20" height="25" viewBox="0 0 20 25" fill="none" xmlns="http://www.w3.org/2000/svg">
<g id="tdesign:money" clip-path="url(#clip0_2266_269)">
<path id="Vector" d="M7.22247 1.98205L7.22225 1.9822L5.52601 3.16184L5.52592 3.16191C4.66132 3.76289 4.00346 4.22226 3.49922 4.66743C2.99048 5.11872 2.61759 5.57409 2.34603 6.18553L2.34599 6.18561C2.07197 6.8023 1.94103 7.48645 1.8767 8.34833L7.22247 1.98205ZM7.22247 1.98205C7.92847 1.4905 8.46484 1.11813 8.9194 0.868509C9.38099 0.615333 9.75245 0.493057 10.1316 0.493057C10.5105 0.493057 10.8812 0.615206 11.3439 0.868607C11.7985 1.11823 12.3348 1.49057 13.0407 1.98205L13.0409 1.9822L14.7371 3.16184L14.7372 3.16191C15.6025 3.76334 16.2607 4.22244 16.763 4.66732L16.7633 4.66758C17.2731 5.11841 17.6453 5.57358 17.917 6.18516C18.1905 6.80239 18.3222 7.4859 18.3865 8.34833C18.4488 9.19007 18.4491 10.2311 18.4491 11.5742V11.7873C18.4491 13.1304 18.4488 14.1714 18.3865 15.0131C18.3221 15.875 18.1912 16.5591 17.9172 17.1758L17.9171 17.1759C17.6454 17.7877 17.2732 18.2429 16.7633 18.6939L17.0945 19.0684L16.7633 18.6939C16.26 19.139 15.6023 19.5982 14.7373 20.2006C14.7373 20.2006 14.7373 20.2006 14.7372 20.2006C14.7371 20.2007 14.737 20.2008 14.7369 20.2009L13.0411 21.3791L13.0407 21.3794C12.3346 21.871 11.7982 22.2434 11.3436 22.4931C10.8821 22.7462 10.5107 22.8684 10.1316 22.8684C9.75258 22.8684 9.38194 22.7462 8.9191 22.4928C8.4646 22.2432 7.92831 21.8708 7.22247 21.3794L7.22225 21.3793L5.52601 20.1996L5.52592 20.1995C4.66067 19.5981 4.00243 19.139 3.50015 18.6941L3.49986 18.6939M7.22247 1.98205L3.49986 18.6939M3.49986 18.6939C2.99006 18.243 2.61788 17.7879 2.34619 17.1763M3.49986 18.6939L2.34619 17.1763M2.33871 6.82722L2.97486 7.24883L9.79263 11.7673L10.0164 11.9156V12.1841V21.6027V22.3523L9.32435 22.0644C9.19209 22.0094 9.05507 21.9423 8.90812 21.8615C8.45443 21.613 7.91813 21.2402 7.19756 20.739L7.19745 20.7389L5.55741 19.5976L2.33871 6.82722ZM2.33871 6.82722L2.20623 7.57881M2.33871 6.82722L2.20623 7.57881M2.20623 7.57881C2.16174 7.83121 2.12799 8.11237 2.10406 8.43293L2.10403 8.43327M2.20623 7.57881L2.10403 8.43327M2.10403 8.43327C2.04494 9.23226 2.04444 10.2356 2.04444 11.6166M2.10403 8.43327L2.04444 11.6166M2.49269 16.7545L2.49243 16.7539C2.27723 16.2678 2.16284 15.7143 2.10408 14.9277L2.49269 16.7545ZM2.49269 16.7545C2.7106 17.245 3.02397 17.6475 3.52046 18.087L3.85188 17.7127M2.49269 16.7545L3.85188 17.7127M3.85188 17.7127L3.52047 18.087C4.01653 18.5262 4.67185 18.9827 5.55699 19.5973L3.85188 17.7127ZM18.1592 8.43558C18.1396 8.14866 18.1056 7.86359 18.0573 7.58221L17.9278 6.82637L17.2884 7.24984L14.5718 9.0492L14.3479 9.1975V9.46605V12.768C14.3479 12.8902 14.3102 12.9883 14.2686 13.0434C14.2533 13.0636 14.2404 13.0745 14.2327 13.0798C14.225 13.0745 14.2122 13.0636 14.1969 13.0434C14.1553 12.9883 14.1176 12.8902 14.1176 12.768V10.2826V9.35134L13.3413 9.86578L10.4705 11.7684L10.2468 11.9167V12.1852V21.6017V22.3445L10.935 22.0649C11.0698 22.0101 11.2082 21.9422 11.3547 21.8617M18.1592 8.43558C18.2187 9.2292 18.2187 10.226 18.2187 11.5946V11.6177V11.7449C18.2187 13.1258 18.2182 14.1292 18.1591 14.9271L18.1591 14.9274C18.1004 15.7148 17.9869 16.2675 17.7716 16.7539L17.771 16.7553C17.5524 17.2451 17.2394 17.6473 16.7439 18.0867L16.7432 18.0873C16.2482 18.5247 15.5956 18.9787 14.7159 19.5906L14.7062 19.5973L14.7061 19.5974L13.0657 20.7389L13.0656 20.739C12.3449 21.2403 11.8085 21.6132 11.3547 21.8617M18.1592 8.43558C18.1593 8.43612 18.1593 8.43666 18.1593 8.43721L17.6605 8.47124L18.1591 8.43378C18.1591 8.43438 18.1592 8.43498 18.1592 8.43558ZM11.3547 21.8617C11.3548 21.8617 11.3549 21.8616 11.355 21.8615L11.2122 21.6017M11.3547 21.8617C11.3546 21.8618 11.3545 21.8618 11.3544 21.8619L11.2119 21.6017M11.2122 21.6017H11.2119M11.2122 21.6017H11.2468V21.3485C11.2016 21.3747 11.1575 21.3997 11.1142 21.4234M11.2122 21.6017L11.1142 21.4234M11.2119 21.6017L11.1142 21.4234M11.2119 21.6017H10.7468M11.1142 21.4234C10.9797 21.4973 10.8591 21.556 10.7468 21.6017M10.7468 21.6017V21.052C10.6777 21.0869 10.6155 21.1153 10.5585 21.1384L10.7468 21.6017ZM2.34619 17.1763C2.07266 16.5591 1.94099 15.8756 1.8767 15.0131L2.34619 17.1763ZM2.04444 11.6166V11.7438M2.04444 11.6166V11.7438M2.04444 11.7438V11.7667M2.04444 11.7438V11.7667M2.04444 11.7667C2.04443 13.1363 2.04443 14.1336 2.10406 14.9275L2.04444 11.7667ZM7.19674 2.62246L7.19667 2.62251L6.98259 2.77146L6.3935 3.18132L6.98206 3.59195L13.954 8.45619L14.2329 8.65073L14.5163 8.46295L17.2485 6.65272L17.6964 6.35592L17.3682 5.93047C17.1972 5.7089 16.993 5.49607 16.7442 5.275L16.7432 5.27413C16.2465 4.83521 15.5914 4.3788 14.7062 3.76412C14.7062 3.76411 14.7061 3.76409 14.7061 3.76408C14.706 3.764 14.7059 3.76391 14.7058 3.76383L13.0657 2.62253L13.0656 2.62246C12.3449 2.12117 11.8085 1.74827 11.3547 1.49974C10.9037 1.25185 10.5278 1.12389 10.1316 1.12389C9.73637 1.12389 9.35983 1.25171 8.90879 1.49955C8.45503 1.74803 7.91797 2.12083 7.19674 2.62246ZM6.39828 3.79263L6.1129 3.37451L5.69835 3.66505L5.55741 3.76383C5.55711 3.76404 5.55681 3.76424 5.55651 3.76445C4.67324 4.37777 4.01885 4.8337 3.52321 5.27199C3.29841 5.46549 3.08969 5.68476 2.89918 5.92614L2.56264 6.35254L3.01542 6.65266L9.85534 11.1864L10.1317 11.3696L10.408 11.1863L13.1615 9.35976L13.774 8.95347L13.1711 8.53299L6.44077 3.83867C6.44074 3.83865 6.44071 3.83863 6.44068 3.83861C6.43149 3.83217 6.41586 3.81837 6.39828 3.79263ZM1.81409 11.5753C1.81409 10.2311 1.8144 9.19014 1.87669 8.34842L1.87668 15.0129C1.8144 14.1712 1.81409 13.1302 1.81409 11.7862V11.5753Z" fill="white" stroke="#9E9E9E"/>
</g>
<defs>
<clipPath id="clip0_2266_269">
<rect width="20" height="24.9931" fill="white"/>
</clipPath>
</defs>
</svg>
