<svg width="20" height="25" viewBox="0 0 20 25" fill="none" xmlns="http://www.w3.org/2000/svg">
<g id="tdesign:money">
<path id="Vector" d="M9.54775 13.0172C8.80919 13.0172 8.10088 13.4012 7.57864 14.0848C7.05639 14.7683 6.763 15.6954 6.763 16.6621C6.763 17.6287 7.05639 18.5558 7.57864 19.2393C8.10088 19.9229 8.80919 20.3069 9.54775 20.3069C10.2863 20.3069 10.9946 19.9229 11.5169 19.2393C12.0391 18.5558 12.3325 17.6287 12.3325 16.6621C12.3325 15.6954 12.0391 14.7683 11.5169 14.0848C10.9946 13.4012 10.2863 13.0172 9.54775 13.0172ZM8.35429 16.6621C8.35429 16.2478 8.48003 15.8504 8.70385 15.5575C8.92766 15.2646 9.23123 15.1 9.54775 15.1C9.86428 15.1 10.1678 15.2646 10.3917 15.5575C10.6155 15.8504 10.7412 16.2478 10.7412 16.6621C10.7412 17.0763 10.6155 17.4737 10.3917 17.7666C10.1678 18.0595 9.86428 18.2241 9.54775 18.2241C9.23123 18.2241 8.92766 18.0595 8.70385 17.7666C8.48003 17.4737 8.35429 17.0763 8.35429 16.6621Z" fill="#9E9E9E"/>
<path id="Vector_2" d="M13.9445 5.32769L11.4151 0.686264L2.11484 10.4107L1.59926 10.4034V10.4138H1.19348V22.9103H17.902V10.4138H17.1366L15.6137 4.5831L13.9445 5.32769ZM15.4554 10.4138H7.47668L13.4193 7.76243L14.6303 7.25528L15.4554 10.4138ZM12.3723 6.02958L6.23786 8.76632L11.0961 3.68647L12.3723 6.02958ZM2.78477 18.9208V14.4012C3.12045 14.2455 3.42535 13.9937 3.67724 13.6642C3.92913 13.3347 4.12166 12.9358 4.2408 12.4965H14.8547C14.9738 12.936 15.1663 13.3351 15.4182 13.6647C15.67 13.9944 15.975 14.2464 16.3107 14.4023V18.9218C15.975 19.0777 15.67 19.3297 15.4182 19.6593C15.1663 19.989 14.9738 20.3881 14.8547 20.8276H4.24239C4.12319 20.3878 3.93047 19.9884 3.67829 19.6585C3.42612 19.3286 3.12085 19.0766 2.78477 18.9208Z" fill="#9E9E9E"/>
</g>
</svg>
