<svg width="20" height="21" viewBox="0 0 20 21" fill="none" xmlns="http://www.w3.org/2000/svg">
<g id="Vector">
<path id="Vector_2" d="M9.54772 15.2693C9.06766 15.2694 8.60517 15.0663 8.25236 14.7005C7.89955 14.3346 7.68231 13.8329 7.64391 13.2952C6.37042 12.7886 5.29713 11.7928 4.61348 10.4836C3.92984 9.17427 3.67981 7.63568 3.90753 6.13939C4.13524 4.64309 4.82607 3.28531 5.85805 2.3057C6.89003 1.3261 8.19681 0.787672 9.54772 0.785461C10.9846 0.785227 12.369 1.39173 13.4266 2.48471C14.4841 3.57768 15.1375 5.07732 15.2573 6.68627C15.2612 6.75606 15.2523 6.82601 15.2309 6.8917C15.2095 6.95738 15.1763 7.01735 15.1332 7.0678C15.0901 7.11825 15.0381 7.15807 14.9806 7.18474C14.923 7.21141 14.8612 7.22433 14.799 7.2227C14.6711 7.21886 14.5491 7.16188 14.4565 7.06279C14.364 6.9637 14.3074 6.82954 14.2977 6.68627C14.2127 5.73767 13.9042 4.83168 13.404 4.06156C12.9039 3.29144 12.2301 2.68503 11.452 2.30474C10.674 1.92446 9.81984 1.78405 8.97747 1.89797C8.1351 2.01189 7.33497 2.37602 6.65945 2.95288C5.98393 3.52974 5.45743 4.29847 5.13415 5.17995C4.81087 6.06143 4.70249 7.0238 4.82018 7.96798C4.93786 8.91216 5.27736 9.80404 5.80371 10.5518C6.33006 11.2996 7.02425 11.8762 7.81481 12.2223C7.95866 11.873 8.18346 11.5737 8.46565 11.3556C8.74785 11.1375 9.07705 11.0087 9.41877 10.9827C9.76048 10.9567 10.1021 11.0344 10.4079 11.2078C10.7137 11.3811 10.9724 11.6437 11.1568 11.968C11.3412 12.2923 11.4447 12.6664 11.4562 13.051C11.4678 13.4357 11.3871 13.8167 11.2226 14.1543C11.058 14.4918 10.8157 14.7734 10.5211 14.9696C10.2264 15.1658 9.89022 15.2693 9.54772 15.2693ZM4.78246 12.5871H4.86934C5.2417 12.9958 5.65512 13.3563 6.10291 13.6599H4.78246C4.24683 13.6599 3.81909 14.1395 3.81909 14.7328C3.81909 16.1372 4.41296 17.1833 5.41642 17.901C6.43803 18.6338 7.89119 19.0243 9.54772 19.0243C11.2043 19.0243 12.6574 18.6338 13.679 17.901C14.6815 17.1822 15.2764 16.1383 15.2764 14.7328C15.2764 14.4483 15.1758 14.1754 14.9967 13.9742C14.8177 13.773 14.5748 13.6599 14.3216 13.6599H12.3729C12.426 13.3048 12.426 12.9422 12.3729 12.5871H14.3216C14.828 12.5871 15.3137 12.8131 15.6718 13.2155C16.0299 13.618 16.2311 14.1637 16.2311 14.7328C16.2311 16.547 15.4358 17.915 14.1927 18.8065C12.9687 19.6831 11.3188 20.0972 9.54772 20.0972C7.77662 20.0972 6.12678 19.6831 4.90276 18.8065C3.65964 17.916 2.86432 16.546 2.86432 14.7328C2.86432 13.5387 3.72648 12.5871 4.78246 12.5871ZM13.3668 7.2227C13.3673 7.94871 13.2037 8.66297 12.8914 9.29854C12.5792 9.93411 12.1284 10.4702 11.5814 10.8565C11.3264 10.5679 11.0251 10.336 10.6934 10.1731C11.2966 9.87733 11.7906 9.35721 12.0926 8.70023C12.3946 8.04324 12.4861 7.28944 12.3516 6.5656C12.2172 5.84175 11.865 5.19199 11.3544 4.72558C10.8438 4.25918 10.2058 4.00457 9.54772 4.00457C8.88968 4.00457 8.25169 4.25918 7.74106 4.72558C7.23042 5.19199 6.87827 5.84175 6.74383 6.5656C6.60938 7.28944 6.70084 8.04324 7.00282 8.70023C7.3048 9.35721 7.79889 9.87733 8.402 10.1731C8.06783 10.3373 7.76707 10.5701 7.51406 10.8565C6.78943 10.3433 6.2388 9.57193 5.95014 8.66572C5.80297 8.20262 5.72803 7.71445 5.72864 7.2227C5.72864 6.08453 6.131 4.99297 6.84722 4.18816C7.56344 3.38335 8.53484 2.93121 9.54772 2.93121C10.5606 2.93121 11.532 3.38335 12.2482 4.18816C12.9644 4.99297 13.3668 6.08453 13.3668 7.2227Z" fill="#9E9E9E"/>
</g>
</svg>
