<svg width="70" height="64" viewBox="0 0 70 64" fill="none" xmlns="http://www.w3.org/2000/svg">
<g id="Icon">
<path id="Circle 2" opacity="0.85" fill-rule="evenodd" clip-rule="evenodd" d="M35.3452 63.354C35.3396 63.354 35.3339 63.354 35.3282 63.354C35.3225 63.354 35.3168 63.354 35.3112 63.354H23.9771C11.2745 63.354 0.977051 53.0566 0.977051 40.354V31.677V23C0.977051 10.2975 11.2745 0 23.9771 0H35.3282H46.6793C59.3819 0 69.6793 10.2974 69.6793 23V31.677V40.354C69.6793 53.0566 59.3819 63.354 46.6793 63.354H35.3452Z" fill="#FF981A"/>
<g id="icon">
<path id="Combined Shape" fill-rule="evenodd" clip-rule="evenodd" d="M18.1526 25.6758L32.9241 33.5402C33.0832 33.6249 33.25 33.6861 33.4198 33.7249V48.9776L19.2061 41.2208C18.5531 40.8644 18.1526 40.2167 18.1526 39.517V25.6758ZM52.5039 25.4667V39.517C52.5039 40.2167 52.1034 40.8644 51.4504 41.2208L37.2367 48.9776V33.5913C37.2714 33.5753 37.3057 33.5583 37.3397 33.5402L52.5039 25.4667Z" fill="white"/>
<path id="Path" opacity="0.499209" fill-rule="evenodd" clip-rule="evenodd" d="M18.6167 21.8586C18.7971 21.6485 19.0249 21.471 19.2904 21.3406L34.319 13.9591C34.9499 13.6492 35.7067 13.6492 36.3376 13.9591L51.3662 21.3406C51.5709 21.4411 51.7531 21.5696 51.9085 21.7195L35.4312 30.4921C35.3229 30.5498 35.223 30.6158 35.1319 30.6887C35.0409 30.6158 34.941 30.5498 34.8327 30.4921L18.6167 21.8586Z" fill="white"/>
</g>
</g>
</svg>
