<svg width="70" height="64" viewBox="0 0 70 64" fill="none" xmlns="http://www.w3.org/2000/svg">
<g id="Icon">
<path id="Circle 2" opacity="0.842657" fill-rule="evenodd" clip-rule="evenodd" d="M0.977051 31.677V40.354C0.977051 53.0566 11.2745 63.354 23.9771 63.354L35.3282 63.354L46.6793 63.354C59.3819 63.354 69.6793 53.0566 69.6793 40.354V31.677V23C69.6793 10.2975 59.3819 0 46.6793 0H35.3282H23.9771C11.2745 0 0.977051 10.2975 0.977051 23V31.677Z" fill="#83B4BF"/>
<g id="Group">
<path id="Combined Shape" opacity="0.587821" fill-rule="evenodd" clip-rule="evenodd" d="M24.6414 24.6377C24.6414 27.7479 27.3755 30.2692 30.7482 30.2692C34.121 30.2692 36.8551 27.7479 36.8551 24.6377C36.8551 21.5275 34.121 19.0062 30.7482 19.0062C27.3755 19.0062 24.6414 21.5275 24.6414 24.6377ZM39.9084 30.2691C39.9084 32.6018 41.9591 34.4927 44.4886 34.4927C47.0181 34.4927 49.0688 32.6018 49.0688 30.2691C49.0688 27.9365 47.0181 26.0455 44.4886 26.0455C41.9591 26.0455 39.9084 27.9365 39.9084 30.2691Z" fill="white"/>
<path id="Combined Shape_2" fill-rule="evenodd" clip-rule="evenodd" d="M30.7226 33.0849C23.5143 33.0849 17.6003 36.5011 17.0086 43.2204C16.9763 43.5864 17.7354 44.3478 18.1183 44.3478H43.3384C44.4853 44.3478 44.5031 43.4967 44.4853 43.2215C44.0379 36.3134 38.0323 33.0849 30.7226 33.0849ZM52.8185 44.3478L46.9312 44.3478C46.9312 41.1788 45.7958 38.2543 43.8796 35.9015C49.0806 35.9538 53.3272 38.3785 53.6468 43.5031C53.6597 43.7095 53.6468 44.3478 52.8185 44.3478Z" fill="white"/>
</g>
</g>
</svg>
