<svg width="70" height="64" viewBox="0 0 70 64" fill="none" xmlns="http://www.w3.org/2000/svg">
<g id="Icon">
<path id="Circle 2" opacity="0.842657" fill-rule="evenodd" clip-rule="evenodd" d="M0.977051 31.677V40.354C0.977051 53.0566 11.2745 63.354 23.9771 63.354L35.3282 63.354L46.6793 63.354C59.3819 63.354 69.6793 53.0566 69.6793 40.354V31.677V23C69.6793 10.2975 59.3819 0 46.6793 0H35.3282H23.9771C11.2745 0 0.977051 10.2975 0.977051 23V31.677Z" fill="#9E9E9E"/>
<path id="Vector" d="M45.5 19.9C45.5 18.305 44.15 17 42.5 17H38V19.9H42.5V23.7425L37.25 30.05H32V22.8H26C22.685 22.8 20 25.3955 20 28.6V32.95H23C23 35.357 25.01 37.3 27.5 37.3C29.99 37.3 32 35.357 32 32.95H38.75L45.5 24.7575V19.9ZM27.5 34.4C26.675 34.4 26 33.7475 26 32.95H29C29 33.7475 28.325 34.4 27.5 34.4ZM24.5 18.45H32V21.35H24.5V18.45ZM45.5 28.6C43.01 28.6 41 30.543 41 32.95C41 35.357 43.01 37.3 45.5 37.3C47.99 37.3 50 35.357 50 32.95C50 30.543 47.99 28.6 45.5 28.6ZM45.5 34.4C44.675 34.4 44 33.7475 44 32.95C44 32.1525 44.675 31.5 45.5 31.5C46.325 31.5 47 32.1525 47 32.95C47 33.7475 46.325 34.4 45.5 34.4ZM27.5 41.65H33.5V38.75L42.5 43.1H36.5V46L27.5 41.65Z" fill="white"/>
</g>
</svg>
