<svg width="70" height="64" viewBox="0 0 70 64" fill="none" xmlns="http://www.w3.org/2000/svg">
<g id="Icon">
<path id="Circle 2" opacity="0.84" fill-rule="evenodd" clip-rule="evenodd" d="M35.3452 63.354C35.3396 63.354 35.3339 63.354 35.3282 63.354C35.3225 63.354 35.3168 63.354 35.3112 63.354H23.9771C11.2745 63.354 0.977051 53.0566 0.977051 40.354V31.677V23C0.977051 10.2975 11.2745 0 23.9771 0H35.3282H46.6793C59.3819 0 69.6793 10.2974 69.6793 23V31.677V40.354C69.6793 53.0566 59.3819 63.354 46.6793 63.354H35.3452Z" fill="#00B074"/>
<g id="icon">
<path id="Path 95" d="M22.8602 43.1746H49.5778C50.5615 43.1746 51.3589 43.91 51.3589 44.8171C51.3589 45.7243 50.5615 46.4596 49.5778 46.4596H21.079C20.0953 46.4596 19.2979 45.7243 19.2979 44.8171V18.5369C19.2979 17.6298 20.0953 16.8944 21.079 16.8944C22.0627 16.8944 22.8602 17.6298 22.8602 18.5369V43.1746Z" fill="white"/>
<path id="Path 97" opacity="0.759394" d="M29.5035 36.0854C28.8307 36.7472 27.7035 36.7807 26.9858 36.1603C26.2682 35.5399 26.2318 34.5004 26.9046 33.8387L33.584 27.2686C34.2347 26.6286 35.3159 26.5731 36.0396 27.1425L41.3114 31.2909L48.1801 23.2679C48.7896 22.5559 49.9097 22.4344 50.6818 22.9965C51.4539 23.5586 51.5856 24.5915 50.9761 25.3035L42.9608 34.6658C42.3348 35.3971 41.1752 35.5022 40.4066 34.8975L35.0203 30.6589L29.5035 36.0854Z" fill="white"/>
</g>
</g>
</svg>
