<svg width="17" height="17" viewBox="0 0 16 20" fill="none" xmlns="http://www.w3.org/2000/svg">
<path opacity="0.587821" d="M7.77711 8.83075C5.86797 8.83075 4.32031 6.99165 4.32031 4.72299C4.32031 2.45434 5.86797 0.615234 7.77711 0.615234C9.68625 0.615234 11.2339 2.45434 11.2339 4.72299C11.2339 6.99165 9.68625 8.83075 7.77711 8.83075Z" fill="#2C2C2C"/>
<path d="M0.000563185 18.2778C0.335533 13.3765 3.68314 10.8846 7.7634 10.8846C11.9011 10.8846 15.3006 13.2396 15.5538 18.2786C15.5639 18.4794 15.5538 19.1002 14.9046 19.1002C11.7022 19.1002 6.94361 19.1002 0.628707 19.1002C0.411975 19.1002 -0.017683 18.5448 0.000563185 18.2778Z" fill="#2C2C2C"/>
</svg>
