<svg width="20" height="21" viewBox="0 0 20 21" fill="none" xmlns="http://www.w3.org/2000/svg">
<g id="Group">
<path id="Combined Shape" opacity="0.587821" fill-rule="evenodd" clip-rule="evenodd" d="M4.12476 4.99434C4.12476 7.42832 5.60242 9.40145 7.42521 9.40145C9.248 9.40145 10.7257 7.42832 10.7257 4.99434C10.7257 2.56036 9.248 0.587234 7.42521 0.587234C5.60242 0.587234 4.12476 2.56036 4.12476 4.99434ZM12.3764 9.40149C12.3764 11.227 13.4847 12.7068 14.8518 12.7068C16.2189 12.7068 17.3271 11.227 17.3271 9.40149C17.3271 7.57601 16.2189 6.09616 14.8518 6.09616C13.4847 6.09616 12.3764 7.57601 12.3764 9.40149Z" fill="#9E9E9E"/>
<path id="Combined Shape_2" fill-rule="evenodd" clip-rule="evenodd" d="M7.41228 11.605C3.51656 11.605 0.320358 14.2785 0.000537714 19.5369C-0.0168833 19.8234 0.393342 20.4192 0.600272 20.4192H14.2305C14.8503 20.4192 14.86 19.7532 14.8503 19.5378C14.6085 14.1316 11.3628 11.605 7.41228 11.605ZM14.522 13.8088C15.5577 15.6501 16.1714 17.9387 16.1714 20.4188H19.3533C19.8009 20.4188 19.8079 19.9192 19.8009 19.7577C19.6282 15.7472 17.333 13.8497 14.522 13.8088Z" fill="#9E9E9E"/>
</g>
</svg>
