<svg width="30" height="26" viewBox="0 0 30 26" fill="none" xmlns="http://www.w3.org/2000/svg">
<g id="Group">
<path id="Combined Shape" opacity="0.587821" fill-rule="evenodd" clip-rule="evenodd" d="M6.54175 5.96069C6.54175 9.07087 8.70569 11.5922 11.375 11.5922C14.0444 11.5922 16.2083 9.07087 16.2083 5.96069C16.2083 2.85052 14.0444 0.329224 11.375 0.329224C8.70569 0.329224 6.54175 2.85052 6.54175 5.96069ZM18.6249 11.5921C18.6249 13.9248 20.2479 15.8157 22.2499 15.8157C24.2519 15.8157 25.8749 13.9248 25.8749 11.5921C25.8749 9.2595 24.2519 7.36853 22.2499 7.36853C20.2479 7.36853 18.6249 9.2595 18.6249 11.5921Z" fill="#FF981A"/>
<path id="Combined Shape_2" fill-rule="evenodd" clip-rule="evenodd" d="M11.3548 14.408C5.64977 14.408 0.969142 17.8242 0.500787 24.5435C0.475276 24.9095 1.07602 25.6709 1.37906 25.6709H21.3396C22.2473 25.6709 22.2614 24.8198 22.2473 24.5446C21.8932 17.6365 17.1401 14.408 11.3548 14.408ZM21.768 17.2245C23.2845 19.5773 24.1832 22.5018 24.1832 25.6708L28.8427 25.6708C29.4982 25.6708 29.5084 25.0325 29.4982 24.8261C29.2453 19.7016 25.8842 17.2768 21.768 17.2245Z" fill="#FF981A"/>
</g>
</svg>
